{"glyphs":{"0":{"ha":806,"x_min":57,"x_max":767,"o":"m 767 616 q 734 339 767 457 q 644 144 701 222 q 510 27 587 66 q 347 -11 434 -11 q 229 14 283 -11 q 138 90 176 40 q 78 217 99 141 q 57 394 57 293 q 90 671 57 553 q 178 867 122 789 q 311 984 235 945 q 474 1022 387 1022 q 593 997 539 1022 q 685 921 647 972 q 745 794 724 870 q 767 616 767 718 m 554 627 q 545 738 554 694 q 523 808 537 782 q 491 845 509 834 q 453 856 472 856 q 386 833 419 856 q 327 757 353 811 q 285 611 301 703 q 269 382 269 520 q 278 272 269 316 q 300 202 286 228 q 331 166 313 176 q 368 156 349 156 q 413 165 390 156 q 456 196 435 174 q 494 253 476 217 q 526 341 513 288 q 547 464 539 393 q 554 627 554 535 z "},"1":{"ha":806,"x_min":121,"x_max":675,"o":"m 675 150 l 656 0 l 121 0 l 140 150 l 316 150 l 380 676 q 385 713 382 694 q 392 750 388 731 l 281 653 q 250 640 265 642 q 223 639 235 637 q 201 648 210 642 q 188 661 192 654 l 134 748 l 458 1012 l 630 1012 l 524 150 l 675 150 z "},"2":{"ha":806,"x_min":16,"x_max":755,"o":"m 626 187 q 677 169 660 187 q 690 120 694 151 l 675 0 l 16 0 l 24 67 q 38 108 27 86 q 71 149 49 131 l 372 445 q 449 527 417 490 q 501 600 481 565 q 531 672 522 636 q 540 749 540 708 q 519 825 540 798 q 453 853 499 853 q 380 826 411 853 q 333 759 349 799 q 290 710 314 722 q 224 705 265 697 l 117 724 q 173 855 137 799 q 257 948 209 910 q 364 1004 306 985 q 487 1022 422 1022 q 600 1003 551 1022 q 684 950 650 984 q 737 870 719 917 q 755 767 755 823 q 737 652 755 704 q 688 552 719 599 q 616 462 657 506 q 528 373 574 419 l 311 159 q 393 179 353 172 q 467 187 434 187 l 626 187 z "},"3":{"ha":806,"x_min":40,"x_max":752,"o":"m 122 724 q 178 855 142 799 q 262 948 214 910 q 369 1004 310 985 q 492 1022 427 1022 q 605 1003 556 1022 q 686 953 653 985 q 735 878 719 921 q 752 789 752 836 q 741 691 752 733 q 709 619 731 649 q 656 568 688 588 q 582 534 624 547 q 713 340 713 481 q 682 187 713 253 q 598 77 650 122 q 480 11 547 33 q 342 -11 413 -11 q 227 5 277 -11 q 140 54 177 21 q 78 138 103 88 q 40 258 54 189 l 137 296 q 173 305 156 303 q 205 304 190 307 q 229 293 219 301 q 244 272 240 285 q 296 187 267 217 q 361 158 324 158 q 422 172 395 158 q 468 211 449 187 q 497 269 487 236 q 506 339 506 302 q 500 382 506 363 q 474 416 493 401 q 421 438 455 430 q 332 445 387 445 l 350 589 q 447 599 408 589 q 507 630 485 610 q 537 681 528 651 q 546 750 546 710 q 525 826 546 799 q 458 853 503 853 q 385 826 416 853 q 338 759 353 799 q 294 710 319 722 q 228 705 270 697 l 122 724 z "},"4":{"ha":806,"x_min":22,"x_max":741,"o":"m 468 391 l 501 668 q 508 710 504 688 q 517 756 511 731 l 235 391 l 468 391 m 741 391 l 726 274 q 712 247 724 258 q 681 235 700 235 l 631 235 l 601 0 l 421 0 l 449 235 l 78 235 q 45 247 60 235 q 30 278 31 259 l 22 381 l 528 1011 l 726 1011 l 649 391 l 741 391 z "},"5":{"ha":806,"x_min":31,"x_max":754,"o":"m 754 1011 l 743 926 q 706 856 738 883 q 609 829 675 829 l 397 829 l 347 654 q 398 661 374 659 q 444 663 422 663 q 561 642 511 663 q 645 585 611 622 q 695 500 678 549 q 712 395 712 451 q 681 232 712 306 q 594 103 649 157 q 465 19 540 49 q 304 -11 390 -11 q 218 -1 258 -11 q 143 27 178 10 q 81 67 109 44 q 31 116 53 90 l 106 202 q 161 228 129 228 q 196 217 181 228 q 230 193 212 206 q 274 168 249 179 q 338 157 299 157 q 416 175 384 157 q 466 224 447 194 q 494 292 485 253 q 502 369 502 330 q 470 465 502 431 q 378 499 438 499 q 255 474 316 499 l 131 508 l 273 1011 l 754 1011 z "},"6":{"ha":741,"x_min":58,"x_max":751,"o":"m 371 153 q 432 168 403 153 q 482 208 460 183 q 517 269 504 234 q 531 347 531 305 q 498 451 531 413 q 407 489 465 489 q 348 475 376 489 q 300 435 321 461 q 267 372 279 409 q 255 290 255 335 q 283 191 255 228 q 371 153 311 153 m 406 624 q 450 635 427 631 q 500 639 474 639 q 589 623 546 639 q 666 575 632 607 q 720 493 700 542 q 741 379 741 444 q 712 228 741 299 q 631 104 683 157 q 508 20 579 51 q 353 -11 437 -11 q 227 12 283 -11 q 134 76 172 35 q 77 173 97 117 q 58 298 58 230 q 67 390 58 346 q 95 478 76 435 q 141 565 113 522 q 204 653 168 608 l 449 963 q 498 997 467 983 q 566 1011 528 1011 l 751 1011 l 431 651 l 406 624 z "},"7":{"ha":806,"x_min":82,"x_max":808,"o":"m 808 1011 l 797 924 q 780 861 792 885 q 758 821 768 838 l 350 68 q 304 20 332 40 q 233 0 276 0 l 82 0 l 497 734 q 535 786 516 763 q 575 829 553 809 l 174 829 q 143 843 156 829 q 133 874 131 857 l 150 1011 l 808 1011 z "},"8":{"ha":806,"x_min":48,"x_max":748,"o":"m 368 145 q 432 159 406 145 q 476 197 459 173 q 502 255 494 222 q 510 327 510 288 q 505 375 510 353 q 487 412 499 397 q 454 435 474 427 q 403 444 433 444 q 297 400 331 444 q 263 267 263 356 q 269 219 263 241 q 288 180 275 197 q 320 155 300 164 q 368 145 340 145 m 456 871 q 400 858 423 871 q 363 823 377 844 q 342 772 349 801 q 336 711 336 742 q 340 670 336 690 q 354 635 344 651 q 381 611 364 620 q 424 601 398 601 q 478 614 456 601 q 516 648 501 626 q 538 700 531 670 q 545 765 545 730 q 540 805 545 785 q 525 838 535 824 q 498 862 515 853 q 456 871 481 871 m 590 526 q 692 446 661 497 q 723 325 723 394 q 695 186 723 249 q 617 81 667 124 q 499 13 567 37 q 349 -11 430 -11 q 224 8 280 -11 q 129 61 168 26 q 69 144 90 96 q 48 252 48 192 q 58 344 48 301 q 91 422 68 387 q 150 485 114 458 q 240 529 187 512 q 161 604 187 558 q 135 713 135 650 q 161 836 135 780 q 234 934 188 893 q 343 999 281 976 q 476 1022 405 1022 q 587 1003 537 1022 q 673 952 637 985 q 728 874 708 919 q 748 777 748 829 q 709 624 748 688 q 590 526 669 560 z "},"9":{"ha":806,"x_min":74,"x_max":758,"o":"m 308 672 q 335 580 308 612 q 415 548 361 548 q 476 561 449 548 q 522 598 503 574 q 551 656 541 622 q 561 728 561 689 q 531 825 561 792 q 449 858 500 858 q 391 844 417 858 q 347 806 365 831 q 318 747 328 781 q 308 672 308 713 m 418 385 q 437 407 428 397 q 455 428 446 418 q 321 397 393 397 q 240 412 280 397 q 169 459 201 428 q 117 537 137 490 q 98 647 98 584 q 126 791 98 723 q 204 911 154 860 q 323 992 254 963 q 472 1022 391 1022 q 594 1001 541 1022 q 684 941 648 979 q 740 849 721 902 q 758 732 758 795 q 748 627 758 676 q 719 533 738 578 q 674 446 701 488 q 614 360 647 403 l 378 46 q 332 14 362 27 q 265 0 301 0 l 74 0 l 418 385 z "},"\u0000":{"ha":0,"x_min":0,"x_max":0,"o":""}," ":{"ha":285,"x_min":0,"x_max":0,"o":""},"A":{"ha":926,"x_min":-65,"x_max":885,"o":"m 585 385 l 535 674 q 523 739 530 701 q 510 819 517 776 q 477 738 494 775 q 449 673 461 701 l 331 385 l 585 385 m 885 0 l 710 0 q 665 14 681 0 q 642 49 649 27 l 611 231 l 267 231 l 192 49 q 161 15 183 31 q 113 0 140 0 l -65 0 l 419 1012 l 651 1012 l 885 0 z "},"Ą":{"ha":926,"x_min":-65,"x_max":894,"o":"m 585 385 l 535 674 q 523 739 530 701 q 510 819 517 776 q 477 738 494 775 q 449 673 461 701 l 331 385 l 585 385 m 894 -206 q 835 -231 870 -221 q 760 -241 799 -241 q 662 -215 694 -241 q 629 -148 629 -188 q 654 -72 629 -110 q 738 0 678 -34 l 710 0 q 665 14 681 0 q 642 49 649 27 l 611 231 l 267 231 l 192 49 q 161 15 183 31 q 113 0 140 0 l -65 0 l 419 1012 l 651 1012 l 885 0 l 863 0 q 815 -39 834 -16 q 796 -91 796 -62 q 802 -113 796 -105 q 822 -122 808 -122 q 835 -121 830 -122 q 843 -119 840 -120 q 849 -117 847 -118 q 855 -116 851 -116 q 872 -129 870 -116 l 894 -206 z "},"Æ":{"ha":1216,"x_min":-62,"x_max":1240,"o":"m 588 385 l 588 832 q 528 708 560 762 l 367 385 l 588 385 m 802 838 l 802 592 l 1098 592 l 1077 424 l 802 424 l 802 174 l 1137 174 l 1115 0 l 588 0 l 588 231 l 290 231 l 199 49 q 165 15 188 31 q 115 0 143 0 l -62 0 l 506 1012 l 1240 1012 l 1217 838 l 802 838 z "},"B":{"ha":868,"x_min":40,"x_max":842,"o":"m 435 170 q 506 182 477 170 q 552 216 534 194 q 577 267 569 238 q 585 331 585 297 q 580 373 585 354 q 559 405 574 392 q 522 425 545 417 q 465 432 499 432 l 319 432 l 287 170 l 435 170 m 369 843 l 337 582 l 445 582 q 514 590 483 582 q 566 616 544 597 q 600 665 588 634 q 612 740 612 695 q 582 820 612 797 q 491 843 553 843 l 369 843 m 512 1012 q 663 995 600 1012 q 766 948 726 978 q 824 873 806 917 q 842 777 842 830 q 832 697 842 735 q 798 626 821 658 q 738 567 774 593 q 649 522 701 540 q 770 452 731 499 q 809 334 809 406 q 782 203 809 264 q 705 97 756 142 q 582 26 654 52 q 417 0 509 0 l 40 0 l 165 1012 l 512 1012 z "},"C":{"ha":857,"x_min":45,"x_max":898,"o":"m 481 175 q 548 181 519 175 q 596 196 576 187 q 630 216 616 205 q 655 235 644 226 q 676 250 666 244 q 697 256 685 256 q 715 252 708 256 q 726 244 722 249 l 805 149 q 648 30 739 70 q 442 -11 558 -11 q 273 23 347 -11 q 148 115 199 56 q 71 255 97 174 q 45 430 45 336 q 65 594 45 517 q 119 738 84 672 q 205 857 155 804 q 315 947 254 910 q 444 1003 375 983 q 590 1023 514 1023 q 693 1012 647 1023 q 778 982 740 1001 q 846 937 816 963 q 898 878 876 910 l 819 787 q 799 769 810 777 q 770 762 788 762 q 749 767 758 762 q 729 781 739 773 q 706 799 719 789 q 676 816 694 808 q 635 830 659 824 q 578 835 611 835 q 459 808 515 835 q 364 731 404 781 q 300 609 323 681 q 277 448 277 537 q 293 333 277 383 q 335 247 308 282 q 400 193 363 212 q 481 175 438 175 z "},"Ç":{"ha":857,"x_min":45,"x_max":898,"o":"m 388 -8 q 241 38 305 1 q 134 133 177 75 q 68 267 90 191 q 45 430 45 342 q 65 594 45 517 q 119 738 84 672 q 205 857 155 804 q 315 947 254 910 q 444 1003 375 983 q 590 1023 514 1023 q 693 1012 647 1023 q 778 982 740 1001 q 846 937 816 963 q 898 878 876 910 l 819 787 q 799 769 810 777 q 770 762 788 762 q 749 767 758 762 q 729 781 739 773 q 706 799 719 789 q 676 816 694 808 q 635 830 659 824 q 578 835 611 835 q 459 808 515 835 q 364 731 404 781 q 300 609 323 681 q 277 448 277 537 q 293 333 277 383 q 335 247 308 282 q 400 193 363 212 q 481 175 438 175 q 548 181 519 175 q 596 196 576 187 q 630 216 616 205 q 655 235 644 226 q 676 250 666 244 q 697 256 685 256 q 715 252 708 256 q 726 244 722 249 l 805 149 q 676 43 749 82 q 511 -7 602 3 l 501 -35 q 545 -53 527 -43 q 573 -75 563 -63 q 588 -101 583 -87 q 592 -129 592 -115 q 578 -179 592 -157 q 539 -216 564 -201 q 478 -239 513 -231 q 401 -247 443 -247 q 353 -244 374 -247 q 307 -236 331 -242 l 335 -172 q 360 -153 341 -153 q 378 -155 370 -153 q 396 -158 385 -158 q 418 -150 412 -158 q 424 -135 424 -143 q 407 -115 424 -122 q 347 -101 390 -108 l 388 -8 z "},"D":{"ha":985,"x_min":40,"x_max":958,"o":"m 958 571 q 939 414 958 488 q 885 277 920 340 q 801 162 851 213 q 690 75 751 111 q 556 19 628 39 q 403 0 483 0 l 40 0 l 165 1012 l 528 1012 q 707 978 628 1012 q 842 885 787 944 q 928 746 898 826 q 958 571 958 665 m 726 565 q 711 677 726 627 q 669 763 697 728 q 600 818 641 799 q 506 838 559 838 l 370 838 l 290 174 l 426 174 q 551 202 495 174 q 645 280 606 229 q 705 403 684 331 q 726 565 726 475 z "},"Ð":{"ha":996,"x_min":2,"x_max":969,"o":"m 438 174 q 563 202 508 174 q 657 280 618 229 q 716 403 695 331 q 737 565 737 475 q 723 677 737 627 q 680 763 708 728 q 611 818 652 799 q 517 838 570 838 l 381 838 l 349 569 l 566 569 l 551 445 l 335 445 l 302 174 l 438 174 m 540 1012 q 719 978 640 1012 q 854 885 799 944 q 939 746 910 826 q 969 571 969 665 q 950 414 969 488 q 897 277 931 340 q 812 162 862 213 q 701 75 763 111 q 568 19 640 39 q 416 0 496 0 l 52 0 l 106 445 l 2 445 l 19 569 l 122 569 l 176 1012 l 540 1012 z "},"E":{"ha":744,"x_min":40,"x_max":767,"o":"m 371 838 l 341 593 l 627 593 l 605 425 l 320 425 l 289 174 l 666 174 l 644 0 l 40 0 l 165 1012 l 767 1012 l 745 838 l 371 838 z "},"Ę":{"ha":744,"x_min":40,"x_max":767,"o":"m 371 838 l 341 593 l 627 593 l 605 425 l 320 425 l 289 174 l 666 174 l 644 0 l 618 0 q 570 -39 589 -16 q 551 -91 551 -62 q 557 -113 551 -105 q 576 -122 563 -122 q 590 -121 585 -122 q 598 -119 595 -120 q 604 -117 601 -118 q 610 -116 606 -116 q 627 -129 625 -116 l 649 -206 q 590 -231 625 -221 q 515 -241 554 -241 q 417 -215 449 -241 q 384 -148 384 -188 q 409 -72 384 -110 q 493 0 433 -34 l 40 0 l 165 1012 l 767 1012 l 745 838 l 371 838 z "},"F":{"ha":739,"x_min":40,"x_max":767,"o":"m 371 838 l 338 571 l 651 571 l 627 397 l 317 397 l 267 0 l 40 0 l 165 1012 l 767 1012 l 745 838 l 371 838 z "},"G":{"ha":938,"x_min":45,"x_max":935,"o":"m 551 520 l 888 520 l 835 97 q 755 48 797 69 q 668 15 713 28 q 572 -5 622 1 q 465 -11 522 -11 q 293 23 371 -11 q 161 118 216 58 q 75 261 106 178 q 45 440 45 344 q 64 600 45 524 q 119 741 83 676 q 204 858 154 806 q 314 947 253 910 q 445 1003 375 983 q 592 1023 515 1023 q 709 1011 657 1023 q 803 980 762 999 q 878 934 845 960 q 935 880 910 908 l 862 789 q 819 759 844 765 q 767 771 794 754 q 722 800 743 788 q 678 820 700 812 q 631 832 656 828 q 576 835 606 835 q 455 807 510 835 q 360 728 400 779 q 299 606 321 677 q 277 448 277 534 q 293 328 277 381 q 340 239 310 275 q 411 183 369 202 q 503 163 453 163 q 578 170 545 163 q 642 191 612 178 l 662 356 l 576 356 q 544 367 555 356 q 535 395 533 378 l 551 520 z "},"H":{"ha":1006,"x_min":40,"x_max":985,"o":"m 985 1012 l 860 0 l 633 0 l 686 431 l 321 431 l 267 0 l 40 0 l 165 1012 l 392 1012 l 340 585 l 705 585 l 758 1012 l 985 1012 z "},"Ħ":{"ha":1020,"x_min":47,"x_max":1060,"o":"m 729 718 l 364 718 l 347 585 l 713 585 l 729 718 m 1045 718 l 957 718 l 868 0 l 640 0 l 694 431 l 328 431 l 275 0 l 47 0 l 136 718 l 49 718 l 65 846 l 151 846 l 172 1012 l 400 1012 l 379 846 l 744 846 l 765 1012 l 993 1012 l 972 846 l 1060 846 l 1045 718 z "},"I":{"ha":412,"x_min":40,"x_max":391,"o":"m 267 0 l 40 0 l 163 1012 l 391 1012 l 267 0 z "},"Į":{"ha":412,"x_min":-5,"x_max":391,"o":"m 229 0 q 181 -39 200 -16 q 162 -91 162 -62 q 168 -113 162 -105 q 188 -122 174 -122 q 201 -121 196 -122 q 209 -119 206 -120 q 215 -117 213 -118 q 221 -116 217 -116 q 238 -129 236 -116 l 260 -206 q 201 -231 236 -221 q 126 -241 165 -241 q 28 -215 60 -241 q -5 -148 -5 -188 q 20 -72 -5 -110 q 104 0 44 -34 l 40 0 l 163 1012 l 391 1012 l 267 0 l 229 0 z "},"J":{"ha":578,"x_min":-24,"x_max":566,"o":"m 487 363 q 449 210 476 278 q 375 92 421 141 q 266 16 329 42 q 120 -11 202 -11 q 48 -7 83 -11 q -24 7 13 -3 l -8 137 q 5 166 -6 154 q 37 177 15 177 q 74 173 53 177 q 120 169 95 169 q 213 214 176 169 q 260 358 249 258 l 340 1012 l 566 1012 l 487 363 z "},"K":{"ha":921,"x_min":40,"x_max":984,"o":"m 338 598 l 372 598 q 445 631 420 598 l 685 967 q 730 1002 706 993 q 788 1012 755 1012 l 984 1012 l 666 599 q 597 540 633 558 q 638 513 620 530 q 669 469 656 497 l 883 0 l 681 0 q 649 3 662 0 q 626 11 635 6 q 610 24 617 17 q 599 42 604 32 l 442 397 q 417 425 434 417 q 370 433 399 433 l 318 433 l 265 0 l 40 0 l 163 1012 l 390 1012 l 338 598 z "},"L":{"ha":680,"x_min":40,"x_max":628,"o":"m 628 181 l 606 0 l 40 0 l 165 1012 l 391 1012 l 288 181 l 628 181 z "},"Ł":{"ha":710,"x_min":-15,"x_max":658,"o":"m 658 181 l 635 0 l 69 0 l 113 356 l -15 294 l 5 446 q 33 483 7 474 l 135 535 l 194 1012 l 420 1012 l 374 642 l 588 751 l 569 602 q 538 560 565 570 l 352 462 l 317 181 l 658 181 z "},"Ľ":{"ha":681,"x_min":40,"x_max":687,"o":"m 658 1040 q 682 1032 676 1040 q 687 1017 687 1024 q 685 1002 687 1010 q 673 974 683 993 q 645 919 664 954 q 592 826 626 884 q 561 797 578 803 q 517 791 544 791 l 444 791 l 517 1040 l 658 1040 m 628 181 l 606 0 l 40 0 l 165 1012 l 391 1012 l 288 181 l 628 181 z "},"M":{"ha":1242,"x_min":40,"x_max":1222,"o":"m 1222 1012 l 1097 0 l 898 0 l 969 589 q 976 630 972 608 q 985 677 980 653 l 681 155 q 645 120 667 132 q 597 108 623 108 l 566 108 q 520 120 540 108 q 492 155 501 132 l 315 679 q 313 633 314 656 q 309 592 311 611 l 240 0 l 40 0 l 165 1012 l 337 1012 q 361 1010 351 1012 q 379 1006 372 1009 q 393 995 387 1002 q 408 977 400 988 l 585 444 q 599 400 593 423 q 611 355 606 378 q 633 400 622 378 q 659 444 645 423 l 969 977 q 988 995 979 988 q 1004 1006 996 1002 q 1023 1010 1013 1009 q 1048 1012 1033 1012 l 1222 1012 z "},"N":{"ha":1006,"x_min":40,"x_max":985,"o":"m 985 1012 l 860 0 l 742 0 q 700 9 716 0 q 669 38 683 17 l 315 663 q 309 590 313 622 l 240 0 l 40 0 l 165 1012 l 284 1012 q 309 1011 299 1012 q 326 1006 319 1010 q 340 995 334 1002 q 353 977 347 988 l 708 352 q 713 399 710 376 q 717 440 715 421 l 785 1012 l 985 1012 z "},"Ŋ":{"ha":1005,"x_min":40,"x_max":984,"o":"m 890 235 l 872 94 l 867 56 l 865 42 q 837 -74 858 -21 q 781 -166 817 -127 q 693 -226 745 -204 q 569 -247 640 -247 q 534 -245 550 -247 q 502 -240 517 -244 q 472 -231 487 -237 q 440 -218 457 -226 l 474 -131 q 497 -100 484 -107 q 524 -92 509 -92 q 543 -96 535 -92 q 568 -99 551 -99 q 632 -71 610 -99 q 663 18 655 -43 l 665 42 l 313 651 q 309 602 311 626 q 305 558 308 578 l 239 0 l 40 0 l 164 1011 l 283 1011 q 307 1010 297 1011 q 325 1005 317 1008 q 339 994 333 1001 q 353 976 346 987 l 712 359 q 715 411 713 385 q 719 460 717 438 l 785 1011 l 984 1011 l 890 235 l 890 235 z "},"O":{"ha":1056,"x_min":45,"x_max":1030,"o":"m 1030 571 q 1011 414 1030 489 q 957 274 992 339 q 872 157 922 210 q 760 67 822 104 q 626 9 699 30 q 474 -11 554 -11 q 295 24 374 -11 q 160 120 215 59 q 75 263 104 181 q 45 440 45 345 q 64 598 45 522 q 118 738 83 673 q 203 855 153 802 q 315 945 253 908 q 449 1002 377 982 q 602 1023 522 1023 q 781 988 701 1023 q 916 892 860 953 q 1000 748 971 831 q 1030 571 1030 665 m 798 565 q 783 679 798 628 q 739 766 768 730 q 669 823 710 803 q 574 842 627 842 q 450 814 505 842 q 357 733 395 785 q 298 607 318 681 q 277 445 277 534 q 292 332 277 383 q 334 245 306 281 q 404 189 363 209 q 499 169 446 169 q 624 198 569 169 q 718 278 679 226 q 777 403 756 331 q 798 565 798 476 z "},"Ø":{"ha":1056,"x_min":9,"x_max":1072,"o":"m 395 194 q 499 169 440 169 q 624 198 569 169 q 718 278 679 226 q 777 403 756 331 q 798 565 798 476 q 781 685 798 633 l 395 194 m 701 803 q 643 832 675 822 q 574 842 612 842 q 450 814 505 842 q 357 733 395 785 q 298 607 318 681 q 277 445 277 534 q 304 297 277 360 l 701 803 m 930 875 q 1004 737 978 815 q 1030 571 1030 660 q 1011 414 1030 489 q 957 274 992 339 q 872 157 922 210 q 760 67 822 104 q 626 9 699 30 q 474 -11 554 -11 q 365 1 416 -11 q 271 35 315 13 l 227 -20 q 164 -65 199 -52 q 98 -78 129 -78 l 9 -78 l 163 117 q 75 261 106 178 q 45 440 45 344 q 64 598 45 522 q 118 738 83 673 q 203 855 153 802 q 315 945 253 908 q 449 1002 377 982 q 602 1023 522 1023 q 724 1008 667 1023 q 827 964 780 992 l 858 1003 q 881 1027 871 1017 q 902 1044 891 1038 q 925 1053 913 1051 q 956 1056 938 1056 l 1072 1056 l 930 875 z "},"Œ":{"ha":1383,"x_min":47,"x_max":1406,"o":"m 472 163 q 585 193 535 163 q 672 278 636 224 q 726 407 707 332 q 745 572 745 482 q 733 684 745 633 q 697 771 721 735 q 637 828 673 808 q 555 849 601 849 q 439 818 490 849 q 352 734 388 788 q 298 604 317 679 q 278 438 278 528 q 291 327 278 378 q 327 240 303 276 q 388 183 351 203 q 472 163 424 163 m 1008 838 l 978 592 l 1265 592 l 1244 424 l 958 424 l 928 174 l 1303 174 l 1281 0 l 705 0 l 717 94 q 584 17 657 44 q 427 -11 511 -11 q 267 23 338 -11 q 148 117 197 58 q 73 258 99 177 q 47 433 47 340 q 85 665 47 558 q 191 852 123 773 q 351 977 258 932 q 553 1023 444 1023 q 705 991 639 1023 q 817 902 771 958 l 830 1012 l 1406 1012 l 1384 838 l 1008 838 z "},"P":{"ha":831,"x_min":40,"x_max":838,"o":"m 437 511 q 518 525 485 511 q 572 566 551 540 q 601 628 592 592 q 610 707 610 664 q 602 762 610 737 q 578 805 594 787 q 536 833 561 823 q 476 843 510 843 l 369 843 l 328 511 l 437 511 m 498 1012 q 652 990 588 1012 q 758 930 717 968 q 819 839 799 891 q 838 726 838 786 q 813 573 838 643 q 735 451 788 502 q 603 370 683 399 q 415 341 524 341 l 307 341 l 265 0 l 40 0 l 163 1012 l 498 1012 z "},"Þ":{"ha":826,"x_min":40,"x_max":819,"o":"m 417 347 q 499 361 466 347 q 552 401 532 375 q 582 463 573 427 q 591 542 591 499 q 583 597 591 572 q 558 639 575 621 q 516 666 542 656 q 456 676 491 676 l 348 676 l 308 347 l 417 347 m 478 844 q 632 823 568 844 q 738 763 697 801 q 799 673 780 725 q 819 561 819 622 q 793 407 819 478 q 716 285 768 337 q 584 205 664 234 q 395 176 504 176 l 286 176 l 265 0 l 40 0 l 163 1012 l 390 1012 l 369 844 l 478 844 z "},"Q":{"ha":1056,"x_min":45,"x_max":1030,"o":"m 277 445 q 292 332 277 383 q 334 245 306 281 q 404 189 363 209 q 499 169 446 169 q 624 198 569 169 q 718 278 679 226 q 777 403 756 331 q 798 565 798 476 q 783 679 798 628 q 739 766 768 730 q 669 823 710 803 q 574 842 627 842 q 450 814 505 842 q 357 733 395 785 q 298 607 318 681 q 277 445 277 534 m 585 -1 q 474 -11 531 -11 q 295 24 374 -11 q 160 120 215 59 q 75 263 104 181 q 45 440 45 345 q 64 598 45 522 q 118 738 83 673 q 203 855 153 802 q 315 945 253 908 q 449 1002 377 982 q 602 1023 522 1023 q 781 988 701 1023 q 916 892 860 953 q 1000 748 971 831 q 1030 571 1030 665 q 1013 423 1030 494 q 965 290 997 352 q 890 177 934 228 q 790 86 845 125 l 992 -190 l 806 -190 q 736 -180 767 -190 q 683 -142 706 -169 l 585 -1 z "},"R":{"ha":853,"x_min":40,"x_max":816,"o":"m 413 534 q 496 549 462 534 q 551 589 530 564 q 582 647 572 614 q 591 717 591 681 q 583 769 591 746 q 557 809 574 792 q 512 834 539 825 q 449 843 485 843 l 369 843 l 331 534 l 413 534 m 470 1012 q 629 992 563 1012 q 736 938 694 972 q 797 855 778 903 q 816 752 816 808 q 801 646 816 697 q 758 554 786 596 q 688 480 729 512 q 594 426 647 447 q 633 398 615 415 q 662 356 650 381 l 809 0 l 605 0 q 557 11 576 0 q 530 43 538 23 l 420 342 q 399 369 412 361 q 362 378 387 378 l 311 378 l 265 0 l 40 0 l 163 1012 l 470 1012 z "},"S":{"ha":726,"x_min":-12,"x_max":731,"o":"m 663 809 q 638 785 650 793 q 610 777 626 777 q 578 788 594 777 q 542 810 562 798 q 497 833 522 823 q 436 844 471 844 q 380 835 404 844 q 340 810 356 826 q 316 772 324 794 q 308 725 308 751 q 324 678 308 697 q 366 645 340 660 q 424 619 392 631 q 491 594 457 608 q 559 562 526 580 q 618 517 592 544 q 659 451 644 490 q 675 360 675 413 q 649 216 675 283 q 573 98 622 149 q 453 18 524 48 q 294 -11 383 -11 q 207 -1 251 -11 q 122 26 163 8 q 47 68 81 44 q -12 122 12 92 l 68 228 q 92 247 78 240 q 121 255 106 255 q 159 241 140 255 q 199 211 177 228 q 251 182 222 195 q 324 168 281 168 q 421 202 387 168 q 456 304 456 237 q 440 356 456 335 q 399 390 424 376 q 341 414 374 403 q 274 438 308 425 q 208 467 240 450 q 150 511 175 484 q 109 579 124 539 q 93 677 93 619 q 118 807 93 744 q 191 917 144 869 q 306 993 238 965 q 457 1022 373 1022 q 541 1013 500 1022 q 617 988 581 1003 q 681 950 652 972 q 731 902 710 928 l 663 809 z "},"Ş":{"ha":726,"x_min":-12,"x_max":731,"o":"m 663 809 q 638 785 650 793 q 610 777 626 777 q 578 788 594 777 q 542 810 562 798 q 497 833 522 823 q 436 844 471 844 q 380 835 404 844 q 340 810 356 826 q 316 772 324 794 q 308 725 308 751 q 324 678 308 697 q 366 645 340 660 q 424 619 392 631 q 491 594 457 608 q 559 562 526 580 q 618 517 592 544 q 659 451 644 490 q 675 360 675 413 q 652 227 675 290 q 588 115 630 164 q 485 34 546 66 q 349 -8 425 1 l 340 -35 q 384 -53 366 -43 q 412 -75 401 -63 q 427 -101 422 -87 q 431 -129 431 -115 q 417 -179 431 -157 q 377 -216 403 -201 q 317 -239 352 -231 q 240 -247 282 -247 q 192 -244 213 -247 q 146 -236 170 -242 l 174 -172 q 199 -153 180 -153 q 217 -155 209 -153 q 235 -158 224 -158 q 257 -150 251 -158 q 263 -135 263 -143 q 246 -115 263 -122 q 185 -101 228 -108 l 228 -6 q 158 12 192 0 q 92 40 123 24 q 34 77 60 56 q -12 122 7 98 l 68 228 q 92 247 78 240 q 121 255 106 255 q 159 241 140 255 q 199 211 177 228 q 251 182 222 195 q 324 168 281 168 q 421 202 387 168 q 456 304 456 237 q 440 356 456 335 q 399 390 424 376 q 341 414 374 403 q 274 438 308 425 q 208 467 240 450 q 150 511 175 484 q 109 579 124 539 q 93 677 93 619 q 118 807 93 744 q 191 917 144 869 q 306 993 238 965 q 457 1022 373 1022 q 541 1013 500 1022 q 617 988 581 1003 q 681 950 652 972 q 731 902 710 928 l 663 809 z "},"T":{"ha":788,"x_min":72,"x_max":837,"o":"m 813 833 l 556 833 l 453 0 l 228 0 l 330 833 l 72 833 l 94 1012 l 837 1012 l 813 833 z "},"Ŧ":{"ha":804,"x_min":80,"x_max":845,"o":"m 565 833 l 535 593 l 724 593 l 709 469 l 519 469 l 462 0 l 237 0 l 294 469 l 103 469 l 119 593 l 309 593 l 338 833 l 80 833 l 102 1012 l 845 1012 l 822 833 l 565 833 z "},"U":{"ha":969,"x_min":67,"x_max":960,"o":"m 454 178 q 532 194 497 178 q 593 241 567 210 q 636 314 619 271 q 660 410 653 357 l 733 1012 l 960 1012 l 886 410 q 837 241 874 318 q 741 107 800 163 q 603 20 681 51 q 431 -11 524 -11 q 266 20 337 -11 q 150 107 195 51 q 86 241 104 163 q 79 410 67 318 l 151 1012 l 378 1012 l 304 410 q 305 314 298 357 q 331 241 312 271 q 381 194 350 210 q 454 178 412 178 z "},"Ų":{"ha":969,"x_min":68,"x_max":960,"o":"m 960 1012 l 886 410 q 847 263 876 331 q 773 142 818 195 q 667 51 728 88 q 534 -1 607 15 l 537 -1 q 489 -40 508 -17 q 469 -92 469 -62 q 475 -114 469 -106 q 495 -122 481 -122 q 509 -122 503 -122 q 517 -120 514 -121 q 523 -118 520 -119 q 528 -117 525 -117 q 546 -130 544 -117 l 568 -207 q 508 -232 544 -222 q 434 -242 473 -242 q 335 -215 368 -242 q 303 -149 303 -189 q 324 -78 303 -113 q 397 -10 346 -42 q 247 29 311 -4 q 142 118 183 63 q 84 248 101 174 q 79 410 68 322 l 151 1012 l 378 1012 l 304 410 q 305 314 298 357 q 331 241 312 271 q 381 194 350 210 q 454 178 412 178 q 532 194 497 178 q 593 241 567 210 q 636 314 619 271 q 660 410 653 357 l 733 1012 l 960 1012 z "},"V":{"ha":926,"x_min":59,"x_max":1010,"o":"m 1010 1012 l 513 0 l 308 0 l 59 1012 l 241 1012 q 288 998 270 1012 q 309 963 305 984 l 415 405 q 431 331 424 372 q 444 247 439 290 q 476 331 460 290 q 510 405 492 372 l 747 963 q 759 981 751 972 q 777 997 767 990 q 800 1008 788 1003 q 827 1012 813 1012 l 1010 1012 z "},"W":{"ha":1363,"x_min":69,"x_max":1433,"o":"m 1433 1012 l 1020 0 l 815 0 l 722 639 q 716 673 719 655 q 712 711 714 691 q 698 673 704 691 q 684 639 691 655 l 437 0 l 233 0 l 69 1012 l 247 1012 q 293 998 276 1012 q 315 963 311 985 l 385 417 q 390 363 388 392 q 394 301 392 333 q 415 363 404 333 q 437 417 426 392 l 644 963 q 656 981 648 972 q 674 997 663 990 q 697 1008 684 1003 q 723 1012 709 1012 l 776 1012 q 822 998 805 1012 q 845 963 839 984 l 923 417 q 931 364 927 393 q 937 304 934 335 q 956 364 947 335 q 973 417 965 392 l 1173 963 q 1184 981 1176 972 q 1202 997 1192 990 q 1226 1008 1213 1003 q 1253 1012 1240 1012 l 1433 1012 z "},"X":{"ha":903,"x_min":-69,"x_max":959,"o":"m 623 551 l 866 0 l 663 0 q 629 11 641 0 q 610 36 617 22 l 461 408 q 456 399 458 403 q 449 390 453 394 l 226 36 q 195 8 212 16 q 158 0 178 0 l -69 0 l 312 540 l 92 1012 l 298 1012 q 330 1006 320 1012 q 345 986 339 1000 l 478 667 q 495 694 485 680 l 673 983 q 694 1005 683 998 q 722 1012 706 1012 l 959 1012 l 623 551 z "},"Y":{"ha":876,"x_min":59,"x_max":960,"o":"m 547 388 l 498 0 l 272 0 l 319 385 l 59 1012 l 260 1012 q 306 998 290 1012 q 330 963 322 985 l 427 656 q 458 544 448 597 q 488 598 472 570 q 522 656 503 625 l 694 963 q 725 996 706 981 q 773 1012 744 1012 l 960 1012 l 547 388 z "},"Z":{"ha":786,"x_min":-33,"x_max":828,"o":"m 819 944 q 810 917 817 930 q 795 893 803 905 l 284 174 l 712 174 l 690 0 l -33 0 l -24 67 q -16 93 -22 81 q -1 117 -9 106 l 511 838 l 106 838 l 128 1012 l 828 1012 l 819 944 z "},"a":{"ha":737,"x_min":15,"x_max":705,"o":"m 466 583 q 370 560 413 583 q 295 495 326 536 q 247 401 264 455 q 230 286 230 347 q 235 227 230 251 q 250 188 241 203 q 273 166 260 173 q 301 159 285 159 q 347 177 324 159 q 389 225 369 194 q 425 297 408 256 q 453 384 442 338 l 479 583 l 466 583 m 433 120 q 334 24 389 59 q 215 -11 280 -11 q 140 5 176 -11 q 76 52 103 20 q 31 132 48 83 q 15 248 15 181 q 50 434 15 346 q 150 588 86 522 q 303 692 215 653 q 497 731 391 731 q 601 724 548 731 q 705 699 653 717 l 617 0 l 502 0 q 468 5 482 0 q 447 19 455 10 q 436 41 439 28 q 433 68 433 53 l 433 120 z "},"ą":{"ha":738,"x_min":15,"x_max":706,"o":"m 467 583 q 370 560 414 583 q 296 495 327 536 q 248 401 265 455 q 231 286 231 347 q 236 227 231 251 q 251 188 242 203 q 273 166 260 173 q 301 159 286 159 q 347 177 325 159 q 389 225 369 194 q 426 297 409 256 q 454 384 442 338 l 480 583 l 467 583 m 592 0 q 544 -39 563 -16 q 525 -91 525 -62 q 531 -113 525 -105 q 551 -122 537 -122 q 564 -121 559 -122 q 573 -119 569 -120 q 578 -117 576 -118 q 584 -116 581 -116 q 601 -129 599 -116 l 624 -206 q 564 -231 599 -221 q 490 -241 528 -241 q 391 -215 424 -241 q 358 -148 358 -188 q 385 -70 358 -110 q 474 3 411 -31 q 442 28 451 10 q 433 68 433 45 l 433 120 q 335 24 390 59 q 215 -11 281 -11 q 140 5 176 -11 q 76 52 104 20 q 32 132 49 83 q 15 248 15 181 q 51 434 15 346 q 151 588 87 522 q 303 692 215 653 q 497 731 392 731 q 601 724 549 731 q 706 699 654 717 l 618 0 l 592 0 z "},"æ":{"ha":1043,"x_min":-7,"x_max":1003,"o":"m 395 310 q 293 295 332 306 q 231 269 253 285 q 201 232 209 253 q 193 190 193 212 q 253 126 193 126 q 302 135 278 126 q 343 164 325 144 q 375 216 362 184 q 393 295 388 249 l 395 310 m 744 586 q 690 575 714 586 q 648 542 666 563 q 619 492 631 522 q 601 425 608 462 q 708 442 668 431 q 770 466 749 453 q 800 494 792 479 q 807 526 807 510 q 793 568 807 551 q 744 586 779 586 m 1003 133 q 928 68 965 96 q 853 23 892 41 q 771 -3 815 6 q 676 -11 728 -11 q 557 19 613 -11 q 467 114 501 49 q 413 58 442 81 q 350 19 383 34 q 282 -4 317 3 q 213 -11 247 -11 q 47 35 100 -11 q -7 165 -7 82 q 1 225 -7 194 q 28 285 9 256 q 78 340 47 314 q 155 385 109 365 q 265 417 201 405 q 410 432 328 430 l 413 450 q 400 544 419 515 q 339 573 381 573 q 282 564 304 573 q 240 545 259 556 q 204 527 222 535 q 163 518 186 518 q 128 528 142 518 q 107 554 115 539 l 78 619 q 215 705 145 676 q 363 733 284 733 q 478 708 434 733 q 545 638 523 683 q 645 706 589 681 q 772 730 702 730 q 859 715 819 730 q 930 673 900 699 q 977 611 960 647 q 994 537 994 576 q 988 486 994 512 q 965 435 982 460 q 920 389 949 410 q 847 349 892 367 q 740 320 803 332 q 593 306 677 309 q 628 187 596 224 q 719 150 660 150 q 769 155 748 150 q 805 167 790 160 q 833 183 821 175 q 857 199 846 192 q 881 212 869 207 q 910 217 894 217 q 930 211 920 217 q 947 198 940 206 l 1003 133 z "},"b":{"ha":762,"x_min":16,"x_max":726,"o":"m 247 178 q 292 154 267 161 q 340 147 317 147 q 409 172 377 147 q 463 238 440 197 q 499 331 486 278 q 512 437 512 383 q 492 537 512 506 q 438 568 472 568 q 391 550 415 568 q 343 502 366 533 q 300 432 320 472 q 267 345 281 391 l 247 178 m 300 607 q 405 698 348 665 q 524 731 461 731 q 606 716 569 731 q 669 667 642 700 q 711 582 696 633 q 726 458 726 530 q 697 279 726 364 q 619 129 668 194 q 507 27 571 65 q 374 -11 444 -11 q 281 9 321 -11 q 211 63 240 30 l 209 56 q 184 14 199 27 q 134 0 169 0 l 16 0 l 142 1040 l 353 1040 l 300 607 z "},"c":{"ha":628,"x_min":21,"x_max":625,"o":"m 586 126 q 519 62 551 88 q 453 19 488 35 q 381 -4 419 3 q 296 -11 342 -11 q 182 10 233 -11 q 95 72 131 32 q 40 167 60 111 q 21 294 21 224 q 50 461 21 382 q 130 600 78 540 q 253 695 182 660 q 408 730 324 730 q 532 705 481 730 q 625 628 584 681 l 556 548 q 538 534 548 540 q 517 528 528 528 q 493 534 503 528 q 473 547 484 540 q 446 559 462 553 q 404 565 430 565 q 342 547 372 565 q 288 494 312 528 q 250 408 265 459 q 236 293 236 358 q 244 230 236 257 q 267 186 253 203 q 301 159 282 168 q 343 150 321 150 q 397 159 376 150 q 433 180 417 169 q 461 200 448 191 q 493 210 474 210 q 513 205 503 210 q 531 192 523 199 l 586 126 l 586 126 z "},"ç":{"ha":628,"x_min":21,"x_max":625,"o":"m 556 548 q 538 534 548 540 q 517 528 528 528 q 493 534 503 528 q 473 547 484 540 q 446 559 462 553 q 404 565 430 565 q 342 547 372 565 q 288 494 312 528 q 250 408 265 459 q 236 293 236 358 q 244 230 236 257 q 267 186 253 203 q 301 159 282 168 q 343 150 321 150 q 397 159 376 150 q 433 180 417 169 q 461 200 448 191 q 493 210 474 210 q 513 205 503 210 q 531 192 523 199 l 586 126 q 528 69 556 93 q 472 28 501 44 q 411 3 442 13 q 343 -9 380 -6 l 333 -35 q 377 -53 360 -43 q 406 -75 395 -63 q 420 -101 416 -87 q 425 -129 425 -115 q 411 -179 425 -157 q 371 -216 397 -201 q 311 -239 346 -231 q 233 -247 276 -247 q 185 -244 207 -247 q 140 -236 164 -242 l 167 -172 q 193 -153 174 -153 q 210 -155 203 -153 q 228 -158 218 -158 q 251 -150 244 -158 q 257 -135 257 -143 q 240 -115 257 -122 q 179 -101 222 -108 l 223 -3 q 138 34 176 8 q 75 97 101 59 q 35 184 49 135 q 21 294 21 234 q 50 461 21 382 q 130 600 78 540 q 253 695 182 660 q 408 730 324 730 q 532 705 481 730 q 625 628 584 681 l 556 548 z "},"d":{"ha":763,"x_min":19,"x_max":771,"o":"m 497 543 q 452 566 477 560 q 406 573 428 573 q 336 548 368 573 q 282 482 305 523 q 246 390 259 442 q 233 283 233 338 q 253 184 233 215 q 307 153 274 153 q 353 169 329 153 q 400 215 377 186 q 442 284 422 244 q 476 368 462 323 l 497 543 m 771 1040 l 642 0 l 526 0 q 493 5 506 0 q 471 19 479 10 q 460 41 463 28 q 457 68 457 53 l 457 128 q 348 26 408 63 q 221 -11 288 -11 q 140 5 176 -11 q 76 53 103 20 q 34 139 49 87 q 19 263 19 190 q 33 384 19 325 q 69 496 46 444 q 126 591 93 548 q 198 666 158 635 q 281 714 237 697 q 371 731 324 731 q 451 717 416 731 q 514 677 487 702 l 560 1040 l 771 1040 z "},"ď":{"ha":763,"x_min":19,"x_max":974,"o":"m 944 1040 q 968 1032 963 1040 q 974 1017 974 1024 q 972 1002 974 1010 q 960 974 969 993 q 932 919 951 954 q 879 826 913 884 q 848 797 865 803 q 804 791 831 791 l 751 791 l 825 1040 l 944 1040 m 497 543 q 452 566 477 560 q 406 573 428 573 q 336 548 368 573 q 282 482 305 523 q 246 390 259 442 q 233 283 233 338 q 253 184 233 215 q 307 153 274 153 q 353 169 329 153 q 400 215 377 186 q 442 284 422 244 q 476 368 462 323 l 497 543 m 771 1040 l 642 0 l 526 0 q 493 5 506 0 q 471 19 479 10 q 460 41 463 28 q 457 68 457 53 l 457 128 q 348 26 408 63 q 221 -11 288 -11 q 140 5 176 -11 q 76 53 103 20 q 34 139 49 87 q 19 263 19 190 q 33 384 19 325 q 69 496 46 444 q 126 591 93 548 q 198 666 158 635 q 281 714 237 697 q 371 731 324 731 q 451 717 416 731 q 514 677 487 702 l 560 1040 l 771 1040 z "},"đ":{"ha":763,"x_min":19,"x_max":838,"o":"m 494 520 q 451 542 474 535 q 406 548 427 548 q 336 527 368 548 q 282 470 305 506 q 246 386 259 434 q 233 283 233 338 q 253 184 233 215 q 307 153 274 153 q 353 169 329 153 q 400 215 377 186 q 442 284 422 244 q 476 368 462 323 l 494 520 m 822 781 l 739 781 l 642 0 l 526 0 q 493 5 506 0 q 471 19 479 10 q 460 41 463 28 q 457 68 457 53 l 457 128 q 348 26 408 63 q 221 -11 288 -11 q 140 5 176 -11 q 76 53 103 20 q 34 139 49 87 q 19 263 19 190 q 48 438 19 357 q 126 578 77 519 q 238 672 174 638 q 371 706 301 706 q 450 692 415 706 q 511 655 485 678 l 527 781 l 463 781 q 405 797 421 781 q 396 851 390 813 l 404 905 l 543 905 l 560 1040 l 771 1040 l 754 905 l 838 905 l 822 781 z "},"ð":{"ha":746,"x_min":17,"x_max":710,"o":"m 331 142 q 384 154 358 142 q 434 194 411 166 q 476 271 458 223 q 505 392 494 319 q 488 433 498 414 q 463 466 478 452 q 427 489 447 481 q 381 497 407 497 q 315 481 344 497 q 265 438 285 465 q 233 374 244 411 q 222 294 222 338 q 252 182 222 221 q 331 142 283 142 m 609 822 q 683 684 657 763 q 710 506 710 606 q 682 289 710 385 q 602 126 654 193 q 475 24 550 60 q 306 -11 400 -11 q 189 9 242 -11 q 97 68 135 30 q 38 161 59 106 q 17 285 17 217 q 43 425 17 359 q 115 541 69 492 q 223 620 160 591 q 357 649 285 649 q 467 627 421 649 q 544 561 513 604 q 522 670 541 622 q 463 756 503 718 l 308 667 l 269 734 q 265 763 260 749 q 282 784 270 776 l 354 826 q 276 856 320 842 q 235 888 241 867 q 244 938 230 909 l 276 1002 q 407 966 346 990 q 521 905 469 942 l 653 979 l 688 913 q 694 884 696 899 q 672 858 692 869 l 609 822 z "},"e":{"ha":687,"x_min":20,"x_max":652,"o":"m 399 585 q 306 542 346 585 q 246 425 265 499 q 354 447 313 435 q 419 473 396 459 q 450 501 442 486 q 458 535 458 517 q 444 569 458 553 q 399 585 430 585 m 637 133 q 562 68 599 96 q 487 23 526 41 q 405 -3 449 6 q 310 -11 362 -11 q 193 11 247 -11 q 101 73 140 33 q 41 169 63 113 q 20 294 20 225 q 33 406 20 351 q 70 509 46 461 q 128 598 94 558 q 207 668 163 639 q 302 714 250 697 q 412 730 353 730 q 514 713 469 730 q 590 670 559 697 q 636 610 620 643 q 652 543 652 576 q 633 453 652 494 q 565 381 613 413 q 435 326 517 349 q 230 292 353 304 q 262 184 231 218 q 353 150 293 150 q 403 155 382 150 q 439 167 424 160 q 467 183 455 175 q 491 199 480 192 q 515 212 503 207 q 544 217 528 217 q 564 211 554 217 q 581 198 574 206 l 637 133 z "},"ę":{"ha":687,"x_min":20,"x_max":652,"o":"m 399 585 q 306 542 346 585 q 246 425 265 499 q 354 447 313 435 q 419 473 396 459 q 450 501 442 486 q 458 535 458 517 q 444 569 458 553 q 399 585 430 585 m 637 133 q 531 47 583 80 q 417 0 478 14 q 369 -39 388 -16 q 350 -91 350 -62 q 356 -113 350 -105 q 376 -122 362 -122 q 389 -121 384 -122 q 398 -119 394 -120 q 403 -117 401 -118 q 409 -116 406 -116 q 426 -129 424 -116 l 449 -206 q 389 -231 424 -221 q 315 -241 353 -241 q 216 -215 249 -241 q 183 -148 183 -188 q 205 -77 183 -112 q 277 -10 226 -42 q 172 20 219 -4 q 91 84 125 44 q 39 176 58 123 q 20 294 20 230 q 33 406 20 351 q 70 509 46 461 q 128 598 94 558 q 207 668 163 639 q 302 714 250 697 q 412 730 353 730 q 514 713 469 730 q 590 670 559 697 q 636 610 620 643 q 652 543 652 576 q 633 453 652 494 q 565 381 613 413 q 435 326 517 349 q 230 292 353 304 q 262 184 231 218 q 353 150 293 150 q 403 155 382 150 q 439 167 424 160 q 467 183 455 175 q 491 199 480 192 q 515 212 503 207 q 544 217 528 217 q 564 211 554 217 q 581 198 574 206 l 637 133 z "},"f":{"ha":473,"x_min":44,"x_max":555,"o":"m 344 572 l 280 35 l 242 -86 q 203 -148 228 -126 q 131 -171 178 -171 l 44 -171 l 133 572 l 91 582 q 58 599 71 588 q 49 634 46 611 l 60 719 l 151 719 l 156 760 q 190 872 164 822 q 258 957 217 922 q 352 1012 299 992 q 469 1031 406 1031 q 514 1028 493 1031 q 555 1018 534 1025 l 535 910 q 516 886 532 892 q 484 881 500 881 q 399 852 431 881 q 359 753 367 824 l 355 719 l 501 719 l 481 572 l 344 572 z "},"ﬀ":{"ha":901,"x_min":44,"x_max":978,"o":"m 778 719 l 931 719 l 913 576 l 768 576 l 703 35 l 665 -86 q 626 -148 651 -126 q 554 -171 601 -171 l 467 -171 l 556 576 l 345 576 l 280 35 l 242 -86 q 203 -148 228 -126 q 131 -171 178 -171 l 44 -171 l 135 578 l 94 588 q 59 603 72 592 q 49 638 46 615 l 60 719 l 152 719 l 156 746 q 189 858 163 808 q 255 944 215 908 q 348 998 295 979 q 461 1017 400 1017 q 506 1014 485 1017 q 547 1005 526 1011 l 528 896 q 508 873 524 878 q 476 867 492 867 q 431 863 451 867 q 397 845 411 858 q 373 810 382 833 q 359 753 363 788 l 355 719 l 573 719 l 579 773 q 613 885 587 835 q 681 970 640 935 q 775 1025 722 1006 q 892 1044 829 1044 q 936 1041 916 1044 q 978 1031 957 1038 l 958 923 q 939 899 955 905 q 907 894 923 894 q 823 865 853 894 q 784 766 792 837 l 778 719 z "},"ﬁ":{"ha":817,"x_min":42,"x_max":778,"o":"m 353 719 l 778 719 l 691 0 l 480 0 l 551 572 l 343 572 l 278 33 l 241 -87 q 202 -150 227 -127 q 130 -172 177 -172 l 42 -172 l 134 573 l 95 582 q 59 598 72 588 q 49 631 47 609 l 59 719 l 152 719 l 153 729 q 189 852 161 794 q 267 952 217 909 q 388 1019 316 994 q 555 1043 460 1043 q 615 1040 584 1043 q 669 1031 647 1037 l 648 926 q 629 903 644 908 q 598 898 614 898 q 485 887 530 898 q 413 855 441 876 q 372 801 385 834 q 353 725 358 769 l 353 719 z "},"ﬃ":{"ha":1241,"x_min":44,"x_max":1203,"o":"m 355 719 l 578 719 l 580 729 q 616 852 588 794 q 693 952 644 909 q 814 1019 742 994 q 981 1043 886 1043 q 1042 1040 1010 1043 q 1095 1031 1073 1037 l 1074 926 q 1056 903 1071 908 q 1024 898 1040 898 q 912 887 956 898 q 840 855 867 876 q 798 801 812 834 q 780 725 785 769 l 779 719 l 1203 719 l 1115 0 l 907 0 l 978 576 l 770 576 l 705 33 l 667 -87 q 628 -150 653 -127 q 556 -172 603 -172 l 469 -172 l 561 576 l 345 576 l 280 35 l 242 -86 q 203 -148 228 -126 q 131 -171 178 -171 l 44 -171 l 135 578 l 94 588 q 59 603 72 592 q 49 638 46 615 l 60 719 l 152 719 l 156 746 q 189 858 163 808 q 255 944 215 908 q 348 998 295 979 q 461 1017 400 1017 q 506 1014 485 1017 q 547 1005 526 1011 l 528 896 q 508 873 524 878 q 476 867 492 867 q 431 863 451 867 q 397 845 411 858 q 373 810 382 833 q 359 753 363 788 l 355 719 z "},"ﬂ":{"ha":823,"x_min":42,"x_max":828,"o":"m 344 572 l 278 33 l 241 -87 q 202 -150 227 -127 q 130 -172 177 -172 l 42 -172 l 133 573 l 95 582 q 59 598 72 588 q 49 631 46 609 l 60 719 l 151 719 l 155 745 q 185 852 162 800 q 247 944 208 904 q 344 1008 287 984 q 476 1033 401 1033 q 586 1029 535 1033 q 692 1024 638 1025 l 828 1024 l 702 0 l 494 0 l 601 876 q 544 883 572 880 q 491 886 517 886 q 399 851 433 886 q 358 745 364 817 l 355 719 l 492 719 l 474 572 l 344 572 z "},"ﬄ":{"ha":1246,"x_min":40,"x_max":1251,"o":"m 351 717 l 574 717 l 578 745 q 608 852 585 800 q 670 944 631 904 q 767 1008 710 984 q 899 1033 824 1033 q 1009 1029 958 1033 q 1115 1024 1060 1025 l 1251 1024 l 1125 0 l 917 0 l 1024 876 q 967 883 995 880 q 914 886 940 886 q 822 851 856 886 q 781 745 787 817 l 778 717 l 931 717 l 913 574 l 768 574 l 701 33 l 664 -87 q 625 -150 650 -127 q 553 -172 600 -172 l 465 -172 l 557 574 l 342 574 l 276 35 l 239 -86 q 200 -148 225 -126 q 128 -171 175 -171 l 40 -171 l 131 576 l 94 585 q 59 601 72 590 q 49 635 46 613 l 60 717 l 149 717 l 152 746 q 185 858 160 808 q 251 944 211 908 q 344 998 292 979 q 458 1017 397 1017 q 502 1014 482 1017 q 544 1005 523 1011 l 524 896 q 505 873 521 878 q 473 867 489 867 q 427 863 447 867 q 393 845 408 858 q 369 810 378 833 q 356 753 360 788 l 351 717 z "},"g":{"ha":721,"x_min":-49,"x_max":736,"o":"m 269 -104 q 328 -96 301 -104 q 375 -73 356 -87 q 405 -37 394 -58 q 415 10 415 -16 q 415 18 415 14 q 415 26 415 22 q 294 37 344 38 q 214 27 244 36 q 169 2 183 17 q 156 -33 156 -14 q 182 -86 156 -68 q 269 -104 208 -104 m 329 348 q 374 361 355 348 q 406 395 393 374 q 425 443 418 417 q 432 497 431 469 q 413 567 432 542 q 356 592 394 592 q 311 580 330 592 q 279 547 292 567 q 260 501 267 527 q 254 446 254 474 q 273 374 254 400 q 329 348 292 348 m 736 694 l 726 626 q 686 573 720 587 l 625 552 q 629 505 629 530 q 617 429 629 460 q 590 370 605 398 q 564 313 576 342 q 551 244 551 284 q 561 192 551 216 q 581 143 570 168 q 602 90 592 118 q 611 26 611 63 q 586 -79 610 -29 q 516 -166 562 -128 q 403 -225 470 -203 q 251 -247 337 -247 q 126 -232 181 -247 q 32 -192 70 -217 q -28 -133 -7 -167 q -49 -59 -49 -99 q -26 31 -49 -7 q 35 93 -3 68 q 120 131 72 117 q 218 150 168 144 q 315 152 268 155 q 399 143 363 150 q 397 178 397 160 q 416 262 397 216 q 354 233 390 244 q 267 223 319 223 q 188 236 226 223 q 122 278 151 250 q 76 348 93 306 q 58 447 58 390 q 79 552 58 501 q 140 643 99 603 q 241 707 181 683 q 381 731 301 731 q 460 722 422 731 q 529 694 497 713 l 736 694 z "},"h":{"ha":766,"x_min":16,"x_max":715,"o":"m 308 626 q 411 706 356 680 q 524 731 466 731 q 607 713 569 731 q 669 660 644 695 q 704 575 694 626 q 706 458 715 524 l 652 0 l 437 0 l 491 458 q 493 507 494 487 q 485 540 492 527 q 468 557 479 552 q 441 563 457 563 q 396 550 419 563 q 350 513 372 537 q 309 456 328 490 q 278 381 290 422 l 231 0 l 16 0 l 142 1040 l 358 1040 l 308 626 z "},"ĥ":{"ha":766,"x_min":-5,"x_max":715,"o":"m 201 1090 q 177 1081 191 1084 q 151 1077 163 1077 l -5 1077 l 170 1233 l 378 1233 l 516 1077 l 359 1077 q 334 1081 347 1077 q 312 1090 322 1085 l 273 1124 q 267 1128 269 1126 q 262 1133 265 1131 q 255 1128 258 1131 q 248 1124 251 1126 l 201 1090 m 308 626 q 411 706 356 680 q 524 731 466 731 q 607 713 569 731 q 669 660 644 695 q 704 575 694 626 q 706 458 715 524 l 652 0 l 437 0 l 491 458 q 493 507 494 487 q 485 540 492 527 q 468 557 479 552 q 441 563 457 563 q 396 550 419 563 q 350 513 372 537 q 309 456 328 490 q 278 381 290 422 l 231 0 l 16 0 l 142 1040 l 358 1040 l 308 626 z "},"ħ":{"ha":766,"x_min":16,"x_max":712,"o":"m 304 599 q 408 679 353 653 q 522 705 463 705 q 604 687 567 705 q 666 634 641 669 q 701 548 691 599 q 703 431 712 497 l 652 0 l 437 0 l 488 431 q 483 513 496 490 q 438 536 471 536 q 393 523 417 536 q 347 486 369 510 q 306 428 325 462 q 274 353 287 394 l 231 0 l 16 0 l 110 779 l 17 779 l 35 907 l 126 907 l 142 1040 l 358 1040 l 342 907 l 517 907 l 506 833 q 485 793 502 808 q 440 779 468 779 l 326 779 l 304 599 z "},"i":{"ha":360,"x_min":22,"x_max":361,"o":"m 321 720 l 235 0 l 22 0 l 108 720 l 321 720 m 361 917 q 350 869 361 892 q 321 830 339 847 q 280 802 303 813 q 232 792 256 792 q 185 802 208 792 q 146 830 163 813 q 119 869 129 847 q 108 917 108 892 q 119 966 108 943 q 147 1006 129 989 q 187 1034 165 1024 q 233 1044 209 1044 q 281 1034 258 1044 q 322 1007 304 1024 q 350 967 340 990 q 361 917 361 944 z "},"į":{"ha":360,"x_min":-32,"x_max":361,"o":"m 108 720 l 321 720 l 235 0 l 202 0 q 154 -39 173 -16 q 135 -91 135 -62 q 141 -113 135 -105 q 160 -122 147 -122 q 174 -121 169 -122 q 182 -119 179 -120 q 188 -117 185 -118 q 194 -116 190 -116 q 211 -129 209 -116 l 233 -206 q 174 -231 209 -221 q 99 -241 138 -241 q 1 -215 33 -241 q -32 -148 -32 -188 q -7 -72 -32 -110 q 77 0 17 -34 l 22 0 l 108 720 m 233 1044 q 281 1034 258 1044 q 322 1007 304 1024 q 350 967 340 990 q 361 917 361 944 q 350 869 361 892 q 321 830 339 847 q 280 802 303 813 q 232 792 256 792 q 185 802 208 792 q 146 830 163 813 q 119 869 129 847 q 108 917 108 892 q 119 966 108 943 q 147 1006 129 989 q 187 1034 165 1024 q 233 1044 209 1044 z "},"ı":{"ha":360,"x_min":22,"x_max":321,"o":"m 321 720 l 235 0 l 22 0 l 108 720 l 321 720 z "},"j":{"ha":358,"x_min":-130,"x_max":352,"o":"m 320 720 l 233 -1 q 207 -97 226 -52 q 155 -175 188 -142 q 75 -228 122 -209 q -34 -248 28 -248 q -86 -245 -65 -248 q -130 -235 -108 -242 l -109 -122 q -97 -101 -106 -108 q -65 -94 -87 -94 q -27 -90 -42 -94 q -3 -75 -12 -85 q 13 -47 7 -65 q 22 -1 18 -29 l 109 720 l 320 720 m 352 917 q 341 869 352 892 q 312 830 330 847 q 270 802 294 813 q 223 792 247 792 q 176 802 199 792 q 137 830 154 813 q 110 869 120 847 q 99 917 99 892 q 110 966 99 943 q 138 1006 120 989 q 178 1034 156 1024 q 224 1044 200 1044 q 272 1034 249 1044 q 313 1007 295 1024 q 341 967 331 990 q 352 917 352 944 z "},"ȷ":{"ha":358,"x_min":-130,"x_max":320,"o":"m 320 720 l 233 -1 q 207 -97 226 -52 q 155 -175 188 -142 q 75 -228 122 -209 q -34 -248 28 -248 q -86 -245 -65 -248 q -130 -235 -108 -242 l -109 -122 q -97 -101 -106 -108 q -65 -94 -87 -94 q -27 -90 -42 -94 q -3 -75 -12 -85 q 13 -47 7 -65 q 22 -1 18 -29 l 109 720 l 320 720 z "},"k":{"ha":728,"x_min":15,"x_max":759,"o":"m 355 1040 l 283 457 l 298 457 q 327 463 316 457 q 349 483 338 469 l 498 685 q 527 711 512 703 q 566 720 543 720 l 759 720 l 558 464 q 492 408 528 428 q 517 380 507 396 q 537 344 528 364 l 681 0 l 494 0 q 456 8 471 0 q 433 36 441 16 l 333 291 q 316 314 325 308 q 288 319 308 319 l 266 319 l 227 0 l 15 0 l 142 1040 l 355 1040 z "},"ĸ":{"ha":728,"x_min":15,"x_max":758,"o":"m 317 720 l 284 457 l 299 457 q 327 463 317 457 q 350 483 338 469 l 499 685 q 528 711 513 703 q 567 720 544 720 l 758 720 l 561 464 q 496 406 533 428 q 519 379 510 394 q 538 344 528 363 l 682 0 l 496 0 q 458 8 473 0 q 435 36 442 16 l 333 291 q 317 314 326 308 q 289 319 308 319 l 267 319 l 228 0 l 15 0 l 104 720 l 317 720 z "},"ł":{"ha":444,"x_min":26,"x_max":450,"o":"m 450 701 l 450 581 q 422 538 450 548 l 341 504 l 280 0 l 67 0 l 119 429 l 26 393 l 26 518 q 51 556 26 545 l 140 592 l 194 1040 l 406 1040 l 361 667 l 450 701 z "},"ľ":{"ha":349,"x_min":16,"x_max":560,"o":"m 531 1040 q 555 1032 550 1040 q 560 1017 560 1024 q 558 1002 560 1010 q 547 974 556 993 q 519 919 538 954 q 466 826 500 884 q 435 797 452 803 q 391 791 417 791 l 338 791 l 412 1040 l 531 1040 m 16 0 l 142 1040 l 355 1040 l 228 0 l 16 0 z "},"m":{"ha":1109,"x_min":16,"x_max":1058,"o":"m 16 0 l 103 720 l 215 720 q 267 705 248 720 q 285 653 285 689 l 285 611 q 382 702 331 672 q 488 731 433 731 q 590 692 549 731 q 641 576 630 652 q 746 694 689 656 q 874 731 803 731 q 956 713 919 731 q 1015 660 992 695 q 1048 575 1039 626 q 1049 458 1058 524 l 995 0 l 783 0 l 837 458 q 839 507 840 487 q 833 539 838 527 q 818 556 828 551 q 795 561 808 561 q 754 550 774 561 q 716 516 734 538 q 684 464 699 494 q 658 394 669 433 l 612 0 l 399 0 l 453 458 q 456 507 457 487 q 450 539 455 527 q 435 556 444 551 q 412 561 425 561 q 370 549 390 561 q 332 515 350 538 q 300 461 315 493 q 274 391 285 430 l 227 0 l 16 0 z "},"n":{"ha":766,"x_min":17,"x_max":715,"o":"m 285 596 q 399 698 337 665 q 526 731 460 731 q 608 713 571 731 q 670 660 645 695 q 705 575 694 626 q 707 458 715 524 l 653 0 l 438 0 l 492 458 q 494 507 495 487 q 487 539 493 527 q 469 556 481 551 q 443 561 458 561 q 394 547 419 561 q 345 505 368 532 q 302 441 322 478 q 272 357 283 403 l 232 0 l 17 0 l 103 720 l 214 720 q 266 705 247 720 q 285 653 285 689 l 285 596 z "},"ŋ":{"ha":767,"x_min":17,"x_max":715,"o":"m 285 596 q 399 698 337 665 q 526 731 460 731 q 608 713 571 731 q 670 660 645 695 q 705 575 694 626 q 707 458 715 524 l 665 92 l 659 41 q 630 -76 651 -23 q 573 -167 610 -129 q 484 -227 537 -206 q 358 -249 431 -249 q 325 -248 339 -249 q 298 -246 310 -248 q 273 -242 285 -244 q 244 -235 260 -240 l 262 -136 q 275 -102 266 -112 q 310 -92 283 -92 q 320 -93 316 -92 q 330 -94 325 -93 q 341 -95 335 -94 q 355 -95 347 -95 q 414 -69 394 -95 q 440 17 433 -43 l 447 70 l 492 458 q 494 507 495 487 q 487 539 493 527 q 469 556 481 551 q 443 561 458 561 q 394 547 419 561 q 345 505 368 532 q 302 441 322 478 q 272 357 283 403 l 232 0 l 17 0 l 103 720 l 214 720 q 266 705 247 720 q 285 653 285 689 l 285 596 z "},"o":{"ha":733,"x_min":21,"x_max":696,"o":"m 326 149 q 391 170 363 149 q 439 230 419 192 q 470 318 459 268 q 481 426 481 369 q 459 538 481 504 q 390 572 438 572 q 326 550 354 572 q 277 490 297 528 q 247 402 258 453 q 236 294 236 351 q 257 183 236 217 q 326 149 278 149 m 307 -11 q 194 9 247 -11 q 103 68 142 29 q 43 163 65 106 q 21 293 21 219 q 52 469 21 389 q 138 608 84 549 q 261 699 191 666 q 410 731 332 731 q 522 711 470 731 q 613 652 574 691 q 674 557 651 614 q 696 427 696 501 q 664 252 696 333 q 579 114 633 172 q 455 22 526 55 q 307 -11 385 -11 z "},"ø":{"ha":731,"x_min":-26,"x_max":742,"o":"m 283 146 q 326 135 302 135 q 392 156 362 135 q 445 214 423 176 q 481 305 468 251 q 494 426 494 359 l 494 439 l 283 146 m 431 576 q 390 585 413 585 q 323 565 353 585 q 270 507 292 544 q 234 416 247 469 q 222 294 222 362 l 222 283 l 431 576 m 642 617 q 681 533 667 580 q 695 427 695 485 q 664 252 695 333 q 578 114 632 172 q 455 22 525 55 q 306 -11 384 -11 q 171 19 232 -11 q 114 -19 146 -8 q 52 -30 83 -30 l -26 -30 l 73 104 q 34 188 48 141 q 20 293 20 235 q 52 469 20 389 q 137 608 83 549 q 261 699 190 666 q 409 731 331 731 q 544 701 483 731 q 563 725 554 715 q 583 741 572 735 q 606 750 593 747 q 637 753 619 753 l 742 753 l 642 617 z "},"œ":{"ha":1111,"x_min":19,"x_max":1071,"o":"m 483 422 q 468 536 489 496 q 399 577 448 577 q 326 554 358 577 q 273 490 294 531 q 240 392 251 449 q 228 265 228 335 q 233 219 228 241 q 248 180 238 197 q 275 153 258 163 q 317 143 292 143 q 386 163 357 143 q 436 219 416 183 q 468 307 456 256 q 483 422 479 358 m 817 588 q 720 544 762 588 q 663 417 679 501 q 776 441 732 428 q 845 470 819 455 q 881 501 871 485 q 890 534 890 517 q 872 572 890 556 q 817 588 854 588 m 1065 133 q 990 68 1026 96 q 915 23 953 41 q 833 -3 876 6 q 738 -11 790 -11 q 623 17 676 -11 q 533 106 569 46 q 413 19 481 50 q 265 -11 345 -11 q 160 10 206 -11 q 83 68 115 32 q 35 153 51 105 q 19 254 19 201 q 34 399 19 333 q 77 517 50 465 q 142 610 105 570 q 224 677 180 651 q 318 718 269 704 q 418 731 367 731 q 531 707 483 731 q 610 637 578 683 q 715 706 655 681 q 851 731 775 731 q 941 717 900 731 q 1010 678 981 703 q 1055 619 1039 653 q 1071 542 1071 584 q 1052 453 1071 493 q 985 381 1033 413 q 857 327 938 349 q 656 292 777 304 q 693 183 661 217 q 781 150 725 150 q 831 155 810 150 q 867 167 851 160 q 895 183 883 175 q 919 199 908 192 q 943 212 931 207 q 972 217 956 217 q 992 211 982 217 q 1009 198 1001 206 l 1065 133 z "},"p":{"ha":762,"x_min":-12,"x_max":726,"o":"m 248 177 q 293 154 268 161 q 340 147 317 147 q 409 172 377 147 q 463 238 440 197 q 499 331 486 278 q 512 437 512 383 q 492 537 512 506 q 438 568 472 568 q 392 551 416 568 q 345 505 368 534 q 303 436 323 476 q 269 351 283 397 l 248 177 m 285 588 q 395 693 335 655 q 524 731 456 731 q 606 716 569 731 q 669 667 642 700 q 711 582 696 633 q 726 458 726 530 q 697 279 726 364 q 619 129 668 194 q 507 27 571 65 q 374 -11 444 -11 q 294 3 330 -11 q 231 42 258 18 l 198 -228 l -12 -228 l 103 720 l 215 720 q 267 705 248 720 q 285 653 285 689 l 285 588 z "},"þ":{"ha":762,"x_min":-12,"x_max":726,"o":"m 248 177 q 293 154 268 161 q 340 147 317 147 q 409 172 377 147 q 463 238 440 197 q 499 331 486 278 q 512 437 512 383 q 492 537 512 506 q 438 568 472 568 q 392 551 416 568 q 345 505 368 534 q 303 436 323 476 q 269 351 283 397 l 248 177 m 301 609 q 405 699 349 666 q 524 731 461 731 q 606 716 569 731 q 669 667 642 700 q 711 582 696 633 q 726 458 726 530 q 697 279 726 364 q 619 129 668 194 q 507 27 571 65 q 374 -11 444 -11 q 294 3 330 -11 q 231 42 258 18 l 206 -160 q 198 -186 205 -174 q 181 -207 192 -198 q 155 -223 170 -217 q 123 -228 140 -228 l -12 -228 l 142 1040 l 355 1040 l 301 609 z "},"q":{"ha":738,"x_min":15,"x_max":706,"o":"m 467 583 q 370 560 414 583 q 296 495 327 536 q 248 401 265 455 q 231 286 231 347 q 236 227 231 251 q 251 188 242 203 q 273 166 260 173 q 301 159 286 159 q 347 176 324 159 q 389 224 369 194 q 425 295 408 254 q 453 382 442 335 l 479 583 l 467 583 m 417 99 q 325 18 376 47 q 215 -11 274 -11 q 140 5 176 -11 q 76 52 104 20 q 32 132 49 83 q 15 248 15 181 q 51 434 15 346 q 151 588 87 522 q 303 692 215 653 q 497 731 392 731 q 601 724 549 731 q 706 699 654 717 l 589 -228 l 447 -228 q 415 -222 427 -228 q 395 -203 402 -215 q 385 -180 388 -192 q 385 -155 383 -167 l 417 99 z "},"r":{"ha":505,"x_min":16,"x_max":534,"o":"m 285 572 q 342 651 312 618 q 403 703 372 685 q 468 724 435 722 q 534 711 501 726 l 495 512 q 421 527 456 528 q 358 503 387 526 q 306 437 329 481 q 266 323 283 392 l 227 0 l 16 0 l 103 720 l 215 720 q 267 705 248 720 q 285 653 285 689 l 285 572 z "},"s":{"ha":570,"x_min":-23,"x_max":566,"o":"m 510 569 q 492 551 501 556 q 470 545 484 545 q 443 551 456 545 q 414 566 429 558 q 378 580 398 574 q 333 586 358 586 q 264 568 285 586 q 244 520 244 549 q 255 488 244 501 q 285 465 267 475 q 328 445 304 454 q 377 426 352 437 q 426 401 402 415 q 469 367 450 388 q 499 319 488 347 q 510 253 510 292 q 489 151 510 199 q 427 67 467 103 q 330 10 387 31 q 201 -11 272 -11 q 133 -4 167 -11 q 70 15 100 3 q 17 43 41 26 q -23 78 -8 59 l 30 157 q 52 179 40 171 q 84 187 65 187 q 114 178 101 187 q 141 160 126 170 q 176 142 156 151 q 228 134 196 134 q 297 155 274 134 q 319 203 319 175 q 307 238 319 224 q 277 262 296 252 q 235 280 258 272 q 186 298 211 288 q 138 320 161 308 q 95 353 114 333 q 65 401 76 372 q 53 469 53 429 q 72 567 53 519 q 127 650 90 614 q 217 709 163 687 q 344 731 272 731 q 473 706 416 731 q 566 645 529 681 l 510 569 z "},"ş":{"ha":570,"x_min":-23,"x_max":566,"o":"m 510 569 q 492 551 501 556 q 470 545 484 545 q 443 551 456 545 q 414 566 429 558 q 378 580 398 574 q 333 586 358 586 q 264 568 285 586 q 244 520 244 549 q 255 488 244 501 q 285 465 267 475 q 328 445 304 454 q 377 426 352 437 q 426 401 402 415 q 469 367 450 388 q 499 319 488 347 q 510 253 510 292 q 494 163 510 206 q 445 85 477 119 q 369 27 414 51 q 267 -6 324 3 l 256 -35 q 300 -53 283 -43 q 328 -75 318 -63 q 343 -101 339 -87 q 348 -129 348 -115 q 334 -179 348 -157 q 294 -216 319 -201 q 234 -239 269 -231 q 156 -247 199 -247 q 108 -244 130 -247 q 63 -236 87 -242 l 90 -172 q 116 -153 97 -153 q 133 -155 126 -153 q 151 -158 141 -158 q 174 -150 167 -158 q 180 -135 180 -143 q 163 -115 180 -122 q 102 -101 145 -108 l 144 -6 q 93 6 118 -2 q 47 25 69 15 q 7 50 25 36 q -23 78 -10 63 l 30 157 q 52 179 40 171 q 84 187 65 187 q 114 178 101 187 q 141 160 126 170 q 176 142 156 151 q 228 134 196 134 q 297 155 274 134 q 319 203 319 175 q 307 238 319 224 q 277 262 296 252 q 235 280 258 272 q 186 298 211 288 q 138 320 161 308 q 95 353 114 333 q 65 401 76 372 q 53 469 53 429 q 72 567 53 519 q 127 650 90 614 q 217 709 163 687 q 344 731 272 731 q 473 706 416 731 q 566 645 529 681 l 510 569 z "},"ß":{"ha":880,"x_min":40,"x_max":836,"o":"m 170 716 q 228 834 191 778 q 315 934 265 891 q 427 1004 365 978 q 561 1030 489 1030 q 692 1007 640 1030 q 777 950 745 984 q 823 876 809 915 q 836 802 836 836 q 823 726 836 757 q 789 672 809 694 q 745 634 769 650 q 701 604 722 618 q 668 574 681 590 q 654 538 654 559 q 667 506 654 520 q 700 476 681 491 q 742 443 719 460 q 785 401 765 426 q 817 345 804 377 q 831 268 831 313 q 805 145 831 198 q 737 58 779 93 q 641 6 694 24 q 531 -11 587 -11 q 474 -4 502 -11 q 419 15 445 3 q 369 43 392 26 q 329 78 347 59 l 388 154 q 411 175 397 167 q 443 183 424 183 q 474 174 460 183 q 500 156 487 166 q 529 137 513 145 q 567 128 544 128 q 590 135 578 128 q 611 152 602 141 q 626 180 621 164 q 632 214 632 195 q 617 257 632 239 q 580 291 602 275 q 531 322 558 306 q 483 359 505 338 q 445 409 460 381 q 431 478 431 438 q 446 561 431 528 q 484 620 461 595 q 533 663 506 644 q 582 700 559 681 q 619 742 604 719 q 635 797 635 764 q 610 860 635 836 q 533 885 585 885 q 463 861 493 885 q 411 798 433 837 q 376 711 389 760 q 357 612 363 662 l 288 35 l 250 -86 q 211 -148 236 -126 q 139 -171 186 -171 l 51 -171 l 142 572 l 89 585 q 53 601 66 590 q 43 634 40 612 l 53 716 l 170 716 z "},"ſ":{"ha":428,"x_min":40,"x_max":556,"o":"m 164 760 q 196 872 172 822 q 260 957 221 922 q 352 1011 299 992 q 468 1030 404 1030 q 513 1026 493 1030 q 556 1016 533 1022 l 536 912 q 517 890 533 894 q 486 885 502 885 q 441 878 460 885 q 408 855 422 871 q 386 814 394 840 q 374 753 378 789 l 288 35 l 250 -86 q 211 -148 236 -126 q 139 -171 186 -171 l 51 -171 l 141 573 l 89 585 q 53 601 66 590 q 43 634 40 612 l 53 716 l 158 716 l 164 760 z "},"t":{"ha":522,"x_min":37,"x_max":518,"o":"m 81 156 q 81 167 81 160 q 82 187 81 174 q 85 221 83 200 q 92 277 88 242 l 128 572 l 71 572 q 47 582 56 572 q 40 614 37 593 l 50 698 l 159 720 l 219 896 q 267 929 231 929 l 383 929 l 357 719 l 518 719 l 500 572 l 339 572 l 304 289 q 299 244 301 260 q 295 219 297 228 q 294 207 294 210 q 294 203 294 204 q 304 170 294 183 q 333 156 313 156 q 352 159 344 156 q 365 164 359 161 q 375 170 370 167 q 386 172 380 172 q 400 168 396 172 q 410 153 405 163 l 457 51 q 365 5 414 20 q 265 -11 315 -11 q 190 0 224 -11 q 133 34 157 12 q 95 86 109 56 q 81 156 82 117 z "},"ť":{"ha":522,"x_min":37,"x_max":631,"o":"m 601 1040 q 625 1032 620 1040 q 631 1017 631 1024 q 628 1002 631 1010 q 617 974 626 993 q 589 919 608 954 q 536 826 570 884 q 505 797 522 803 q 461 791 488 791 l 408 791 l 482 1040 l 601 1040 m 81 156 q 81 167 81 160 q 82 187 81 174 q 85 221 83 200 q 92 277 88 242 l 128 572 l 71 572 q 47 582 56 572 q 40 614 37 593 l 50 698 l 159 720 l 219 896 q 267 929 231 929 l 383 929 l 357 719 l 518 719 l 500 572 l 339 572 l 304 289 q 299 244 301 260 q 295 219 297 228 q 294 207 294 210 q 294 203 294 204 q 304 170 294 183 q 333 156 313 156 q 352 159 344 156 q 365 164 359 161 q 375 170 370 167 q 386 172 380 172 q 400 168 396 172 q 410 153 405 163 l 457 51 q 365 5 414 20 q 265 -11 315 -11 q 190 0 224 -11 q 133 34 157 12 q 95 86 109 56 q 81 156 82 117 z "},"ŧ":{"ha":527,"x_min":10,"x_max":522,"o":"m 85 156 q 85 167 85 160 q 86 187 85 174 q 89 221 87 200 q 96 277 92 242 l 106 356 l 49 356 q 22 367 33 356 q 13 399 10 379 l 24 483 l 122 483 l 133 572 l 75 572 q 51 582 60 572 q 44 614 41 593 l 54 698 l 163 720 l 224 896 q 271 929 235 929 l 388 929 l 361 719 l 522 719 l 504 572 l 343 572 l 332 483 l 494 483 l 478 356 l 317 356 l 308 289 q 303 244 305 260 q 300 219 301 228 q 299 207 299 210 q 299 203 299 204 q 308 170 299 183 q 338 156 317 156 q 356 159 349 156 q 369 164 363 161 q 379 170 374 167 q 390 172 384 172 q 405 168 400 172 q 414 153 409 163 l 461 51 q 369 5 418 20 q 269 -11 319 -11 q 194 0 228 -11 q 137 34 161 12 q 100 86 113 56 q 85 156 86 117 z "},"u":{"ha":765,"x_min":34,"x_max":733,"o":"m 733 720 l 645 0 l 535 0 q 459 71 459 0 l 459 117 q 347 20 407 51 q 223 -11 288 -11 q 141 7 178 -11 q 80 60 104 25 q 44 146 55 95 q 42 263 34 197 l 97 720 l 312 720 l 258 263 q 255 214 254 234 q 263 182 256 194 q 280 164 269 169 q 306 159 290 159 q 352 172 328 159 q 398 208 376 185 q 439 265 420 231 q 471 339 458 298 l 517 720 l 733 720 z "},"ų":{"ha":765,"x_min":34,"x_max":733,"o":"m 615 0 q 567 -39 586 -16 q 548 -91 548 -62 q 554 -113 548 -105 q 574 -122 560 -122 q 587 -121 582 -122 q 595 -119 592 -120 q 601 -117 599 -118 q 607 -116 603 -116 q 624 -129 622 -116 l 647 -206 q 587 -231 622 -221 q 513 -241 551 -241 q 414 -215 447 -241 q 381 -148 381 -188 q 408 -69 381 -109 q 500 5 435 -30 q 459 71 459 19 l 459 117 q 347 20 407 51 q 223 -11 288 -11 q 141 7 178 -11 q 80 60 104 25 q 44 146 55 95 q 42 263 34 197 l 97 720 l 312 720 l 258 263 q 255 214 254 234 q 263 182 256 194 q 280 164 269 169 q 306 159 290 159 q 352 172 328 159 q 398 208 376 185 q 439 265 420 231 q 471 339 458 298 l 517 720 l 733 720 l 645 0 l 615 0 z "},"v":{"ha":699,"x_min":33,"x_max":740,"o":"m 740 720 l 390 0 l 208 0 l 33 720 l 210 720 q 245 709 233 720 q 262 683 258 699 l 309 360 q 319 280 315 319 q 326 201 324 240 q 353 279 339 240 q 385 360 368 318 l 512 683 q 535 709 519 699 q 569 720 550 720 l 740 720 z "},"w":{"ha":1044,"x_min":35,"x_max":1074,"o":"m 1074 720 l 781 0 l 613 0 q 593 8 601 0 q 581 36 585 17 l 528 395 q 525 425 526 410 q 522 456 523 440 q 510 425 516 440 q 498 394 504 410 l 360 36 q 315 0 346 0 l 153 0 l 35 720 l 201 720 q 235 709 222 720 q 252 683 249 699 l 273 360 q 279 222 278 289 q 306 290 292 256 q 334 360 319 324 l 455 683 q 477 710 461 699 q 512 721 493 721 l 605 721 q 641 710 627 721 q 656 683 654 699 l 698 360 q 708 290 703 324 q 715 222 712 256 q 736 290 725 256 q 759 360 747 324 l 860 683 q 882 709 866 699 q 916 720 897 720 l 1074 720 z "},"x":{"ha":706,"x_min":-66,"x_max":734,"o":"m 485 391 l 663 0 l 466 0 q 433 11 445 0 q 415 38 421 22 l 325 258 q 317 243 322 250 q 309 231 313 237 l 181 38 q 158 12 171 24 q 124 0 144 0 l -66 0 l 215 390 l 53 720 l 251 720 q 281 715 272 720 q 297 695 290 709 l 376 510 q 398 544 385 526 l 492 691 q 538 720 510 720 l 734 720 l 485 391 z "},"y":{"ha":699,"x_min":33,"x_max":742,"o":"m 742 720 l 275 -187 q 208 -228 253 -228 l 47 -228 l 212 65 l 33 720 l 215 720 q 250 709 238 720 q 265 683 261 698 l 328 372 q 335 332 332 352 q 341 292 339 312 q 359 333 350 313 q 378 374 368 353 l 511 683 q 535 709 519 699 q 568 720 551 720 l 742 720 z "},"z":{"ha":613,"x_min":-22,"x_max":610,"o":"m 610 720 l 599 634 q 587 591 597 612 q 565 557 576 571 l 253 160 l 537 160 l 517 0 l -22 0 l -10 88 q 0 121 -9 101 q 24 158 10 141 l 338 560 l 65 560 l 84 720 l 610 720 z "},"ª":{"ha":478,"x_min":74,"x_max":471,"o":"m 311 753 q 264 748 282 752 q 235 736 246 743 q 221 719 225 728 q 217 699 217 710 q 224 682 217 687 q 247 676 231 676 q 276 683 263 676 q 306 704 290 690 l 311 753 m 126 956 q 218 1009 169 993 q 320 1026 267 1026 q 384 1012 356 1026 q 433 975 413 998 q 462 920 453 951 q 467 853 471 889 l 434 585 l 365 585 q 335 590 344 585 q 319 613 326 596 l 313 632 q 283 609 297 619 q 253 592 268 599 q 222 582 238 585 q 185 579 206 579 q 103 606 132 579 q 74 682 74 633 q 84 734 74 707 q 122 784 94 761 q 197 823 149 807 q 322 841 245 839 l 323 853 q 322 874 323 864 q 318 893 322 885 q 307 906 315 901 q 287 911 300 911 q 256 907 268 911 q 233 897 244 902 q 212 888 223 892 q 185 883 201 883 q 161 892 169 883 q 147 910 152 900 l 126 956 z "},"º":{"ha":519,"x_min":80,"x_max":528,"o":"m 333 1024 q 413 1011 377 1024 q 475 972 449 997 q 515 912 501 947 q 528 833 528 876 q 509 726 528 774 q 457 645 490 678 q 377 594 423 612 q 278 576 331 576 q 197 590 233 576 q 134 628 160 603 q 94 690 108 653 q 80 771 80 726 q 99 876 80 829 q 153 956 119 924 q 233 1007 188 989 q 333 1024 279 1024 m 294 693 q 351 729 335 693 q 367 833 367 765 q 319 907 367 907 q 278 897 293 907 q 254 869 263 887 q 243 825 246 851 q 241 768 241 799 q 294 693 241 693 z "},"ⁿ":{"ha":433,"x_min":66,"x_max":454,"o":"m 225 968 q 276 1003 250 990 q 341 1017 302 1017 q 394 1006 372 1017 q 430 975 417 994 q 449 930 444 956 q 451 874 454 904 l 422 639 l 278 639 l 308 874 q 281 908 310 908 q 261 904 271 908 q 240 894 251 900 l 209 639 l 66 639 l 112 1011 l 188 1011 q 210 1005 202 1011 q 222 984 217 998 l 225 968 z "},"`":{"ha":511,"x_min":136,"x_max":454,"o":"m 322 1023 q 365 1012 351 1023 q 387 981 378 1001 l 454 811 l 342 811 q 307 818 319 811 q 281 840 294 824 l 136 1023 l 322 1023 z "},"´":{"ha":511,"x_min":251,"x_max":624,"o":"m 624 1023 l 437 840 q 407 818 421 824 q 370 811 392 811 l 251 811 l 357 981 q 386 1012 370 1001 q 433 1023 403 1023 l 624 1023 z "},"ˆ":{"ha":511,"x_min":104,"x_max":590,"o":"m 590 811 l 458 811 q 436 815 447 811 q 416 831 426 819 l 374 888 q 361 908 367 896 q 351 897 356 902 q 342 888 347 892 l 287 831 q 265 816 276 821 q 241 811 253 811 l 104 811 l 276 1012 l 463 1012 l 590 811 z "},"ˇ":{"ha":511,"x_min":127,"x_max":613,"o":"m 613 1012 l 440 811 l 253 811 l 127 1012 l 264 1012 q 285 1008 276 1012 q 300 999 295 1004 l 347 935 q 362 915 353 928 q 371 926 367 921 q 381 935 376 931 l 441 999 q 458 1007 447 1003 q 481 1012 469 1012 l 613 1012 z "},"̕":{"ha":0,"x_min":248,"x_max":499,"o":"m 469 1041 q 493 1033 488 1041 q 499 1017 499 1025 q 497 1004 499 1012 q 486 976 495 996 q 457 922 476 957 q 403 826 438 886 q 370 796 388 803 q 324 790 351 790 l 248 790 l 323 1041 l 469 1041 z "},"˜":{"ha":511,"x_min":128,"x_max":591,"o":"m 431 963 q 457 972 447 963 q 471 1009 467 981 l 591 1009 q 570 930 585 965 q 532 870 555 895 q 481 833 510 846 q 422 819 453 819 q 378 827 398 819 q 342 845 359 835 q 313 863 326 855 q 288 871 299 871 q 263 861 272 871 q 250 824 253 852 l 128 824 q 149 902 133 867 q 188 963 165 938 q 239 1001 210 988 q 298 1015 267 1015 q 341 1007 322 1015 q 377 989 361 999 q 407 971 394 979 q 431 963 420 963 z "},"¯":{"ha":511,"x_min":151,"x_max":563,"o":"m 167 966 l 563 966 l 547 834 l 151 834 l 167 966 z "},"˘":{"ha":511,"x_min":156,"x_max":579,"o":"m 347 805 q 248 822 287 805 q 189 866 210 838 q 162 932 168 894 q 160 1012 156 969 l 299 1012 q 298 978 297 993 q 306 955 299 964 q 326 940 313 945 q 362 935 340 935 q 398 940 383 935 q 421 955 413 945 q 435 978 430 964 q 442 1012 440 993 l 579 1012 q 560 932 574 969 q 518 866 546 894 q 448 822 490 838 q 347 805 406 805 z "},"˚":{"ha":511,"x_min":200,"x_max":522,"o":"m 204 926 q 224 989 208 961 q 263 1038 240 1017 q 316 1068 287 1058 q 376 1079 346 1079 q 435 1068 408 1079 q 482 1038 463 1058 q 512 989 502 1017 q 517 926 522 961 q 497 865 513 892 q 457 818 481 838 q 403 788 433 799 q 342 777 374 777 q 284 788 311 777 q 239 818 258 799 q 210 865 219 838 q 204 926 200 892 m 310 926 q 318 886 308 902 q 356 871 329 871 q 393 886 378 871 q 411 926 408 902 q 402 968 415 953 q 367 983 390 983 q 327 968 341 983 q 310 926 314 953 z "},"˝":{"ha":511,"x_min":165,"x_max":705,"o":"m 462 1023 l 313 840 q 283 817 299 823 q 246 811 268 811 l 165 811 l 259 981 q 288 1012 271 1001 q 334 1023 304 1023 l 462 1023 m 705 1023 l 517 840 q 487 818 501 824 q 451 811 473 811 l 357 811 l 489 981 q 503 999 496 991 q 519 1012 510 1006 q 538 1020 527 1017 q 564 1023 549 1023 l 705 1023 z "},"˙":{"ha":511,"x_min":235,"x_max":488,"o":"m 488 917 q 477 869 488 892 q 448 830 466 847 q 407 802 430 813 q 359 792 383 792 q 313 802 335 792 q 273 830 290 813 q 246 869 256 847 q 235 917 235 892 q 246 966 235 943 q 274 1006 256 989 q 314 1034 292 1024 q 360 1044 336 1044 q 408 1034 385 1044 q 449 1007 431 1024 q 477 967 467 990 q 488 917 488 944 z "},"¸":{"ha":511,"x_min":106,"x_max":392,"o":"m 300 -35 q 344 -53 326 -43 q 372 -75 362 -63 q 387 -101 383 -87 q 392 -129 392 -115 q 377 -179 392 -157 q 338 -216 363 -201 q 277 -239 313 -231 q 200 -247 242 -247 q 152 -244 174 -247 q 106 -236 131 -242 l 134 -172 q 160 -153 140 -153 q 177 -155 169 -153 q 195 -158 185 -158 q 217 -150 211 -158 q 224 -135 224 -143 q 206 -115 224 -122 q 146 -101 189 -108 l 205 31 l 324 31 l 300 -35 z "},"˛":{"ha":511,"x_min":105,"x_max":370,"o":"m 331 -116 q 348 -129 346 -116 l 370 -206 q 310 -231 346 -221 q 236 -241 275 -241 q 138 -215 170 -241 q 105 -148 105 -188 q 111 -108 105 -128 q 133 -68 118 -87 q 172 -29 148 -48 q 229 8 195 -10 l 339 0 q 291 -39 310 -16 q 272 -91 272 -62 q 277 -113 272 -105 q 297 -122 283 -122 q 311 -121 306 -122 q 319 -119 316 -120 q 325 -117 322 -118 q 331 -116 327 -116 z "},"Γ":{"ha":723,"x_min":39,"x_max":766,"o":"m 744 843 l 369 843 l 266 0 l 39 0 l 163 1011 l 766 1011 l 744 843 z "},"Δ":{"ha":948,"x_min":-68,"x_max":910,"o":"m 244 173 l 642 173 l 540 674 q 529 725 535 697 q 517 787 523 753 q 491 724 503 753 q 467 673 478 695 l 244 173 m 910 0 l -68 0 l 443 1010 l 649 1010 l 910 0 z "},"Θ":{"ha":1056,"x_min":45,"x_max":1030,"o":"m 389 593 l 710 593 l 688 419 l 366 419 l 389 593 m 1030 571 q 1011 414 1030 489 q 957 274 992 339 q 872 157 922 210 q 760 67 822 104 q 626 9 699 30 q 474 -11 554 -11 q 295 24 374 -11 q 160 120 215 59 q 75 263 104 181 q 45 440 45 345 q 64 598 45 522 q 118 738 83 673 q 203 855 153 802 q 315 945 253 908 q 449 1002 377 982 q 602 1023 522 1023 q 781 988 701 1023 q 916 892 860 953 q 1000 748 971 831 q 1030 571 1030 665 m 798 565 q 783 679 798 628 q 739 766 768 730 q 669 823 710 803 q 574 842 627 842 q 450 814 505 842 q 357 733 395 785 q 298 607 318 681 q 277 445 277 534 q 292 332 277 383 q 334 245 306 281 q 404 189 363 209 q 499 169 446 169 q 624 198 569 169 q 718 278 679 226 q 777 403 756 331 q 798 565 798 476 z "},"Λ":{"ha":926,"x_min":-66,"x_max":885,"o":"m 885 0 l 701 0 q 656 14 672 0 q 633 49 639 28 l 528 606 q 511 680 519 640 q 498 765 503 721 q 466 680 483 721 q 432 606 449 640 l 196 49 q 165 15 186 31 q 116 0 144 0 l -66 0 l 431 1011 l 636 1011 l 885 0 z "},"Ξ":{"ha":815,"x_min":-5,"x_max":838,"o":"m 838 1011 l 815 831 l 97 831 l 119 1011 l 838 1011 m 737 181 l 714 0 l -5 0 l 18 181 l 737 181 m 229 599 l 628 599 l 604 413 l 205 413 l 229 599 z "},"Π":{"ha":1003,"x_min":39,"x_max":983,"o":"m 859 0 l 632 0 l 735 843 l 369 843 l 266 0 l 39 0 l 163 1011 l 983 1011 l 859 0 z "},"Σ":{"ha":794,"x_min":-20,"x_max":823,"o":"m 470 843 q 394 846 428 843 q 328 855 360 849 q 438 759 403 815 l 508 628 q 530 590 521 606 q 544 564 539 575 q 551 543 549 552 q 552 525 553 534 q 547 503 551 514 q 534 480 543 492 q 512 450 526 467 q 479 411 499 434 l 331 226 q 293 187 311 202 q 253 160 275 172 q 312 166 285 164 q 361 167 339 167 l 720 167 l 699 0 l -20 0 l -10 81 q 8 129 -6 106 q 42 170 23 153 l 358 503 l 110 856 q 95 885 101 869 q 92 917 90 901 l 104 1011 l 823 1011 l 801 843 l 470 843 z "},"Φ":{"ha":1120,"x_min":33,"x_max":1106,"o":"m 642 224 q 739 251 694 226 q 817 321 784 277 q 868 423 849 365 q 886 547 886 481 q 874 639 886 595 q 840 715 863 682 q 785 767 817 747 q 711 789 752 787 l 642 224 m 497 789 q 400 762 445 788 q 323 693 356 736 q 272 591 290 649 q 253 467 253 533 q 265 375 253 418 q 299 299 277 332 q 354 246 322 266 q 428 224 387 226 l 497 789 m 732 957 q 888 923 819 955 q 1006 837 958 891 q 1080 710 1054 783 q 1106 556 1106 638 q 1070 362 1106 453 q 969 204 1034 272 q 816 97 905 136 q 621 56 726 58 l 605 -76 l 391 -76 l 407 56 q 250 90 319 58 q 133 177 181 122 q 59 304 85 232 q 33 458 33 376 q 69 651 33 560 q 170 809 106 742 q 324 916 235 876 q 518 957 413 956 l 534 1089 l 748 1089 l 732 957 z "},"Ψ":{"ha":1095,"x_min":63,"x_max":1117,"o":"m 1117 1011 l 1072 647 q 1028 487 1062 559 q 940 363 995 415 q 808 278 885 310 q 635 240 732 247 l 606 0 l 378 0 l 408 240 q 245 279 313 247 q 135 364 177 311 q 78 488 94 416 q 74 647 63 559 l 119 1011 l 271 1011 q 323 990 306 1011 q 337 938 340 969 l 301 647 q 297 554 295 594 q 312 485 298 514 q 355 440 326 457 q 430 417 383 423 l 503 1011 l 730 1011 l 657 416 q 740 439 706 422 q 794 484 773 456 q 827 553 815 513 q 844 647 838 594 l 881 938 q 907 990 884 969 q 965 1011 929 1011 l 1117 1011 z "},"Ω":{"ha":978,"x_min":8,"x_max":950,"o":"m 664 180 l 892 180 l 878 68 q 852 19 874 38 q 794 0 829 0 l 468 0 l 515 372 q 592 397 556 378 q 656 449 628 416 q 700 532 684 483 q 717 651 717 582 q 673 795 717 743 q 539 847 628 847 q 436 828 480 847 q 363 772 392 808 q 319 683 333 735 q 304 566 304 631 q 315 487 304 521 q 346 429 326 453 q 393 391 366 406 q 450 372 419 377 l 404 0 l 78 0 q 26 19 43 0 q 13 68 8 38 l 26 180 l 253 180 l 263 263 q 180 310 215 280 q 120 379 144 340 q 85 466 97 419 q 74 565 74 513 q 109 741 74 658 q 209 886 144 824 q 363 985 274 949 q 561 1022 453 1022 q 726 992 653 1022 q 848 914 799 963 q 924 798 898 864 q 950 660 950 733 q 932 528 950 592 q 880 412 915 465 q 793 320 844 359 q 674 260 742 281 l 664 180 z "},"α":{"ha":794,"x_min":19,"x_max":797,"o":"m 306 153 q 393 199 350 153 q 475 338 435 244 q 485 427 482 385 q 481 502 488 469 q 457 553 475 534 q 406 572 440 572 q 340 551 372 572 q 285 491 309 529 q 246 401 260 453 q 232 287 232 349 q 250 186 232 219 q 306 153 267 153 m 797 721 q 709 475 760 588 q 597 272 658 362 q 602 233 598 251 q 614 203 606 216 q 636 184 622 191 q 671 177 650 177 l 734 177 l 713 62 q 704 38 710 50 q 685 15 698 25 q 651 -2 672 5 q 597 -8 630 -8 q 547 -2 568 -8 q 511 20 526 5 q 487 60 496 35 q 474 122 478 85 q 340 23 407 57 q 210 -11 273 -11 q 133 5 168 -11 q 73 53 98 20 q 33 135 47 85 q 19 253 19 185 q 32 380 19 319 q 69 494 45 441 q 126 591 92 547 q 199 666 159 635 q 285 714 240 697 q 380 731 331 731 q 442 723 414 731 q 493 699 471 715 q 533 663 516 684 q 563 615 551 641 q 583 669 574 649 q 603 702 593 690 q 624 717 613 713 q 649 721 635 721 l 797 721 z "},"β":{"ha":749,"x_min":-13,"x_max":704,"o":"m 244 176 q 291 155 264 162 q 342 148 317 148 q 412 164 383 148 q 460 206 441 179 q 488 268 478 233 q 497 344 497 304 q 486 409 497 384 q 460 447 476 433 q 425 466 444 461 q 388 472 406 472 l 348 472 l 368 628 l 383 628 q 477 667 449 628 q 506 780 506 706 q 484 853 506 830 q 426 876 462 876 q 378 864 398 876 q 344 824 358 851 q 319 751 329 796 q 301 641 309 706 l 251 231 l 244 176 m 94 648 q 130 801 105 733 q 197 919 155 870 q 298 995 238 968 q 440 1022 358 1022 q 552 1003 503 1022 q 635 955 601 985 q 687 883 669 924 q 704 795 704 842 q 668 650 704 714 q 555 556 632 587 q 666 477 628 532 q 703 344 703 422 q 679 206 703 271 q 612 93 655 142 q 510 17 569 45 q 382 -10 451 -10 q 300 3 340 -10 q 228 47 260 17 l 220 -24 l 183 -144 q 144 -207 169 -185 q 72 -230 119 -230 l -13 -230 l 44 235 l 94 648 z "},"γ":{"ha":744,"x_min":38,"x_max":779,"o":"m 779 720 q 720 569 758 649 q 635 407 682 489 q 534 244 588 324 q 428 92 481 163 l 389 -228 l 182 -228 l 219 76 q 219 191 221 132 q 211 307 217 251 q 192 412 204 363 q 161 499 180 462 q 116 558 142 536 q 56 580 90 580 l 38 580 l 47 653 q 54 683 49 669 q 70 706 59 697 q 101 721 82 716 q 149 726 119 726 q 263 694 216 726 q 339 606 309 663 q 381 470 368 549 q 394 299 394 392 q 437 391 417 344 q 474 485 457 439 q 506 576 492 532 q 529 659 519 620 q 557 707 539 693 q 602 720 574 720 l 779 720 z "},"δ":{"ha":735,"x_min":17,"x_max":700,"o":"m 333 142 q 392 157 365 142 q 440 199 420 172 q 472 267 460 227 q 483 356 483 307 q 475 421 483 392 q 452 475 467 451 q 419 521 438 500 q 378 560 400 542 q 323 523 349 545 q 276 469 297 501 q 243 394 256 437 q 231 294 231 351 q 237 235 231 263 q 256 187 243 208 q 287 154 268 166 q 333 142 306 142 m 667 864 q 648 831 660 839 q 611 822 635 822 q 575 829 597 822 q 525 844 553 835 q 467 859 498 852 q 406 865 437 865 q 368 853 380 865 q 356 824 356 841 q 370 792 356 808 q 408 759 385 776 q 462 722 432 742 q 524 677 492 701 q 585 622 555 653 q 639 553 615 592 q 677 468 663 515 q 692 363 692 422 q 666 217 692 285 q 591 99 640 149 q 473 20 543 49 q 316 -9 403 -9 q 190 13 246 -9 q 96 74 135 35 q 37 167 58 113 q 17 284 17 220 q 83 501 17 415 q 286 629 149 586 q 238 667 260 648 q 197 710 215 687 q 169 760 180 733 q 159 821 159 787 q 179 905 159 867 q 234 967 199 942 q 320 1007 270 993 q 428 1021 369 1021 q 497 1018 460 1021 q 569 1010 533 1015 q 639 1000 606 1006 q 700 987 673 994 l 667 864 z "},"ε":{"ha":597,"x_min":10,"x_max":592,"o":"m 337 306 q 282 300 304 306 q 248 282 260 294 q 229 254 235 271 q 224 217 224 238 q 241 163 224 185 q 299 142 259 142 q 354 151 332 142 q 394 173 376 161 q 426 194 411 184 q 460 203 441 203 q 495 185 484 203 l 546 111 q 471 51 509 74 q 396 14 433 27 q 326 -4 359 1 q 267 -9 292 -9 q 169 5 216 -9 q 88 44 123 18 q 31 107 52 70 q 10 192 10 144 q 49 303 10 256 q 165 374 88 350 q 115 402 135 385 q 82 438 94 418 q 64 478 69 457 q 59 519 59 499 q 80 599 59 560 q 139 666 101 637 q 233 713 178 695 q 357 731 288 731 q 496 705 435 731 q 592 639 556 680 l 536 565 q 511 541 522 547 q 485 536 499 536 q 462 543 473 536 q 437 559 451 550 q 403 574 423 567 q 354 581 384 581 q 285 561 310 581 q 260 505 260 540 q 283 456 260 476 q 353 436 306 436 l 460 436 l 444 306 l 337 306 z "},"ζ":{"ha":532,"x_min":16,"x_max":612,"o":"m 610 945 q 608 914 612 928 q 593 881 605 899 q 561 843 582 864 q 509 792 541 822 q 455 740 485 769 q 392 676 424 710 q 330 601 360 641 q 275 517 299 561 q 236 426 251 474 q 222 330 222 379 q 228 281 222 302 q 249 242 235 259 q 287 211 264 224 q 342 185 310 197 q 419 146 388 167 q 470 103 451 126 q 498 55 490 80 q 506 2 506 30 q 484 -106 506 -51 q 415 -222 462 -161 l 263 -163 q 277 -140 269 -153 q 291 -113 285 -127 q 302 -85 298 -99 q 307 -59 307 -71 q 303 -39 307 -49 q 288 -18 299 -28 q 258 4 276 -7 q 210 26 240 15 q 65 121 113 63 q 16 272 16 179 q 44 430 16 354 q 123 577 73 505 q 242 721 174 649 q 391 869 311 793 q 327 855 362 860 q 246 849 292 849 l 201 849 q 161 856 177 849 q 137 871 146 862 q 125 892 128 881 q 123 914 122 903 l 135 1011 l 602 1011 l 610 945 z "},"η":{"ha":776,"x_min":30,"x_max":726,"o":"m 40 659 q 68 706 42 686 q 150 726 94 726 q 204 719 178 726 q 250 697 230 712 q 284 659 270 682 q 303 606 298 637 q 415 701 355 670 q 538 731 474 731 q 619 713 582 731 q 681 660 656 695 q 716 575 706 626 q 718 458 726 524 l 634 -229 l 426 -229 l 511 458 q 513 507 515 487 q 504 539 511 527 q 485 556 497 551 q 456 561 473 561 q 384 531 421 561 q 317 449 347 501 l 262 0 l 55 0 l 115 497 q 107 559 121 539 q 66 580 94 580 l 30 580 l 40 659 z "},"θ":{"ha":792,"x_min":52,"x_max":755,"o":"m 252 449 q 251 414 251 432 q 251 378 251 397 q 281 201 251 257 q 363 144 310 144 q 482 222 436 144 q 546 449 528 299 l 252 449 m 555 585 q 556 611 556 598 q 556 637 556 624 q 527 813 556 757 q 449 869 499 869 q 328 797 374 869 q 263 585 281 725 l 555 585 m 463 1023 q 582 996 528 1023 q 674 917 636 969 q 734 789 713 865 q 755 615 755 713 q 724 346 755 463 q 640 150 694 229 q 511 30 585 70 q 349 -11 437 -11 q 227 16 282 -11 q 133 96 172 44 q 73 225 94 149 q 52 401 52 302 q 83 669 52 553 q 168 864 114 785 q 298 983 223 942 q 463 1023 374 1023 z "},"ι":{"ha":384,"x_min":32,"x_max":362,"o":"m 99 719 l 307 719 l 246 223 q 252 160 241 181 q 295 140 263 140 l 362 140 l 354 78 q 335 41 351 58 q 296 14 319 25 q 245 -2 272 3 q 192 -8 217 -8 q 115 9 147 -8 q 64 55 83 26 q 39 125 45 85 q 38 212 32 165 l 99 719 z "},"λ":{"ha":722,"x_min":-48,"x_max":686,"o":"m 686 138 l 676 58 q 665 24 673 38 q 644 4 657 11 q 616 -6 632 -3 q 580 -9 599 -9 q 507 -1 539 -9 q 450 29 475 6 q 409 93 426 51 q 381 201 392 134 l 371 282 q 359 369 362 333 q 356 435 356 406 q 301 300 335 375 l 192 36 q 170 10 185 21 q 127 0 155 0 l -48 0 l 287 641 l 258 804 q 248 838 254 824 q 232 859 242 851 q 207 870 222 867 q 171 874 192 874 l 125 874 l 134 947 q 143 975 136 962 q 164 998 150 988 q 200 1014 178 1008 q 254 1020 222 1020 q 309 1014 280 1020 q 364 993 338 1008 q 411 949 390 977 q 441 878 431 922 l 573 201 q 580 174 576 185 q 593 154 585 162 q 615 142 601 147 q 647 138 628 138 l 686 138 z "},"μ":{"ha":794,"x_min":-7,"x_max":761,"o":"m 761 145 l 751 63 q 738 37 749 49 q 710 14 728 24 q 668 -2 692 4 q 615 -8 644 -8 q 519 24 560 -8 q 465 122 478 56 q 388 43 428 70 q 297 15 347 15 q 207 40 243 15 q 211 -23 212 10 q 206 -83 210 -55 l 189 -228 l 82 -228 q 15 -206 37 -228 q -1 -142 -7 -184 l 104 720 l 319 720 l 268 303 q 278 217 262 249 q 333 184 294 184 q 400 207 372 184 q 447 270 428 229 l 503 720 l 718 720 l 658 226 q 703 145 649 145 l 761 145 z "},"ν":{"ha":686,"x_min":33,"x_max":720,"o":"m 720 719 q 652 538 694 634 q 557 347 610 442 q 446 162 505 251 q 329 0 388 73 l 201 0 l 33 719 l 204 719 q 240 709 226 719 q 257 683 253 699 l 301 348 q 313 287 308 317 q 320 227 317 257 q 371 332 348 276 q 414 445 394 388 q 449 559 433 503 q 476 663 464 615 q 503 707 485 694 q 541 719 521 719 l 720 719 z "},"ξ":{"ha":530,"x_min":17,"x_max":613,"o":"m 601 928 q 591 897 599 910 q 569 873 582 883 q 542 858 557 863 q 512 853 527 853 l 449 853 q 383 841 412 853 q 336 808 355 829 q 307 757 317 787 q 297 693 297 728 q 329 626 297 647 q 420 604 362 604 l 492 604 l 473 449 l 359 449 q 297 438 322 449 q 256 407 272 426 q 233 362 240 388 q 226 304 226 335 q 234 264 226 281 q 258 230 241 246 q 305 197 276 213 q 378 163 334 181 q 463 97 435 136 q 491 6 491 58 q 469 -104 491 -48 q 399 -223 447 -160 l 247 -164 q 261 -141 253 -153 q 275 -114 269 -128 q 286 -86 282 -100 q 291 -60 291 -72 q 279 -20 291 -37 q 240 8 267 -2 q 145 50 187 25 q 75 107 104 75 q 32 180 47 140 q 17 269 17 220 q 25 338 17 301 q 55 412 34 376 q 111 480 76 448 q 198 533 146 512 q 126 587 148 553 q 103 669 103 622 q 115 735 103 706 q 147 788 127 765 q 194 830 167 812 q 251 862 221 848 l 186 862 q 122 883 139 862 q 110 939 106 903 l 119 1011 l 613 1011 l 601 928 z "},"π":{"ha":838,"x_min":-2,"x_max":844,"o":"m 831 622 q 809 577 828 597 q 758 558 790 558 l 684 558 q 675 455 678 516 q 672 303 672 393 q 675 220 672 251 q 684 172 678 189 q 699 150 690 156 q 717 145 707 145 l 752 145 l 742 63 q 727 33 740 46 q 697 11 715 20 q 655 -2 678 3 q 608 -6 632 -6 q 536 8 566 -6 q 486 47 506 22 q 457 108 466 72 q 447 185 447 143 q 454 263 447 226 q 471 342 460 300 q 495 436 482 384 q 522 558 508 488 l 367 558 q 332 351 350 439 q 294 200 314 263 q 251 97 274 137 q 202 33 228 56 q 146 2 176 10 q 79 -7 115 -7 q 51 -5 66 -7 q 25 2 37 -2 q 6 15 13 7 q -1 33 -2 22 l 17 172 l 31 172 q 74 192 53 172 q 112 259 94 213 q 148 378 131 305 q 181 558 165 452 l 57 558 l 68 647 q 77 671 69 658 q 95 695 84 684 q 122 713 107 706 q 156 719 138 719 l 844 719 l 831 622 z "},"ρ":{"ha":746,"x_min":-23,"x_max":706,"o":"m 238 205 q 287 156 258 171 q 342 142 315 142 q 397 158 369 142 q 445 209 424 174 q 480 296 467 243 q 493 424 493 349 q 486 493 493 464 q 467 540 480 522 q 437 566 455 558 q 398 574 419 574 q 353 563 375 574 q 312 528 331 552 q 280 468 293 505 q 260 381 266 432 l 238 205 m 51 374 q 91 526 62 459 q 166 638 119 592 q 275 708 212 684 q 419 731 339 731 q 532 709 480 731 q 623 645 585 686 q 684 545 662 604 q 706 415 706 487 q 694 301 706 356 q 659 199 681 247 q 606 113 637 152 q 536 47 574 74 q 456 4 499 19 q 367 -11 413 -11 q 286 6 324 -11 q 219 51 249 22 l 185 -229 l -23 -229 l 51 374 z "},"σ":{"ha":818,"x_min":20,"x_max":868,"o":"m 447 567 q 349 550 390 567 q 283 499 309 533 q 245 413 258 465 q 233 293 233 362 q 259 181 233 219 q 341 142 285 142 q 462 216 424 142 q 501 433 501 289 q 499 474 501 453 q 494 512 498 494 q 485 544 490 530 q 471 567 479 558 l 447 567 m 868 720 l 856 631 q 833 585 853 604 q 772 567 813 567 l 638 567 q 689 491 669 534 q 709 392 709 447 q 680 232 709 306 q 599 104 651 158 q 476 19 547 50 q 322 -11 406 -11 q 197 11 253 -11 q 102 73 141 33 q 41 169 63 113 q 20 297 20 226 q 54 471 20 393 q 149 604 88 549 q 292 690 209 660 q 472 720 375 720 l 868 720 z "},"ς":{"ha":622,"x_min":25,"x_max":639,"o":"m 574 552 q 554 534 564 540 q 528 528 544 528 q 503 535 514 528 q 478 552 492 543 q 447 570 465 562 q 400 578 429 578 q 334 560 363 578 q 283 512 304 542 q 251 440 263 481 q 240 351 240 399 q 250 282 240 309 q 280 236 260 256 q 331 203 301 217 q 403 171 362 188 q 464 139 439 156 q 505 102 489 122 q 527 59 520 83 q 534 7 534 35 q 513 -103 534 -48 q 443 -222 491 -159 l 290 -163 q 304 -140 297 -153 q 318 -113 312 -127 q 330 -84 325 -99 q 334 -56 334 -69 q 332 -36 334 -45 q 323 -19 329 -27 q 304 -3 316 -10 q 273 13 292 5 q 182 53 227 31 q 103 112 138 76 q 47 200 68 148 q 25 331 25 253 q 50 487 25 414 q 124 614 76 560 q 243 699 173 668 q 403 731 314 731 q 539 703 483 731 q 639 626 596 676 l 574 552 z "},"τ":{"ha":628,"x_min":20,"x_max":655,"o":"m 645 639 q 620 587 640 605 q 566 569 599 569 l 410 569 l 368 224 q 374 161 363 182 q 417 140 385 140 l 484 140 l 476 79 q 458 42 474 58 q 418 15 442 26 q 367 -2 394 3 q 314 -8 340 -8 q 237 9 269 -8 q 186 56 206 26 q 161 125 167 85 q 160 212 154 165 l 203 569 l 20 569 l 31 654 q 54 699 35 679 q 108 718 73 718 l 655 718 l 645 639 z "},"υ":{"ha":730,"x_min":33,"x_max":687,"o":"m 686 719 q 686 680 686 703 q 686 635 686 658 q 687 592 687 613 q 687 559 687 572 q 671 366 687 451 q 627 219 655 282 q 560 111 599 156 q 478 40 522 67 q 387 1 435 13 q 292 -11 340 -11 q 172 8 223 -11 q 90 63 122 27 q 46 149 58 99 q 41 263 33 200 l 97 719 l 305 719 l 249 263 q 264 176 242 206 q 326 145 286 145 q 379 159 352 145 q 429 208 406 173 q 466 304 451 243 q 480 458 480 365 q 478 554 480 501 q 478 655 476 607 q 485 685 478 672 q 500 705 491 697 q 521 716 510 713 q 542 719 532 719 l 686 719 z "},"φ":{"ha":1048,"x_min":22,"x_max":1011,"o":"m 581 137 q 672 160 631 138 q 742 219 713 181 q 788 309 772 257 q 803 423 803 360 q 778 542 803 500 q 706 583 753 583 q 653 558 676 583 q 623 474 630 533 l 581 137 m 428 474 q 461 590 437 541 q 522 669 485 638 q 609 716 560 701 q 718 731 659 731 q 840 707 785 731 q 932 643 894 684 q 991 547 970 603 q 1011 426 1011 492 q 975 245 1011 326 q 879 108 940 165 q 736 20 818 51 q 563 -11 655 -10 l 537 -228 l 342 -228 l 369 -11 q 228 15 292 -10 q 119 82 165 39 q 47 184 73 124 q 22 316 22 243 q 44 453 22 390 q 106 569 66 517 q 200 660 145 621 q 319 726 255 700 l 368 645 q 374 622 374 634 q 369 599 374 610 q 356 579 365 588 q 338 565 348 570 q 260 471 290 531 q 229 324 229 411 q 240 248 229 282 q 272 190 251 214 q 322 152 292 166 q 387 137 351 139 l 428 474 z "},"χ":{"ha":653,"x_min":-81,"x_max":701,"o":"m 494 -34 q 502 -61 497 -49 q 515 -81 507 -73 q 536 -93 524 -89 q 568 -97 549 -97 l 595 -97 l 585 -176 q 577 -211 582 -197 q 562 -232 572 -224 q 538 -242 553 -239 q 501 -244 523 -244 q 435 -238 466 -244 q 379 -215 404 -232 q 335 -168 354 -199 q 303 -90 316 -138 l 256 95 q 245 59 251 76 q 233 28 239 42 l 129 -192 q 107 -217 122 -207 q 69 -228 93 -228 l -81 -228 l 190 272 l 128 514 q 115 548 122 535 q 99 569 108 562 q 76 580 90 577 q 44 583 63 583 l 17 583 l 27 656 q 31 685 29 671 q 41 708 33 699 q 65 724 49 718 q 113 730 82 730 q 183 723 151 730 q 240 699 215 715 q 283 655 265 682 q 313 588 301 628 l 363 392 q 386 461 374 432 l 492 683 q 514 709 499 699 q 552 720 528 720 l 701 720 l 428 220 l 494 -34 z "},"ψ":{"ha":1052,"x_min":40,"x_max":1010,"o":"m 1007 720 q 1008 681 1008 703 q 1009 635 1008 658 q 1009 592 1009 613 q 1010 559 1010 572 q 994 373 1010 454 q 951 232 979 292 q 884 128 924 171 q 797 58 845 86 q 694 16 749 31 q 578 -6 639 1 l 551 -228 l 344 -228 l 371 -7 q 205 31 271 2 q 101 107 138 60 q 51 217 63 154 q 49 358 40 281 l 94 720 l 238 720 q 261 714 251 720 q 279 697 272 707 q 290 672 286 686 q 291 644 293 658 l 256 358 q 281 222 246 270 q 391 156 315 174 l 497 1011 l 703 1011 l 598 151 q 690 177 652 158 q 751 234 727 197 q 786 330 775 272 q 797 472 797 388 q 795 527 797 503 q 791 573 793 551 q 789 614 790 594 q 792 655 789 633 q 800 685 794 672 q 816 705 807 697 q 836 717 825 713 q 857 720 847 720 l 1007 720 z "},"ω":{"ha":1066,"x_min":27,"x_max":1025,"o":"m 986 720 q 1002 656 995 691 q 1015 585 1010 622 q 1023 514 1020 549 q 1025 449 1025 479 q 1002 269 1025 353 q 935 123 978 185 q 830 25 892 60 q 691 -11 768 -11 q 615 -2 648 -11 q 558 24 582 8 q 518 62 534 40 q 492 110 502 84 q 453 62 475 84 q 403 24 431 40 q 341 -2 376 8 q 265 -11 307 -11 q 161 14 206 -11 q 87 82 117 39 q 42 183 57 125 q 27 308 27 242 q 36 415 27 361 q 61 520 45 468 q 100 623 78 572 q 150 720 123 673 l 285 720 q 314 715 299 720 q 336 699 328 710 q 342 670 344 688 q 322 627 340 653 q 295 580 310 608 q 268 515 281 552 q 247 430 256 477 q 238 323 238 382 q 243 238 238 272 q 258 183 249 203 q 281 154 267 163 q 309 145 294 145 q 348 157 331 145 q 378 190 365 169 q 399 241 390 212 q 413 306 408 271 l 435 486 l 642 486 l 623 329 l 624 329 q 619 256 619 290 q 626 197 619 222 q 646 159 632 173 q 684 145 660 145 q 732 158 708 145 q 773 201 755 171 q 803 282 792 231 q 814 408 814 333 q 809 480 814 443 q 798 547 804 516 q 785 602 791 578 q 777 633 779 625 q 774 674 769 658 q 789 701 778 691 q 813 716 799 711 q 836 720 826 720 l 986 720 z "},"΄":{"ha":511,"x_min":285,"x_max":510,"o":"m 285 792 l 347 1059 l 468 1059 q 502 1042 495 1059 q 497 996 510 1025 l 399 792 l 285 792 z "},"΅":{"ha":511,"x_min":114,"x_max":654,"o":"m 284 798 l 345 1066 l 467 1066 q 500 1049 493 1066 q 495 1002 508 1031 l 397 798 l 284 798 m 652 907 q 642 874 650 889 q 622 847 634 858 q 593 829 609 835 q 560 822 577 822 q 530 829 544 822 q 506 847 515 835 q 491 874 496 858 q 488 907 486 889 q 499 941 490 925 q 519 970 507 958 q 548 989 532 982 q 580 996 563 996 q 611 989 597 996 q 635 970 626 982 q 650 941 645 958 q 652 907 654 925 m 280 907 q 269 874 278 889 q 249 847 261 858 q 220 829 236 835 q 187 822 204 822 q 156 829 170 822 q 133 847 142 835 q 118 874 123 858 q 116 907 114 889 q 126 941 118 925 q 147 970 135 958 q 175 989 160 982 q 206 996 190 996 q 238 989 224 996 q 262 970 252 982 q 277 941 272 958 q 280 907 282 925 z "},"ʹ":{"ha":305,"x_min":81,"x_max":363,"o":"m 347 1054 q 314 814 363 928 q 159 600 265 699 l 99 640 q 81 666 81 651 q 92 694 82 682 q 134 748 115 722 q 162 799 153 774 q 169 853 172 825 q 147 913 167 881 l 158 1003 q 176 1040 162 1026 q 218 1054 190 1054 l 347 1054 z "},"͵":{"ha":309,"x_min":-6,"x_max":276,"o":"m 260 278 q 227 38 276 153 q 72 -176 178 -76 l 12 -136 q -6 -109 -6 -125 q 5 -82 -5 -94 q 47 -28 28 -53 q 75 24 66 -2 q 82 77 85 49 q 60 138 80 105 l 72 228 q 89 264 75 250 q 131 278 103 278 l 260 278 z "},"Б":{"ha":833,"x_min":39,"x_max":830,"o":"m 317 433 l 285 170 l 406 170 q 477 182 448 170 q 524 214 506 193 q 550 264 542 235 q 558 328 558 293 q 552 371 558 351 q 533 404 547 390 q 496 426 519 418 q 437 433 472 433 l 317 433 m 367 842 l 338 603 l 459 603 q 610 584 548 603 q 710 530 672 564 q 767 452 749 497 q 784 358 784 407 q 756 213 784 278 q 677 100 728 147 q 551 26 625 53 q 384 0 476 0 l 39 0 l 163 1011 l 830 1011 l 808 842 l 367 842 z "},"Г":{"ha":709,"x_min":39,"x_max":753,"o":"m 732 843 l 369 843 l 266 0 l 39 0 l 163 1011 l 753 1011 l 732 843 z "},"Ґ":{"ha":709,"x_min":39,"x_max":781,"o":"m 732 843 l 369 843 l 266 0 l 39 0 l 163 1011 l 580 1011 l 607 1233 l 781 1233 l 732 843 z "},"Д":{"ha":1069,"x_min":-66,"x_max":1012,"o":"m 647 167 l 730 843 l 535 843 q 485 602 510 708 q 433 413 460 495 q 378 270 406 331 q 322 167 350 210 l 647 167 m 969 -175 q 944 -219 966 -202 q 891 -237 922 -237 l 754 -237 l 783 0 l 171 0 l 149 -175 q 124 -219 146 -202 q 71 -237 102 -237 l -66 -237 l -15 167 l 88 167 q 123 200 104 178 q 163 263 142 222 q 206 366 184 303 q 250 519 228 428 q 296 731 273 609 q 342 1011 319 852 l 978 1011 l 874 167 l 1012 167 l 969 -175 z "},"Ж":{"ha":1415,"x_min":-58,"x_max":1461,"o":"m 1208 630 q 1160 573 1184 596 q 1103 538 1135 551 q 1166 496 1139 524 q 1213 422 1192 469 l 1367 0 l 1217 0 q 1135 20 1167 0 q 1088 76 1103 40 l 983 377 q 951 421 970 408 q 903 434 932 434 l 814 434 l 760 0 l 548 0 l 601 434 l 513 434 q 461 421 483 434 q 418 377 439 408 l 242 76 q 179 20 217 40 q 93 0 142 0 l -58 0 l 201 422 q 266 496 232 469 q 339 538 299 524 q 291 573 310 551 q 256 630 272 596 l 97 1012 l 276 1012 q 336 996 310 1012 q 376 951 363 980 l 483 649 q 511 608 494 618 q 552 599 528 599 l 622 599 l 672 1012 l 885 1012 l 834 599 l 906 599 q 949 608 929 599 q 987 649 968 618 l 1166 951 q 1217 996 1186 980 q 1281 1012 1248 1012 l 1461 1012 l 1208 630 z "},"З":{"ha":765,"x_min":-30,"x_max":738,"o":"m 99 915 q 253 993 167 964 q 432 1022 339 1022 q 562 1004 505 1022 q 658 955 619 986 q 718 878 697 923 q 738 781 738 834 q 728 705 738 742 q 698 635 718 667 q 646 576 677 603 q 572 531 615 549 q 670 448 635 499 q 706 328 706 397 q 679 197 706 258 q 601 90 651 135 q 479 17 550 44 q 321 -10 408 -10 q 217 0 268 -10 q 119 28 165 10 q 35 70 74 46 q -30 125 -3 95 l 50 228 q 74 248 60 240 q 103 256 88 256 q 143 243 123 256 q 188 213 163 229 q 247 183 213 197 q 330 169 281 169 q 450 208 408 169 q 493 326 493 246 q 455 411 493 381 q 345 440 417 440 l 213 440 l 235 616 l 353 616 q 482 651 441 616 q 524 749 524 685 q 495 818 524 792 q 403 844 467 844 q 330 834 363 844 q 271 811 297 824 q 224 788 244 799 q 188 778 203 778 q 160 786 171 778 q 142 810 150 794 l 99 915 z "},"И":{"ha":1003,"x_min":39,"x_max":983,"o":"m 983 1012 l 859 0 l 632 0 l 699 560 q 712 641 704 599 q 732 732 719 684 q 689 653 711 690 q 646 589 666 617 l 317 68 q 297 44 308 56 q 271 22 285 32 q 241 6 257 13 q 210 0 226 0 l 39 0 l 163 1012 l 390 1012 l 324 452 q 310 370 318 413 q 290 278 303 326 q 333 359 310 322 q 376 423 356 396 l 705 944 q 726 968 714 956 q 751 990 738 981 q 781 1006 765 1000 q 813 1012 797 1012 l 983 1012 z "},"К":{"ha":934,"x_min":39,"x_max":985,"o":"m 715 612 q 670 567 695 585 q 615 538 644 549 q 686 497 658 525 q 734 419 713 469 l 883 0 l 676 0 q 627 16 646 0 q 596 63 609 32 l 490 384 q 460 424 478 414 q 413 434 443 434 l 318 434 l 265 0 l 39 0 l 163 1012 l 389 1012 l 338 599 l 417 599 q 459 608 440 599 q 494 644 477 618 l 692 954 q 735 995 711 979 q 790 1012 759 1012 l 985 1012 l 715 612 z "},"Л":{"ha":988,"x_min":-46,"x_max":967,"o":"m 843 0 l 616 0 l 719 843 l 525 843 q 458 520 492 656 q 388 290 424 385 q 313 136 351 194 q 233 44 274 77 q 149 0 192 12 q 58 -11 105 -11 q -23 -1 0 -11 q -43 30 -46 10 l -26 167 l 29 167 q 58 170 42 167 q 90 185 73 173 q 125 221 107 197 q 163 286 144 244 q 203 389 183 327 q 245 538 224 451 q 288 743 267 626 q 332 1011 310 860 l 967 1011 l 843 0 z "},"Љ":{"ha":1390,"x_min":-46,"x_max":1357,"o":"m 979 170 q 1050 182 1021 170 q 1097 214 1079 193 q 1123 264 1115 235 q 1131 328 1131 293 q 1125 371 1131 351 q 1106 404 1119 390 q 1069 426 1092 418 q 1010 433 1045 433 l 897 433 l 864 170 l 979 170 m 1032 603 q 1183 584 1121 603 q 1283 530 1244 564 q 1340 452 1322 497 q 1357 358 1357 407 q 1329 213 1357 278 q 1250 100 1301 147 q 1124 26 1198 53 q 957 0 1049 0 l 616 0 l 719 843 l 525 843 q 458 520 492 656 q 388 290 424 385 q 313 136 351 194 q 233 44 274 77 q 149 0 192 12 q 58 -11 105 -11 q -23 -1 0 -11 q -43 30 -46 10 l -26 167 l 29 167 q 58 170 42 167 q 90 185 73 173 q 125 221 107 197 q 163 286 144 244 q 203 389 183 327 q 245 538 224 451 q 288 743 267 626 q 332 1011 310 860 l 967 1011 l 917 603 l 1032 603 z "},"Њ":{"ha":1409,"x_min":40,"x_max":1376,"o":"m 999 170 q 1069 182 1040 170 q 1116 214 1099 193 q 1142 264 1134 235 q 1150 328 1150 293 q 1144 371 1150 351 q 1125 404 1139 390 q 1088 426 1112 418 q 1029 433 1065 433 l 914 433 l 881 170 l 999 170 m 1051 603 q 1202 584 1140 603 q 1303 530 1264 564 q 1359 452 1342 497 q 1376 358 1376 407 q 1349 213 1376 278 q 1269 100 1321 147 q 1143 26 1217 53 q 976 0 1069 0 l 633 0 l 686 431 l 321 431 l 267 0 l 40 0 l 165 1012 l 392 1012 l 340 585 l 705 585 l 758 1012 l 985 1012 l 935 603 l 1051 603 z "},"Ѳ":{"ha":1056,"x_min":45,"x_max":1030,"o":"m 277 431 q 294 323 278 372 q 338 241 310 275 q 407 188 366 207 q 499 169 447 169 q 601 188 554 169 q 684 240 647 206 q 745 322 720 274 q 784 431 771 371 l 277 431 m 797 593 q 777 696 794 650 q 733 774 761 742 q 664 825 704 807 q 574 842 624 842 q 475 825 521 842 q 394 775 430 808 q 333 697 359 743 q 294 593 308 651 l 797 593 m 602 1023 q 781 988 701 1023 q 916 892 860 953 q 1000 748 971 831 q 1030 571 1030 665 q 1011 414 1030 489 q 957 274 992 339 q 872 157 922 210 q 760 67 822 104 q 626 9 699 30 q 474 -11 554 -11 q 295 24 374 -11 q 160 120 215 59 q 75 263 104 181 q 45 440 45 345 q 64 598 45 522 q 118 738 83 673 q 203 855 153 802 q 315 945 253 908 q 449 1002 377 982 q 602 1023 522 1023 z "},"П":{"ha":976,"x_min":39,"x_max":956,"o":"m 831 0 l 603 0 l 707 843 l 369 843 l 266 0 l 39 0 l 163 1011 l 956 1011 l 831 0 z "},"У":{"ha":869,"x_min":51,"x_max":952,"o":"m 952 1011 l 472 146 q 415 68 444 98 q 356 20 386 38 q 297 -5 326 2 q 237 -11 267 -11 q 145 2 174 -11 q 119 46 116 15 l 135 167 l 190 167 q 222 169 207 167 q 250 178 236 171 q 276 201 263 186 q 303 240 289 215 l 340 306 l 51 1011 l 259 1011 q 303 998 288 1011 q 328 962 319 984 l 419 647 q 441 571 431 608 q 456 497 451 534 q 490 571 472 534 q 528 647 508 608 l 681 962 q 712 995 692 980 q 760 1011 732 1011 l 952 1011 z "},"Ѵ":{"ha":947,"x_min":57,"x_max":1001,"o":"m 668 853 q 709 926 686 895 q 763 978 733 958 q 832 1009 793 999 q 919 1019 870 1019 q 964 1017 947 1019 q 989 1008 981 1015 q 1000 992 998 1002 q 999 965 1001 981 l 983 841 l 948 841 q 898 825 919 841 q 860 771 877 808 l 510 0 l 306 0 l 57 1011 l 234 1011 q 281 998 263 1011 q 303 962 298 984 l 408 406 q 425 332 417 372 q 438 247 432 291 q 469 332 453 291 q 503 406 486 372 l 668 853 z "},"Ф":{"ha":1067,"x_min":40,"x_max":1051,"o":"m 624 288 q 702 311 665 290 q 766 370 738 333 q 809 456 793 407 q 825 560 825 505 q 815 638 825 601 q 786 701 805 674 q 741 745 767 728 q 682 764 715 762 l 624 288 m 467 764 q 390 740 426 762 q 326 682 353 718 q 283 597 299 645 q 267 493 267 548 q 277 415 267 451 q 306 351 287 378 q 351 307 324 324 q 410 288 377 290 l 467 764 m 703 933 q 844 899 780 929 q 953 820 908 869 q 1025 706 999 771 q 1051 569 1051 642 q 1015 397 1051 477 q 918 256 979 317 q 775 160 856 196 q 603 119 694 124 l 588 0 l 374 0 l 389 119 q 248 153 312 123 q 137 232 183 183 q 65 346 91 281 q 40 485 40 411 q 75 656 40 576 q 173 796 111 735 q 315 892 234 856 q 488 933 397 928 l 503 1051 l 717 1051 l 703 933 z "},"Ц":{"ha":1042,"x_min":39,"x_max":976,"o":"m 976 167 l 934 -175 q 908 -219 931 -202 q 855 -237 886 -237 l 719 -237 l 747 0 l 39 0 l 163 1011 l 390 1011 l 287 167 l 624 167 l 728 1011 l 956 1011 l 852 167 l 976 167 z "},"Џ":{"ha":976,"x_min":39,"x_max":956,"o":"m 956 1011 l 831 0 l 539 0 l 517 -175 q 492 -219 514 -202 q 439 -237 469 -237 l 302 -237 l 331 0 l 39 0 l 163 1011 l 390 1011 l 287 167 l 624 167 l 728 1011 l 956 1011 z "},"Ч":{"ha":897,"x_min":67,"x_max":876,"o":"m 876 1011 l 751 0 l 524 0 l 572 385 q 423 357 493 365 q 295 354 353 349 q 192 380 237 359 q 118 439 147 400 q 78 536 89 477 q 77 676 67 594 l 118 1011 l 346 1011 l 304 675 q 305 588 298 624 q 341 533 311 551 q 431 515 371 514 q 590 540 490 515 l 649 1011 l 876 1011 z "},"Ш":{"ha":1408,"x_min":39,"x_max":1388,"o":"m 1388 1011 l 1263 0 l 39 0 l 163 1011 l 390 1011 l 287 167 l 558 167 l 662 1011 l 890 1011 l 786 167 l 1057 167 l 1160 1011 l 1388 1011 z "},"Щ":{"ha":1474,"x_min":39,"x_max":1408,"o":"m 1408 167 l 1366 -175 q 1340 -219 1363 -202 q 1288 -237 1318 -237 l 1151 -237 l 1180 0 l 39 0 l 163 1011 l 390 1011 l 287 167 l 558 167 l 662 1011 l 890 1011 l 786 167 l 1057 167 l 1160 1011 l 1388 1011 l 1284 167 l 1408 167 z "},"Ъ":{"ha":1002,"x_min":68,"x_max":972,"o":"m 594 170 q 665 182 635 170 q 711 214 694 193 q 737 264 729 235 q 745 328 745 293 q 740 371 745 351 q 720 404 734 390 q 683 426 707 418 q 624 433 660 433 l 506 433 l 473 170 l 594 170 m 647 603 q 797 584 735 603 q 898 530 859 564 q 954 452 937 497 q 972 358 972 407 q 944 213 972 278 q 864 100 916 147 q 738 26 813 53 q 572 0 664 0 l 226 0 l 329 837 l 68 837 l 91 1011 l 576 1011 l 526 603 l 647 603 z "},"Ы":{"ha":1190,"x_min":39,"x_max":1169,"o":"m 406 170 q 477 182 448 170 q 524 214 506 193 q 550 264 542 235 q 558 328 558 293 q 552 371 558 351 q 533 404 547 390 q 496 426 519 418 q 437 433 472 433 l 318 433 l 285 170 l 406 170 m 459 603 q 610 584 548 603 q 710 530 672 564 q 767 452 749 497 q 784 358 784 407 q 756 213 784 278 q 677 100 728 147 q 551 26 625 53 q 384 0 476 0 l 39 0 l 163 1011 l 389 1011 l 339 603 l 459 603 m 1045 0 l 817 0 l 941 1012 l 1169 1012 l 1045 0 z "},"Ь":{"ha":817,"x_min":39,"x_max":784,"o":"m 406 170 q 477 182 448 170 q 524 214 506 193 q 550 264 542 235 q 558 328 558 293 q 552 371 558 351 q 533 404 547 390 q 496 426 519 418 q 437 433 472 433 l 318 433 l 285 170 l 406 170 m 459 603 q 610 584 548 603 q 710 530 672 564 q 767 452 749 497 q 784 358 784 407 q 756 213 784 278 q 677 100 728 147 q 551 26 625 53 q 384 0 476 0 l 39 0 l 163 1011 l 389 1011 l 339 603 l 459 603 z "},"Э":{"ha":857,"x_min":-19,"x_max":828,"o":"m 83 891 q 234 986 148 951 q 425 1022 319 1022 q 593 989 519 1022 q 720 896 668 956 q 801 754 773 836 q 828 576 828 672 q 792 344 828 451 q 688 158 756 237 q 525 34 621 79 q 313 -11 430 -11 q 115 30 197 -11 q -19 147 33 72 l 83 242 q 100 252 91 249 q 116 255 108 255 q 151 240 137 255 q 185 208 168 221 q 221 188 202 195 q 263 177 240 180 q 315 174 286 174 q 400 191 358 174 q 477 240 442 208 q 540 321 513 273 q 581 431 567 369 l 188 431 l 208 593 l 596 593 q 578 695 593 650 q 538 772 563 740 q 478 820 513 803 q 400 838 443 838 q 318 826 351 838 q 262 802 285 815 q 222 778 239 790 q 186 767 204 767 q 159 775 168 767 q 144 792 150 782 l 83 891 z "},"Є":{"ha":855,"x_min":46,"x_max":885,"o":"m 806 149 q 650 30 740 70 q 444 -11 560 -11 q 274 23 348 -11 q 149 115 199 56 q 72 255 99 174 q 46 431 46 336 q 65 594 46 517 q 117 738 83 672 q 200 856 151 803 q 308 946 248 909 q 436 1002 367 983 q 581 1022 506 1022 q 680 1012 634 1022 q 764 984 725 1002 q 833 942 802 967 q 885 888 863 917 l 797 786 q 777 769 788 776 q 748 761 766 761 q 716 773 730 761 q 684 798 703 784 q 635 823 665 812 q 556 835 606 835 q 468 818 510 835 q 393 771 427 802 q 334 695 360 740 q 294 593 309 650 l 688 593 l 667 431 l 278 431 q 297 323 281 371 q 340 242 313 275 q 404 192 367 209 q 482 174 440 174 q 534 177 510 174 q 579 189 558 181 q 619 209 600 197 q 660 241 639 222 q 676 251 667 247 q 694 256 685 255 q 712 254 703 257 q 728 243 721 251 l 806 149 l 806 149 z "},"Ю":{"ha":1428,"x_min":40,"x_max":1401,"o":"m 896 170 q 1011 199 960 170 q 1097 282 1063 228 q 1150 409 1132 335 q 1169 574 1169 483 q 1157 683 1169 634 q 1120 768 1144 733 q 1060 822 1096 803 q 976 842 1024 842 q 861 812 912 842 q 775 729 810 783 q 722 601 740 676 q 703 437 703 527 q 716 327 703 376 q 752 243 728 278 q 812 189 776 208 q 896 170 848 170 m 488 587 q 555 762 509 682 q 666 900 600 842 q 816 990 732 958 q 1000 1022 901 1022 q 1170 988 1096 1022 q 1296 894 1245 953 q 1374 753 1347 834 q 1401 578 1401 672 q 1383 420 1401 496 q 1334 278 1366 344 q 1255 160 1301 213 q 1149 68 1208 106 q 1021 10 1090 31 q 873 -11 951 -11 q 705 22 778 -11 q 580 113 631 55 q 502 249 529 170 q 472 419 474 327 l 319 419 l 267 0 l 40 0 l 163 1012 l 391 1012 l 339 587 l 488 587 z "},"Я":{"ha":895,"x_min":-67,"x_max":875,"o":"m 595 578 l 628 840 l 501 840 q 430 829 459 840 q 383 798 401 818 q 357 748 365 777 q 349 683 349 719 q 355 641 349 660 q 374 608 360 622 q 411 586 388 594 q 470 578 435 578 l 595 578 m 751 0 l 524 0 l 574 408 l 514 408 q 459 394 485 408 q 408 338 433 380 l 253 76 q 191 20 228 40 q 104 0 153 0 l -67 0 l 160 347 q 216 410 186 385 q 286 451 247 435 q 214 488 244 465 q 164 540 184 511 q 135 603 144 569 q 125 674 125 637 q 153 808 125 747 q 232 915 181 869 q 358 985 284 960 q 523 1011 431 1011 l 875 1011 l 751 0 z "},"Ђ":{"ha":1001,"x_min":72,"x_max":971,"o":"m 645 603 q 796 584 734 603 q 897 530 858 564 q 953 452 936 497 q 971 358 971 407 q 943 213 971 278 q 864 100 915 147 q 738 26 812 53 q 571 0 663 0 l 522 0 l 544 170 l 592 170 q 664 182 635 170 q 710 214 692 193 q 736 264 728 235 q 744 328 744 293 q 739 371 744 351 q 720 404 733 390 q 683 426 706 418 q 624 433 659 433 l 478 433 l 425 0 l 199 0 l 302 838 l 72 838 l 93 1011 l 792 1011 l 769 838 l 528 838 l 499 603 l 645 603 z "},"Ћ":{"ha":994,"x_min":72,"x_max":956,"o":"m 499 599 q 702 630 613 626 q 849 601 791 633 q 931 498 907 569 q 940 306 956 427 l 903 -1 l 676 -1 l 713 306 q 719 368 717 340 q 716 416 721 395 q 698 449 712 436 q 657 466 685 462 q 587 465 630 469 q 480 444 544 460 l 425 0 l 199 0 l 302 838 l 72 838 l 93 1011 l 792 1011 l 769 838 l 528 838 l 499 599 z "},"Ѣ":{"ha":967,"x_min":64,"x_max":933,"o":"m 556 170 q 626 182 597 170 q 673 214 656 193 q 699 264 691 235 q 707 328 707 293 q 701 371 707 351 q 682 404 696 390 q 645 426 669 418 q 586 433 622 433 l 467 433 l 435 170 l 556 170 m 608 603 q 759 584 697 603 q 860 530 821 564 q 916 452 899 497 q 933 358 933 407 q 906 213 933 278 q 826 100 878 147 q 700 26 774 53 q 533 0 626 0 l 188 0 l 276 720 l 64 720 l 85 880 l 297 880 l 313 1011 l 538 1011 l 522 880 l 781 880 l 760 720 l 503 720 l 488 603 l 608 603 z "},"б":{"ha":767,"x_min":49,"x_max":774,"o":"m 444 548 q 368 523 402 548 q 309 457 333 497 q 271 368 285 417 q 258 273 258 319 q 281 175 258 208 q 347 142 305 142 q 416 166 385 142 q 469 232 447 191 q 503 325 491 272 q 515 433 515 377 q 500 520 515 492 q 444 548 485 548 m 774 1070 l 774 964 q 757 907 774 931 q 706 875 740 883 l 501 842 q 380 802 428 831 q 300 734 331 774 q 253 646 269 694 q 229 549 237 599 q 282 608 252 581 q 349 653 313 634 q 429 683 386 672 q 520 694 472 694 q 605 680 567 694 q 672 635 644 665 q 715 559 699 606 q 730 449 730 513 q 717 334 730 391 q 680 227 704 278 q 620 132 656 176 q 542 57 585 88 q 446 7 498 25 q 335 -11 394 -11 q 220 10 272 -11 q 129 76 167 32 q 70 190 91 121 q 49 353 49 258 q 54 468 49 404 q 75 600 60 533 q 119 733 91 667 q 191 855 147 799 q 300 952 236 911 q 451 1009 363 992 l 774 1070 z "},"в":{"ha":678,"x_min":19,"x_max":626,"o":"m 231 292 q 256 179 232 219 q 331 143 280 140 q 371 153 353 144 q 401 177 389 163 q 420 210 413 192 q 426 249 426 229 q 421 282 426 267 q 405 306 416 297 q 375 318 393 315 q 331 317 357 322 l 231 292 m 334 439 q 389 457 367 446 q 421 481 410 468 q 437 509 433 494 q 441 538 441 523 q 431 577 441 563 q 395 592 420 592 q 350 580 372 592 q 307 545 327 568 q 271 490 288 523 q 244 415 255 457 l 334 439 m 468 395 q 530 382 501 392 q 580 354 559 372 q 613 310 601 336 q 625 251 625 285 q 604 157 625 204 q 543 73 583 110 q 443 12 502 35 q 307 -11 384 -11 q 183 9 237 -11 q 93 68 130 30 q 38 162 57 107 q 19 286 19 217 q 50 458 19 378 q 135 599 81 539 q 263 695 190 660 q 422 730 337 730 q 509 718 472 730 q 573 686 547 706 q 612 638 599 665 q 626 577 626 610 q 587 474 626 523 q 468 395 547 426 z "},"г":{"ha":568,"x_min":-3,"x_max":538,"o":"m 306 728 q 394 718 352 728 q 468 685 436 707 q 519 629 500 663 q 538 551 538 596 q 514 460 538 499 q 453 389 490 420 q 374 332 417 358 q 295 284 332 307 q 235 238 259 260 q 210 188 210 215 q 224 161 210 174 q 270 149 238 149 q 318 157 297 149 q 358 175 340 165 q 391 193 376 185 q 420 201 406 201 q 443 196 435 201 q 461 179 452 192 l 513 104 q 450 53 484 75 q 381 18 417 32 q 308 -3 345 3 q 233 -10 270 -10 q 135 3 178 -10 q 60 41 91 17 q 14 99 30 65 q -3 172 -3 132 q 22 265 -3 224 q 84 340 47 306 q 164 400 121 373 q 245 449 208 426 q 307 493 282 472 q 331 536 331 514 q 320 559 331 548 q 281 569 308 569 q 242 563 260 569 q 206 550 223 557 q 174 536 189 542 q 145 531 158 531 q 127 535 137 531 q 109 556 117 540 l 63 642 q 175 705 112 681 q 306 728 238 728 z "},"ґ":{"ha":564,"x_min":-31,"x_max":632,"o":"m 632 888 l 565 577 l 409 577 q 364 559 383 577 q 339 501 345 540 l 291 228 q 261 130 281 174 q 210 56 241 87 q 136 8 178 25 q 39 -8 93 -8 q -15 -1 1 -8 q -29 27 -31 7 l -14 146 l -6 146 q 54 169 29 146 q 87 237 79 192 l 133 492 q 166 597 144 554 q 222 667 189 640 q 297 707 255 694 q 388 719 338 719 l 415 719 l 439 808 q 478 867 449 847 q 550 888 507 888 l 632 888 z "},"д":{"ha":756,"x_min":23,"x_max":718,"o":"m 335 149 q 405 172 373 149 q 458 242 436 194 q 493 365 481 290 q 506 543 506 439 q 466 562 488 555 q 420 569 444 569 q 347 549 381 569 q 290 494 314 529 q 252 409 265 458 q 238 301 238 360 q 245 230 238 259 q 265 183 252 201 q 295 157 277 165 q 335 149 313 149 m 161 1014 q 315 1023 242 1024 q 450 1003 388 1021 q 561 951 512 986 q 646 861 611 917 q 699 727 681 806 q 718 545 718 649 q 687 315 718 417 q 601 139 656 212 q 471 28 546 67 q 310 -11 397 -11 q 196 8 249 -11 q 105 66 143 27 q 44 164 66 105 q 23 301 23 222 q 49 457 23 382 q 120 590 74 533 q 230 682 166 647 q 370 716 293 716 q 451 703 416 716 q 517 667 486 691 q 481 773 506 732 q 414 836 455 813 q 318 866 374 858 q 192 874 263 874 q 156 885 165 874 q 151 919 147 896 l 161 1014 z "},"ж":{"ha":1224,"x_min":-28,"x_max":1235,"o":"m 697 381 q 811 551 753 484 q 920 658 868 619 q 1018 714 973 698 q 1097 730 1063 730 q 1168 717 1132 730 q 1235 672 1203 703 l 1183 585 q 1160 560 1172 566 q 1137 553 1149 553 q 1110 558 1122 553 q 1085 563 1099 563 q 1044 545 1066 563 q 1004 492 1022 528 q 973 405 985 457 q 961 283 961 352 q 965 219 961 244 q 975 178 968 193 q 993 156 983 163 q 1017 150 1003 150 q 1030 153 1023 150 q 1043 159 1036 156 q 1059 165 1051 162 q 1075 167 1067 167 q 1096 164 1085 167 q 1113 149 1107 160 l 1161 58 q 1113 26 1138 40 q 1062 5 1088 13 q 1011 -7 1036 -3 q 965 -11 987 -11 q 889 2 924 -11 q 831 43 855 16 q 793 110 806 70 q 779 203 779 151 q 808 382 779 297 q 760 308 783 348 q 717 224 737 269 q 682 131 697 179 q 660 31 667 82 l 657 0 l 476 0 l 512 340 q 397 168 454 236 q 287 61 340 101 q 190 5 235 21 q 111 -11 144 -11 q 40 2 76 -11 q -28 47 4 16 l 25 134 q 48 160 36 153 q 71 166 59 166 q 97 161 86 166 q 122 156 108 156 q 164 174 142 156 q 204 227 185 192 q 234 314 222 262 q 247 435 247 367 q 243 500 247 474 q 232 541 240 526 q 215 563 225 557 q 191 569 204 569 q 178 567 185 569 q 164 561 172 564 q 149 555 157 558 q 133 551 141 551 q 111 555 122 551 q 94 570 101 558 l 47 662 q 95 693 69 680 q 146 714 120 706 q 196 726 172 722 q 242 730 221 730 q 318 716 284 730 q 377 676 353 703 q 415 609 401 649 q 428 516 428 569 q 400 338 428 423 q 451 416 426 374 q 496 507 476 459 q 531 608 516 555 q 551 716 545 660 l 551 715 l 551 721 l 732 720 l 697 381 z "},"з":{"ha":622,"x_min":-30,"x_max":589,"o":"m 53 628 q 109 669 77 650 q 180 701 142 688 q 259 723 217 715 q 344 731 301 731 q 453 716 407 731 q 530 677 499 701 q 574 622 560 653 q 589 557 589 591 q 581 507 589 532 q 555 461 573 483 q 509 420 538 439 q 440 390 481 402 q 529 338 498 376 q 560 242 560 300 q 542 153 560 199 q 483 72 523 108 q 379 12 442 35 q 226 -11 315 -11 q 161 -7 193 -11 q 97 9 129 -2 q 34 38 65 19 q -30 84 2 56 l 25 169 q 42 188 31 179 q 67 197 53 197 q 100 188 85 197 q 132 169 114 179 q 174 150 149 159 q 238 142 199 142 q 294 149 271 142 q 334 171 318 157 q 357 204 349 185 q 365 245 365 223 q 358 280 365 266 q 341 301 352 293 q 314 312 329 309 q 281 315 299 315 q 257 313 271 315 q 227 310 242 312 q 196 305 211 308 q 167 299 181 302 q 170 374 167 338 q 190 449 174 410 q 226 443 208 445 q 263 440 244 440 q 326 448 300 440 q 367 467 351 456 q 389 492 383 478 q 396 517 396 506 q 374 561 396 545 q 301 578 351 578 q 242 571 266 578 q 200 556 218 565 q 169 540 183 548 q 142 531 156 533 q 119 534 128 530 q 98 556 109 538 l 53 628 z "},"и":{"ha":765,"x_min":34,"x_max":733,"o":"m 733 720 l 645 0 l 535 0 q 459 71 459 0 l 459 117 q 347 20 407 51 q 223 -11 288 -11 q 141 7 178 -11 q 80 60 104 25 q 44 146 55 95 q 42 263 34 197 l 97 720 l 312 720 l 258 263 q 255 214 254 234 q 263 182 256 194 q 280 164 269 169 q 306 159 290 159 q 352 172 328 159 q 398 208 376 185 q 439 265 420 231 q 471 339 458 298 l 517 720 l 733 720 z "},"к":{"ha":734,"x_min":15,"x_max":720,"o":"m 416 561 q 470 636 449 606 q 512 685 491 667 q 560 712 533 704 q 631 720 587 720 l 720 720 l 698 613 q 685 584 694 590 q 665 574 676 577 q 640 566 653 572 q 613 542 626 561 l 558 458 q 538 431 548 442 q 516 410 527 419 q 493 395 506 401 q 465 385 480 390 q 540 352 512 376 q 585 280 568 328 l 678 0 l 556 0 q 509 5 528 0 q 474 18 489 9 q 450 39 460 26 q 431 69 440 52 l 376 253 q 352 293 371 277 q 310 308 333 308 l 259 298 l 222 0 l 15 0 l 103 720 l 311 720 l 275 431 l 298 437 q 320 442 311 440 q 335 449 328 445 q 347 459 342 453 q 360 474 353 465 l 416 561 z "},"л":{"ha":779,"x_min":-30,"x_max":747,"o":"m 151 393 q 201 542 172 480 q 277 643 231 603 q 389 701 323 683 q 546 719 454 719 l 747 719 l 658 0 l 451 0 l 520 566 l 501 566 q 448 558 471 566 q 408 529 425 550 q 377 473 390 508 q 353 383 364 438 q 301 194 331 270 q 234 73 272 119 q 151 8 197 27 q 51 -11 106 -11 q -12 -3 6 -11 q -28 24 -30 4 l -12 143 l 9 143 q 59 155 39 143 q 94 195 78 167 q 122 272 109 224 q 151 393 135 320 z "},"љ":{"ha":1092,"x_min":-30,"x_max":1060,"o":"m 683 184 q 696 147 680 162 q 744 132 712 132 q 792 148 771 132 q 829 190 814 165 q 853 245 844 215 q 861 302 861 275 q 859 327 861 315 q 852 349 858 340 q 838 363 847 358 q 813 369 828 369 q 769 354 790 369 q 730 316 747 340 q 700 264 712 293 q 685 206 688 235 l 683 184 m 712 426 q 802 490 754 468 q 890 511 849 511 q 958 499 926 511 q 1012 464 989 487 q 1048 408 1035 441 q 1060 332 1060 374 q 1030 199 1060 262 q 948 90 1000 137 q 826 16 896 43 q 677 -11 756 -11 q 513 43 563 -11 q 475 199 463 97 l 519 566 l 515 566 q 460 558 485 566 q 415 529 435 550 q 379 473 394 508 q 353 383 364 438 q 301 194 331 270 q 234 73 272 119 q 151 8 197 27 q 51 -11 106 -11 q -12 -3 6 -11 q -28 24 -30 4 l -12 143 l 9 143 q 59 155 39 143 q 94 195 78 167 q 122 272 109 224 q 151 393 135 320 q 201 538 171 477 q 278 638 232 599 q 387 698 324 678 q 537 719 451 717 l 537 720 l 747 720 l 712 426 z "},"м":{"ha":1010,"x_min":-22,"x_max":977,"o":"m 977 721 l 889 0 l 694 0 l 741 379 q 747 417 743 397 q 756 457 751 437 l 530 46 q 503 20 519 29 q 467 10 487 10 l 438 10 q 405 20 419 10 q 384 46 391 29 l 276 456 q 267 403 272 430 q 257 355 263 376 q 244 289 249 321 q 233 223 239 257 q 217 149 226 188 q 192 62 208 110 q 161 16 182 33 q 110 0 141 0 l -22 0 q 28 166 2 78 q 78 347 54 254 q 124 534 103 440 q 161 721 146 629 l 335 721 q 357 719 346 721 q 378 712 369 717 q 396 698 388 707 q 408 676 404 690 l 492 390 q 507 339 500 363 q 518 294 513 315 q 551 361 531 326 l 705 676 q 745 712 723 703 q 789 721 768 721 l 977 721 z "},"н":{"ha":766,"x_min":17,"x_max":733,"o":"m 733 720 l 647 0 l 431 0 l 467 299 l 268 299 l 232 0 l 17 0 l 103 720 l 318 720 l 285 449 l 485 449 l 517 720 l 733 720 z "},"њ":{"ha":1070,"x_min":16,"x_max":1040,"o":"m 662 184 q 675 147 659 162 q 724 132 691 132 q 772 148 750 132 q 808 190 793 165 q 832 245 824 215 q 840 302 840 275 q 839 327 840 315 q 832 349 837 340 q 817 363 826 358 q 792 369 808 369 q 748 354 769 369 q 709 316 726 340 q 679 264 691 293 q 664 206 667 235 l 662 184 m 691 426 q 781 490 733 468 q 869 511 828 511 q 937 499 906 511 q 991 464 968 487 q 1027 408 1014 441 q 1040 332 1040 374 q 1009 199 1040 262 q 927 90 979 137 q 805 16 875 43 q 656 -11 735 -11 q 492 43 542 -11 q 454 199 442 97 l 466 299 l 267 299 l 231 0 l 16 0 l 102 720 l 317 720 l 285 449 l 484 449 l 516 720 l 726 720 l 691 426 z "},"ѳ":{"ha":733,"x_min":21,"x_max":696,"o":"m 228 290 q 250 172 228 208 q 324 135 273 135 q 375 148 351 135 q 417 182 399 160 q 450 234 436 203 q 474 301 465 264 l 228 301 l 228 290 m 489 431 q 466 549 489 513 q 392 585 443 585 q 343 574 366 585 q 302 542 321 563 q 269 494 283 522 q 246 431 255 465 l 489 431 m 410 731 q 522 711 470 731 q 613 652 574 691 q 674 557 651 614 q 696 427 696 501 q 664 252 696 333 q 579 114 633 172 q 455 22 526 55 q 307 -11 385 -11 q 194 9 247 -11 q 103 68 142 29 q 43 163 65 106 q 21 293 21 219 q 52 469 21 389 q 138 608 84 549 q 261 699 191 666 q 410 731 332 731 z "},"п":{"ha":766,"x_min":17,"x_max":715,"o":"m 285 596 q 399 698 337 665 q 526 731 460 731 q 608 713 571 731 q 670 660 645 695 q 705 575 694 626 q 707 458 715 524 l 653 0 l 438 0 l 492 458 q 494 507 495 487 q 487 539 493 527 q 469 556 481 551 q 443 561 458 561 q 394 547 419 561 q 345 505 368 532 q 302 441 322 478 q 272 357 283 403 l 232 0 l 17 0 l 103 720 l 214 720 q 266 705 247 720 q 285 653 285 689 l 285 596 z "},"т":{"ha":1109,"x_min":16,"x_max":1058,"o":"m 16 0 l 103 720 l 215 720 q 267 705 248 720 q 285 653 285 689 l 285 611 q 382 702 331 672 q 488 731 433 731 q 590 692 549 731 q 641 576 630 652 q 746 694 689 656 q 874 731 803 731 q 956 713 919 731 q 1015 660 992 695 q 1048 575 1039 626 q 1049 458 1058 524 l 995 0 l 783 0 l 837 458 q 839 507 840 487 q 833 539 838 527 q 818 556 828 551 q 795 561 808 561 q 754 550 774 561 q 716 516 734 538 q 684 464 699 494 q 658 394 669 433 l 612 0 l 399 0 l 453 458 q 456 507 457 487 q 450 539 455 527 q 435 556 444 551 q 412 561 425 561 q 370 549 390 561 q 332 515 350 538 q 300 461 315 493 q 274 391 285 430 l 227 0 l 16 0 z "},"ѵ":{"ha":722,"x_min":31,"x_max":740,"o":"m 448 577 q 487 655 465 625 q 537 701 510 684 q 594 723 564 717 q 657 729 624 729 q 700 726 684 729 q 726 718 717 723 q 738 709 735 714 q 740 701 740 704 l 725 590 l 705 590 q 661 579 681 590 q 630 542 641 568 l 391 0 l 202 0 l 31 719 l 204 719 q 240 709 226 719 q 257 683 253 699 l 311 348 q 322 287 318 317 q 330 227 326 257 q 351 286 340 256 q 374 348 362 316 l 448 577 z "},"ф":{"ha":1057,"x_min":21,"x_max":1019,"o":"m 602 157 q 651 147 624 147 q 716 172 688 147 q 764 238 744 197 q 794 331 784 278 q 805 439 805 383 q 788 538 805 507 q 728 568 770 568 q 685 558 706 568 q 647 531 665 549 l 602 157 m 438 563 q 388 573 417 573 q 324 548 352 573 q 275 483 295 524 q 245 390 256 442 q 235 282 235 338 q 252 183 235 213 q 312 153 269 153 q 355 163 334 153 q 394 191 376 173 l 438 563 m 665 683 q 728 719 694 708 q 808 731 762 731 q 895 716 856 731 q 961 667 934 700 q 1004 582 989 634 q 1019 458 1019 531 q 993 278 1019 363 q 924 129 968 193 q 820 27 879 65 q 692 -11 760 -11 q 633 0 660 -11 q 587 29 607 12 l 566 -144 q 555 -180 564 -163 q 530 -209 545 -197 q 495 -230 515 -222 q 450 -237 474 -237 l 343 -237 l 376 38 q 312 1 346 13 q 232 -11 278 -11 q 144 5 183 -11 q 78 53 106 20 q 36 139 51 87 q 21 263 21 190 q 46 442 21 358 q 116 591 72 527 q 220 693 160 656 q 347 731 279 731 q 407 720 380 731 q 453 691 433 708 l 484 947 q 495 983 486 966 q 520 1012 505 999 q 555 1032 535 1025 q 600 1040 576 1040 l 707 1040 l 665 683 z "},"ц":{"ha":828,"x_min":34,"x_max":786,"o":"m 786 149 l 704 -178 q 682 -220 701 -204 q 638 -237 663 -237 l 508 -237 l 578 0 l 535 0 q 459 71 459 0 l 459 117 q 347 20 407 51 q 223 -11 288 -11 q 141 7 178 -11 q 80 60 104 25 q 44 146 55 95 q 42 263 34 197 l 97 720 l 312 720 l 258 263 q 255 214 254 234 q 263 182 256 194 q 280 164 269 169 q 306 159 290 159 q 352 172 328 159 q 398 208 376 185 q 439 265 420 231 q 471 339 458 298 l 517 720 l 733 720 l 655 80 l 664 149 l 786 149 z "},"џ":{"ha":765,"x_min":35,"x_max":733,"o":"m 733 720 l 645 0 l 535 0 q 459 71 459 0 l 459 117 q 389 47 426 75 l 361 -178 q 339 -220 358 -204 q 295 -237 320 -237 l 165 -237 l 192 -9 q 123 18 153 -3 q 71 73 92 38 q 43 155 51 108 q 42 263 35 203 l 97 720 l 312 720 l 258 263 q 255 214 254 234 q 263 182 256 194 q 280 164 269 169 q 306 159 290 159 q 352 172 328 159 q 398 208 376 185 q 439 265 420 231 q 471 339 458 298 l 517 720 l 733 720 z "},"ч":{"ha":706,"x_min":28,"x_max":673,"o":"m 673 720 l 587 0 l 372 0 l 405 278 q 311 217 360 236 q 206 199 263 199 q 123 217 158 199 q 66 267 88 235 q 36 346 44 300 q 35 447 28 392 l 70 720 l 285 720 l 251 447 q 258 391 246 412 q 301 369 269 369 q 373 395 338 369 q 428 474 408 420 l 458 720 l 673 720 z "},"ш":{"ha":1108,"x_min":34,"x_max":1076,"o":"m 1076 720 l 988 0 l 877 0 q 825 16 844 0 q 806 67 806 31 l 806 108 q 710 18 760 47 q 603 -11 659 -11 q 502 28 542 -11 q 450 144 462 68 q 345 26 402 64 q 217 -11 289 -11 q 136 7 172 -11 q 76 60 100 25 q 43 146 53 95 q 42 263 34 197 l 97 720 l 309 720 l 255 263 q 252 214 251 234 q 259 182 253 194 q 273 164 264 169 q 297 159 283 159 q 338 171 318 159 q 375 204 358 183 q 408 257 393 226 q 433 326 422 288 l 480 720 l 692 720 l 638 263 q 636 214 635 234 q 642 182 637 194 q 657 164 647 169 q 680 159 666 159 q 721 171 701 159 q 759 206 741 183 q 791 259 776 228 q 817 330 806 291 l 865 720 l 1076 720 z "},"щ":{"ha":1172,"x_min":34,"x_max":1130,"o":"m 1130 149 l 1047 -178 q 1025 -220 1044 -204 q 982 -237 1007 -237 l 851 -237 l 922 0 l 877 0 q 825 16 844 0 q 806 67 806 31 l 806 108 q 710 18 760 47 q 603 -11 659 -11 q 502 28 542 -11 q 450 144 462 68 q 345 26 402 64 q 217 -11 289 -11 q 136 7 172 -11 q 76 60 100 25 q 43 146 53 95 q 42 263 34 197 l 97 720 l 309 720 l 255 263 q 252 214 251 234 q 259 182 253 194 q 273 164 264 169 q 297 159 283 159 q 338 171 318 159 q 375 204 358 183 q 408 257 393 226 q 433 326 422 288 l 480 720 l 692 720 l 638 263 q 636 214 635 234 q 642 182 637 194 q 657 164 647 169 q 680 159 666 159 q 721 171 701 159 q 759 206 741 183 q 791 259 776 228 q 817 330 806 291 l 865 720 l 1076 720 l 1006 149 l 1130 149 z "},"ъ":{"ha":760,"x_min":26,"x_max":729,"o":"m 408 132 q 459 148 437 132 q 498 190 482 165 q 522 247 513 216 q 530 307 530 278 q 528 329 530 318 q 522 349 526 340 q 508 364 517 358 q 485 369 499 369 q 437 354 461 369 q 394 316 413 340 q 363 260 375 292 q 351 194 351 228 q 368 147 351 162 q 408 132 384 132 m 448 616 q 426 569 435 592 q 409 524 417 546 q 395 478 401 501 q 385 430 390 455 q 475 491 427 470 q 567 511 524 511 q 630 499 601 511 q 682 464 660 487 q 716 408 703 441 q 729 333 729 375 q 719 257 729 297 q 690 178 709 217 q 641 106 670 140 q 572 45 611 72 q 485 4 533 19 q 379 -11 437 -11 q 281 4 324 -11 q 207 48 238 19 q 160 122 176 78 q 144 226 144 167 q 148 309 144 267 q 165 392 153 350 q 198 478 177 434 q 249 569 218 522 l 26 569 l 35 644 q 64 699 40 677 q 129 720 88 720 l 466 720 l 448 616 z "},"ы":{"ha":967,"x_min":24,"x_max":933,"o":"m 933 720 l 847 0 l 632 0 l 718 720 l 933 720 m 244 184 q 258 147 242 162 q 306 132 274 132 q 354 148 333 132 q 391 190 376 165 q 415 245 406 215 q 423 302 423 275 q 421 327 423 315 q 414 349 419 340 q 400 363 409 358 q 375 369 390 369 q 331 354 352 369 q 291 316 309 340 q 261 264 274 293 q 247 206 249 235 l 244 184 m 274 426 q 364 490 316 468 q 451 511 411 511 q 519 499 488 511 q 574 464 551 487 q 609 408 597 441 q 622 332 622 374 q 592 199 622 262 q 510 90 562 137 q 388 16 458 43 q 239 -11 318 -11 q 74 43 124 -11 q 37 199 24 97 l 99 720 l 309 720 l 274 426 z "},"ь":{"ha":653,"x_min":24,"x_max":622,"o":"m 244 184 q 258 147 242 162 q 306 132 274 132 q 354 148 333 132 q 391 190 376 165 q 415 245 406 215 q 423 302 423 275 q 421 327 423 315 q 414 349 419 340 q 400 363 409 358 q 375 369 390 369 q 331 354 352 369 q 291 316 309 340 q 261 264 274 293 q 247 206 249 235 l 244 184 m 274 426 q 364 490 316 468 q 451 511 411 511 q 519 499 488 511 q 574 464 551 487 q 609 408 597 441 q 622 332 622 374 q 592 199 622 262 q 510 90 562 137 q 388 16 458 43 q 239 -11 318 -11 q 74 43 124 -11 q 37 199 24 97 l 99 720 l 309 720 l 274 426 z "},"э":{"ha":638,"x_min":-20,"x_max":598,"o":"m 42 641 q 159 705 94 681 q 308 730 224 730 q 430 708 376 730 q 522 645 484 686 q 578 544 559 604 q 598 408 598 484 q 567 238 598 315 q 482 105 536 160 q 355 19 428 50 q 198 -11 282 -11 q 73 14 125 -11 q -20 91 20 39 l 42 164 q 60 178 50 172 q 81 184 69 184 q 105 178 94 184 q 127 165 115 172 q 155 152 139 158 q 197 147 172 147 q 313 186 266 147 q 378 299 359 226 l 126 299 l 144 435 l 388 435 q 350 543 382 510 q 265 576 317 576 q 225 569 244 576 q 190 555 207 563 q 159 541 174 547 q 128 534 144 534 q 95 542 105 534 q 79 560 85 551 l 42 641 z "},"є":{"ha":633,"x_min":21,"x_max":625,"o":"m 586 126 q 519 62 551 88 q 453 19 488 35 q 381 -4 419 3 q 296 -11 342 -11 q 182 10 233 -11 q 95 72 131 32 q 40 167 60 111 q 21 294 21 224 q 50 461 21 382 q 130 600 78 540 q 253 695 182 660 q 408 730 324 730 q 532 705 481 730 q 625 628 584 681 l 563 555 q 545 541 555 547 q 524 535 535 535 q 500 541 510 535 q 480 553 491 547 q 453 566 469 560 q 411 572 437 572 q 316 536 358 572 q 250 435 273 501 l 491 435 l 474 299 l 229 299 q 238 235 229 264 q 262 185 247 206 q 300 154 278 165 q 350 143 322 143 q 404 152 383 143 q 440 173 424 162 q 468 194 455 185 q 500 203 481 203 q 520 198 510 203 q 538 185 530 192 l 586 126 l 586 126 z "},"ю":{"ha":1021,"x_min":15,"x_max":984,"o":"m 638 149 q 692 171 668 149 q 734 232 717 194 q 759 322 751 271 q 768 432 768 374 q 751 539 767 506 q 697 572 735 572 q 642 549 666 572 q 601 489 617 527 q 575 398 584 450 q 567 288 567 347 q 584 182 568 215 q 638 149 599 149 m 384 438 q 434 558 401 504 q 511 651 467 613 q 608 710 555 690 q 718 731 660 731 q 821 711 773 731 q 906 653 869 692 q 963 559 942 615 q 983 431 983 503 q 954 255 984 336 q 873 115 924 174 q 755 22 822 56 q 615 -11 688 -11 q 515 9 560 -11 q 436 67 469 28 q 384 161 403 105 q 365 289 365 217 l 365 294 l 258 294 l 222 0 l 15 0 l 103 719 l 311 719 l 276 438 l 384 438 z "},"я":{"ha":728,"x_min":-28,"x_max":696,"o":"m 459 403 l 482 589 l 393 589 q 343 577 363 589 q 312 549 324 566 q 296 512 301 532 q 292 476 292 492 q 310 420 292 438 q 358 403 328 403 l 459 403 m 696 719 l 607 0 l 410 0 l 444 279 l 401 279 q 366 275 380 279 q 342 263 352 271 q 326 245 333 256 q 313 223 319 235 l 246 96 q 204 41 226 61 q 157 9 181 20 q 106 -5 132 -1 q 54 -8 80 -8 q -11 0 7 -8 q -26 28 -28 8 l -11 146 l 12 146 q 57 157 38 146 q 92 191 76 167 l 119 242 q 164 290 140 272 q 220 320 188 309 q 156 346 182 329 q 114 384 130 363 q 91 432 98 406 q 84 483 84 457 q 102 566 84 524 q 158 642 120 608 q 253 698 195 676 q 392 719 311 719 l 696 719 z "},"ђ":{"ha":741,"x_min":15,"x_max":685,"o":"m 292 566 q 389 640 338 615 q 499 665 440 665 q 638 598 592 665 q 685 408 685 532 q 669 249 685 330 q 626 88 653 168 q 560 -71 599 8 q 477 -224 522 -149 l 317 -163 q 396 3 365 -74 q 444 146 426 80 q 468 270 462 213 q 475 377 475 327 q 458 478 475 449 q 410 508 442 508 q 340 474 376 508 q 268 376 303 441 l 222 0 l 15 0 l 106 742 l 15 742 l 35 892 l 125 892 l 143 1039 l 350 1039 l 332 892 l 510 892 l 491 742 l 313 742 l 292 566 z "},"ѣ":{"ha":764,"x_min":28,"x_max":719,"o":"m 342 184 q 355 147 339 162 q 403 132 371 132 q 451 148 430 132 q 488 190 473 165 q 512 245 503 215 q 520 302 520 275 q 518 327 520 315 q 511 349 517 340 q 497 363 506 358 q 472 369 488 369 q 428 354 449 369 q 389 316 406 340 q 359 264 371 293 q 344 206 347 235 l 342 184 m 371 426 q 461 490 413 468 q 549 511 508 511 q 617 499 585 511 q 671 464 648 487 q 707 408 694 441 q 719 332 719 374 q 689 199 719 262 q 607 90 659 137 q 485 16 555 43 q 336 -11 415 -11 q 172 43 222 -11 q 134 199 122 97 l 171 510 l 175 546 l 178 569 l 28 569 l 47 720 l 197 720 l 218 898 l 428 898 l 406 720 l 584 720 l 565 569 l 388 569 l 371 426 z "},"!":{"ha":384,"x_min":36,"x_max":356,"o":"m 356 1012 l 307 613 q 284 487 299 550 q 249 358 269 424 l 108 358 q 105 487 104 424 q 114 613 106 550 l 163 1012 l 356 1012 m 36 109 q 45 156 36 134 q 71 193 55 177 q 110 218 88 209 q 158 228 132 228 q 206 218 184 228 q 245 193 228 209 q 271 156 262 177 q 281 109 281 134 q 271 62 281 84 q 245 24 262 40 q 206 -1 228 8 q 158 -10 184 -10 q 110 -1 132 -10 q 71 24 88 8 q 45 62 55 40 q 36 109 36 84 z "},"?":{"ha":613,"x_min":99,"x_max":610,"o":"m 99 918 q 156 958 126 940 q 220 991 186 977 q 292 1014 254 1006 q 374 1022 331 1022 q 477 1005 433 1022 q 551 960 522 988 q 595 895 581 932 q 610 816 610 858 q 595 716 610 757 q 557 647 580 676 q 506 596 534 617 q 451 555 478 575 q 403 512 424 535 q 371 457 381 489 l 340 358 l 197 358 l 197 470 q 214 534 197 506 q 255 586 230 563 q 308 631 279 610 q 361 673 336 651 q 402 720 385 695 q 418 778 418 746 q 399 838 418 815 q 335 860 381 860 q 279 852 302 860 q 238 834 256 844 q 208 817 221 825 q 182 809 194 809 q 158 815 166 809 q 143 834 151 821 l 99 918 m 131 109 q 140 156 131 134 q 166 193 149 177 q 204 218 182 209 q 253 228 226 228 q 301 218 278 228 q 340 193 323 209 q 366 156 356 177 q 375 109 375 134 q 366 62 375 84 q 340 24 356 40 q 301 -1 323 8 q 253 -10 278 -10 q 204 -1 226 -10 q 166 24 182 8 q 140 62 149 40 q 131 109 131 84 z "},"‽":{"ha":694,"x_min":112,"x_max":699,"o":"m 255 228 q 303 218 281 228 q 342 193 325 209 q 368 156 358 177 q 377 109 377 134 q 368 62 377 84 q 342 24 358 40 q 303 -1 325 8 q 255 -10 281 -10 q 206 -1 228 -10 q 168 24 184 8 q 142 62 151 40 q 133 109 133 84 q 142 156 133 134 q 168 193 151 177 q 206 218 184 209 q 255 228 228 228 m 356 997 q 384 1005 368 1001 q 419 1012 401 1009 q 457 1017 438 1015 q 493 1019 476 1019 q 578 1007 540 1019 q 643 970 617 994 q 684 911 670 947 q 699 829 699 876 q 680 718 699 763 q 631 644 660 674 q 566 593 601 614 q 496 553 530 573 q 436 511 463 534 q 397 452 409 488 l 365 357 l 236 357 q 209 460 222 404 q 186 568 196 515 l 112 988 l 309 1034 l 342 746 q 347 690 344 726 q 351 613 349 654 q 404 660 376 640 q 454 698 431 679 q 492 740 477 717 q 506 798 506 763 q 493 841 506 826 q 459 856 479 856 q 431 853 445 856 q 411 851 417 851 q 378 859 388 851 q 369 883 369 867 l 356 997 z "},",":{"ha":340,"x_min":13,"x_max":252,"o":"m 41 -172 q 26 -142 26 -159 q 38 -117 26 -131 q 66 -86 50 -103 q 97 -46 81 -68 q 119 4 112 -24 q 76 16 95 6 q 42 41 56 26 q 21 77 28 57 q 13 122 13 98 q 22 164 13 144 q 45 197 30 183 q 82 219 61 211 q 130 228 103 228 q 184 217 161 228 q 222 188 207 206 q 245 145 238 169 q 252 95 252 122 q 241 21 252 60 q 208 -58 230 -18 q 153 -135 186 -97 q 78 -205 121 -174 l 41 -172 z "},";":{"ha":390,"x_min":40,"x_max":333,"o":"m 67 -172 q 52 -142 52 -159 q 64 -117 52 -131 q 92 -86 76 -103 q 123 -46 108 -68 q 145 4 138 -24 q 102 16 122 6 q 69 41 83 26 q 47 77 55 57 q 40 122 40 98 q 48 164 40 144 q 72 197 56 183 q 109 219 88 211 q 156 228 130 228 q 210 217 188 228 q 249 188 233 206 q 271 145 264 169 q 278 95 278 122 q 267 21 278 60 q 234 -58 256 -18 q 180 -135 213 -97 q 105 -205 147 -174 l 67 -172 m 88 583 q 98 630 88 608 q 123 667 107 651 q 162 693 140 683 q 210 702 184 702 q 258 693 236 702 q 297 667 281 683 q 323 630 314 651 q 333 583 333 608 q 323 536 333 558 q 297 499 314 515 q 258 474 281 483 q 210 465 236 465 q 162 474 184 465 q 123 499 140 483 q 98 536 107 515 q 88 583 88 558 z "},".":{"ha":335,"x_min":9,"x_max":253,"o":"m 9 109 q 18 156 9 134 q 44 193 28 177 q 83 218 60 209 q 131 228 105 228 q 179 218 157 228 q 218 193 201 209 q 244 156 235 177 q 253 109 253 134 q 244 62 253 84 q 218 24 235 40 q 179 -1 201 8 q 131 -10 157 -10 q 83 -1 105 -10 q 44 24 60 8 q 18 62 28 40 q 9 109 9 84 z "},"…":{"ha":1102,"x_min":9,"x_max":1020,"o":"m 9 109 q 18 156 9 134 q 44 193 28 177 q 83 218 60 209 q 131 228 105 228 q 179 218 157 228 q 218 193 201 209 q 244 156 235 177 q 253 109 253 134 q 244 62 253 84 q 218 24 235 40 q 179 -1 201 8 q 131 -10 157 -10 q 83 -1 105 -10 q 44 24 60 8 q 18 62 28 40 q 9 109 9 84 m 392 109 q 402 156 392 134 q 427 193 411 177 q 466 218 444 209 q 515 228 488 228 q 563 218 540 228 q 601 193 585 209 q 627 156 618 177 q 637 109 637 134 q 627 62 637 84 q 601 24 618 40 q 563 -1 585 8 q 515 -10 540 -10 q 466 -1 488 -10 q 427 24 444 8 q 402 62 411 40 q 392 109 392 84 m 776 109 q 785 156 776 134 q 811 193 794 177 q 849 218 827 209 q 898 228 872 228 q 946 218 924 228 q 985 193 968 209 q 1011 156 1001 177 q 1020 109 1020 134 q 1011 62 1020 84 q 985 24 1001 40 q 946 -1 968 8 q 898 -10 924 -10 q 849 -1 872 -10 q 811 24 827 8 q 785 62 794 40 q 776 109 776 84 z "},"‘":{"ha":303,"x_min":85,"x_max":340,"o":"m 120 663 q 88 780 92 722 q 104 894 85 838 q 164 1002 123 950 q 267 1099 206 1053 l 326 1061 q 336 1051 333 1058 q 340 1038 340 1044 q 335 1021 340 1028 q 319 1002 330 1014 q 295 970 310 992 q 271 917 281 948 q 262 846 261 885 q 284 762 263 807 q 282 732 292 746 q 251 710 272 717 l 120 663 z "},"’":{"ha":301,"x_min":72,"x_max":327,"o":"m 292 1072 q 323 955 319 1013 q 308 841 327 897 q 248 733 289 785 q 144 636 206 681 l 85 674 q 76 684 79 677 q 72 697 72 690 q 77 714 72 707 q 92 732 82 721 q 116 765 101 742 q 141 818 131 787 q 150 889 151 849 q 128 973 149 928 q 130 1003 120 989 q 161 1025 140 1017 l 292 1072 z "},"“":{"ha":532,"x_min":85,"x_max":568,"o":"m 120 663 q 88 780 92 722 q 104 894 85 838 q 164 1002 123 950 q 267 1099 206 1053 l 326 1061 q 336 1051 333 1058 q 340 1038 340 1044 q 335 1021 340 1028 q 319 1002 330 1014 q 295 970 310 992 q 271 917 281 948 q 262 846 261 885 q 284 762 263 807 q 282 732 292 746 q 251 710 272 717 l 120 663 m 349 663 q 317 780 320 722 q 332 894 313 838 q 393 1002 351 950 q 496 1099 434 1053 l 555 1061 q 565 1051 561 1058 q 568 1038 568 1044 q 563 1021 568 1028 q 548 1002 558 1014 q 524 970 539 992 q 499 917 509 948 q 490 846 490 885 q 513 762 491 807 q 510 732 520 746 q 479 710 500 717 l 349 663 z "},"”":{"ha":531,"x_min":72,"x_max":556,"o":"m 292 1072 q 323 955 319 1013 q 308 841 327 897 q 248 733 289 785 q 144 636 206 681 l 85 674 q 76 684 79 677 q 72 697 72 690 q 77 714 72 707 q 92 732 82 721 q 116 765 101 742 q 141 818 131 787 q 150 889 151 849 q 128 973 149 928 q 130 1003 120 989 q 161 1025 140 1017 l 292 1072 m 520 1072 q 552 955 548 1013 q 536 841 556 897 q 476 733 517 785 q 373 636 435 681 l 314 674 q 304 684 308 677 q 301 697 301 690 q 306 714 301 707 q 321 732 310 721 q 345 765 330 742 q 369 818 360 787 q 378 889 379 849 q 356 973 378 928 q 359 1003 349 989 q 390 1025 369 1017 l 520 1072 z "},"‚":{"ha":299,"x_min":-45,"x_max":210,"o":"m 174 225 q 206 108 202 167 q 191 -6 210 50 q 130 -114 172 -62 q 27 -210 89 -166 l -32 -173 q -42 -163 -38 -169 q -45 -149 -45 -156 q -40 -133 -45 -140 q -25 -115 -35 -126 q -1 -82 -16 -104 q 24 -28 14 -60 q 33 42 33 3 q 10 126 32 81 q 13 157 3 142 q 44 178 23 171 l 174 225 z "},"„":{"ha":528,"x_min":-45,"x_max":438,"o":"m 174 225 q 206 108 202 167 q 191 -6 210 50 q 130 -114 172 -62 q 27 -210 89 -166 l -32 -173 q -42 -163 -38 -169 q -45 -149 -45 -156 q -40 -133 -45 -140 q -25 -115 -35 -126 q -1 -82 -16 -104 q 24 -28 14 -60 q 33 42 33 3 q 10 126 32 81 q 13 157 3 142 q 44 178 23 171 l 174 225 m 403 225 q 434 108 431 167 q 419 -6 438 50 q 359 -114 400 -62 q 256 -210 317 -166 l 197 -173 q 187 -163 190 -169 q 183 -149 183 -156 q 188 -133 183 -140 q 203 -115 193 -126 q 227 -82 213 -104 q 252 -28 242 -60 q 261 42 262 3 q 239 126 260 81 q 241 157 231 142 q 272 178 251 171 l 403 225 z "},"‹":{"ha":379,"x_min":41,"x_max":340,"o":"m 231 409 q 203 377 217 388 q 223 346 214 366 l 278 194 q 282 149 289 169 q 248 116 275 128 l 176 85 l 41 365 l 45 390 l 248 668 l 312 638 q 338 606 337 626 q 323 561 340 585 l 231 409 z "},"›":{"ha":378,"x_min":26,"x_max":324,"o":"m 324 390 l 322 365 l 119 85 l 55 116 q 28 149 30 128 q 42 194 26 169 l 135 346 q 163 377 149 365 q 144 409 151 389 l 87 561 q 84 606 77 585 q 119 638 92 626 l 191 668 l 324 390 z "},"«":{"ha":609,"x_min":41,"x_max":569,"o":"m 231 409 q 203 377 217 388 q 223 346 214 366 l 278 194 q 282 149 289 169 q 248 116 275 128 l 176 85 l 41 365 l 45 390 l 248 668 l 312 638 q 338 606 337 626 q 323 561 340 585 l 231 409 m 461 409 q 433 377 447 388 q 453 346 444 366 l 508 194 q 512 149 519 169 q 478 116 505 128 l 406 85 l 271 365 l 275 390 l 478 668 l 542 638 q 568 606 567 626 q 553 561 569 585 l 461 409 z "},"»":{"ha":608,"x_min":26,"x_max":554,"o":"m 324 390 l 322 365 l 119 85 l 55 116 q 28 149 30 128 q 42 194 26 169 l 135 346 q 163 377 149 365 q 144 409 151 389 l 87 561 q 84 606 77 585 q 119 638 92 626 l 191 668 l 324 390 m 554 390 l 551 365 l 349 85 l 285 116 q 258 149 260 128 q 272 194 256 169 l 365 346 q 393 377 379 365 q 374 409 381 389 l 317 561 q 314 606 307 585 q 349 638 322 626 l 421 668 l 554 390 z "},"/":{"ha":611,"x_min":-27,"x_max":648,"o":"m 178 5 q 155 -27 169 -13 q 126 -51 142 -42 q 94 -65 110 -60 q 62 -70 77 -70 l -27 -70 l 447 942 q 494 994 465 976 q 560 1013 524 1013 l 648 1013 l 178 5 z "},"|":{"ha":388,"x_min":110,"x_max":277,"o":"m 110 1081 l 277 1081 l 277 -228 l 110 -228 l 110 1081 z "},"¦":{"ha":387,"x_min":110,"x_max":276,"o":"m 110 1081 l 276 1081 l 276 513 l 110 513 l 110 1081 m 110 340 l 276 340 l 276 -228 l 110 -228 l 110 340 z "},"\\":{"ha":607,"x_min":104,"x_max":513,"o":"m 104 1013 l 192 1013 q 253 994 228 1013 q 288 942 278 976 l 513 -70 l 425 -70 q 364 -51 392 -70 q 326 5 336 -32 l 104 1013 z "},"-":{"ha":477,"x_min":53,"x_max":422,"o":"m 74 506 l 422 506 l 400 338 l 53 338 l 74 506 z "},"–":{"ha":806,"x_min":130,"x_max":673,"o":"m 148 492 l 673 492 l 655 349 l 130 349 l 148 492 z "},"—":{"ha":1021,"x_min":57,"x_max":961,"o":"m 75 492 l 961 492 l 943 349 l 57 349 l 75 492 z "},"_":{"ha":618,"x_min":-20,"x_max":501,"o":"m 501 -79 l 484 -208 l -20 -208 l -3 -79 l 501 -79 z "},"•":{"ha":806,"x_min":57,"x_max":744,"o":"m 57 411 q 84 542 57 481 q 158 649 111 603 q 267 721 204 694 q 400 747 329 747 q 534 721 472 747 q 643 649 597 694 q 717 542 690 603 q 744 411 744 481 q 717 281 744 342 q 643 175 690 220 q 534 103 597 130 q 400 77 472 77 q 267 103 329 77 q 158 175 204 130 q 84 281 111 220 q 57 411 57 342 z "},"·":{"ha":403,"x_min":42,"x_max":355,"o":"m 42 414 q 55 473 42 445 q 88 521 67 501 q 137 553 109 542 q 198 565 165 565 q 259 553 231 565 q 309 521 288 542 q 343 473 331 501 q 355 414 355 445 q 343 355 355 383 q 309 307 331 328 q 259 275 288 287 q 198 263 231 263 q 137 275 165 263 q 88 307 109 287 q 55 355 67 328 q 42 414 42 383 z "},"(":{"ha":381,"x_min":36,"x_max":415,"o":"m 217 297 q 220 199 217 251 q 230 95 224 147 q 247 -6 237 44 q 269 -97 256 -56 q 275 -126 276 -114 q 270 -148 275 -138 q 258 -164 266 -157 q 240 -176 249 -170 l 142 -229 q 94 -107 114 -171 q 61 24 74 -42 q 42 156 49 90 q 36 282 36 222 q 50 493 36 390 q 97 695 65 595 q 180 895 128 795 q 304 1099 231 994 l 390 1046 q 405 1034 398 1040 q 413 1018 411 1027 q 413 996 415 1008 q 399 967 410 983 q 324 814 358 892 q 267 653 291 736 q 230 481 243 569 q 217 297 217 392 z "},")":{"ha":380,"x_min":-34,"x_max":345,"o":"m 165 573 q 161 670 165 619 q 151 774 158 722 q 134 875 144 826 q 112 967 124 925 q 106 996 106 983 q 111 1018 106 1008 q 123 1034 115 1027 q 141 1046 131 1040 l 240 1099 q 287 976 267 1040 q 320 846 307 913 q 339 714 333 780 q 345 588 345 649 q 331 377 345 479 q 284 175 317 275 q 201 -25 252 75 q 76 -229 149 -125 l -9 -176 q -23 -164 -17 -170 q -32 -148 -30 -157 q -31 -126 -34 -138 q -17 -97 -28 -114 q 57 55 23 -24 q 114 217 90 134 q 151 390 138 301 q 165 573 165 478 z "},"[":{"ha":425,"x_min":22,"x_max":474,"o":"m 464 1001 q 444 966 462 981 q 404 951 427 951 l 340 951 l 210 -93 l 278 -93 q 314 -108 301 -93 q 324 -144 327 -123 l 314 -222 l 22 -222 l 182 1080 l 474 1080 l 464 1001 z "},"]":{"ha":425,"x_min":-51,"x_max":402,"o":"m 241 -222 l -51 -222 l -40 -144 q -21 -108 -37 -123 q 19 -93 -4 -93 l 85 -93 l 214 951 l 147 951 q 110 966 124 951 q 99 1001 97 981 l 110 1080 l 402 1080 l 241 -222 z "},"{":{"ha":410,"x_min":26,"x_max":456,"o":"m 456 1080 l 444 990 q 438 972 443 979 q 425 960 432 965 q 410 953 417 956 q 397 951 402 951 l 399 951 q 338 923 359 951 q 311 844 317 894 q 305 773 306 806 q 302 707 303 739 q 300 645 301 676 q 296 584 299 615 q 283 533 292 558 q 257 488 273 508 q 220 451 242 467 q 173 428 199 436 q 210 407 194 420 q 237 376 226 394 q 253 339 248 359 q 258 297 258 318 q 250 219 258 257 q 233 144 242 181 q 215 68 223 106 q 207 -11 207 30 q 222 -71 207 -49 q 271 -93 238 -93 l 269 -93 q 282 -95 275 -93 q 295 -103 290 -98 q 305 -115 301 -108 q 307 -133 308 -123 l 296 -222 l 263 -222 q 156 -207 201 -222 q 82 -165 111 -192 q 40 -99 53 -137 q 26 -15 26 -61 q 35 70 26 29 q 56 149 44 110 q 76 224 67 187 q 85 300 85 262 q 72 351 85 331 q 28 371 59 371 l 43 487 q 85 498 69 487 q 110 531 101 509 q 122 586 119 553 q 125 664 125 619 q 125 683 125 672 q 124 708 124 695 q 124 733 124 721 q 124 753 124 744 q 141 893 124 832 q 195 995 158 953 q 288 1058 231 1037 q 424 1080 345 1080 l 456 1080 z "},"}":{"ha":410,"x_min":-47,"x_max":383,"o":"m 148 1080 q 253 1065 209 1080 q 327 1023 298 1050 q 369 957 356 995 q 383 872 383 918 q 374 787 383 828 q 354 708 365 747 q 335 633 344 670 q 326 558 326 595 q 338 507 326 526 q 381 487 350 487 l 367 371 q 326 360 342 371 q 301 327 310 349 q 289 272 292 305 q 285 193 285 238 l 285 105 q 268 -35 285 26 q 214 -137 251 -96 q 121 -201 178 -179 q -13 -222 65 -222 l -47 -222 l -34 -133 q -28 -115 -33 -123 q -15 -103 -22 -108 q 0 -95 -8 -98 q 13 -93 8 -93 l 12 -93 q 72 -65 51 -93 q 99 13 93 -37 q 106 84 104 51 q 108 150 107 118 q 110 211 109 181 q 115 272 111 242 q 127 323 117 299 q 152 369 136 348 q 189 405 167 390 q 237 428 210 420 q 172 481 193 444 q 151 562 151 517 q 159 638 151 601 q 177 713 167 676 q 195 789 187 751 q 203 869 203 828 q 188 929 203 906 q 140 951 173 951 l 141 951 q 128 953 135 951 q 115 960 121 956 q 106 972 109 965 q 103 990 102 979 l 115 1080 l 148 1080 z "},"*":{"ha":551,"x_min":90,"x_max":553,"o":"m 455 834 q 427 821 441 826 q 399 813 413 816 q 449 792 426 809 l 533 730 l 476 651 l 391 712 q 370 727 380 719 q 353 743 361 734 q 356 718 356 731 q 355 692 356 706 l 340 569 l 242 569 l 258 690 q 272 744 260 719 q 250 727 262 735 q 226 712 239 719 l 127 651 l 90 731 l 188 792 q 243 813 217 808 q 218 821 231 816 q 194 834 206 826 l 109 896 l 167 976 l 252 914 q 273 900 263 907 q 290 883 282 892 q 287 908 287 894 q 288 935 287 921 l 303 1057 l 401 1057 l 385 935 q 371 882 382 907 q 392 899 381 892 q 417 914 404 907 l 516 975 l 553 894 l 455 834 z "},"†":{"ha":806,"x_min":78,"x_max":778,"o":"m 519 711 q 565 722 542 716 q 610 732 588 727 q 652 740 632 737 q 691 743 673 743 q 733 736 716 743 q 760 717 750 728 q 774 690 771 705 q 776 658 778 674 l 767 591 l 503 591 l 474 347 l 431 -219 q 379 -239 407 -233 q 320 -245 351 -245 q 264 -239 290 -245 q 217 -219 238 -233 l 313 347 l 342 591 l 78 591 l 87 658 q 97 690 89 674 q 117 717 104 705 q 150 736 131 728 q 194 743 169 743 q 231 740 211 743 q 272 731 251 736 q 314 721 292 726 q 358 711 336 715 l 370 1024 q 421 1043 393 1036 q 480 1050 449 1050 q 536 1043 510 1050 q 583 1024 563 1036 l 519 711 z "},"‡":{"ha":806,"x_min":23,"x_max":778,"o":"m 519 711 q 565 722 542 716 q 610 732 588 727 q 653 740 633 737 q 692 743 674 743 q 734 736 717 743 q 761 717 751 728 q 775 690 772 705 q 776 658 778 674 l 768 591 l 504 591 l 478 381 l 457 214 l 722 214 l 714 147 q 704 115 712 131 q 683 87 697 99 q 651 68 670 75 q 607 60 632 60 q 529 72 572 61 q 443 93 487 83 l 432 -219 q 380 -239 408 -233 q 321 -245 351 -245 q 264 -239 290 -245 q 218 -219 238 -233 l 282 92 q 191 72 236 83 q 110 60 146 61 q 68 68 85 60 q 40 87 51 75 q 26 115 30 99 q 25 147 23 131 l 33 214 l 297 214 l 318 381 l 344 591 l 79 591 l 88 658 q 97 690 90 674 q 118 717 105 705 q 150 736 131 728 q 194 743 169 743 q 232 740 212 743 q 272 731 251 736 q 315 721 293 726 q 358 711 337 715 l 371 1024 q 422 1043 394 1036 q 481 1050 450 1050 q 537 1043 511 1050 q 583 1024 563 1036 l 519 711 z "},"§":{"ha":665,"x_min":3,"x_max":648,"o":"m 244 496 q 257 457 244 474 q 293 425 271 440 q 343 398 315 411 q 400 370 371 385 q 428 402 420 384 q 437 441 437 420 q 424 481 437 464 q 389 512 410 498 q 339 539 367 526 q 282 566 311 551 q 253 535 262 552 q 244 496 244 518 m 592 856 q 573 837 583 842 q 549 831 563 831 q 521 838 535 831 q 492 853 508 844 q 458 868 476 861 q 413 874 439 874 q 371 868 389 874 q 342 852 353 863 q 325 828 331 842 q 319 799 319 814 q 341 758 319 775 q 398 723 364 740 q 472 688 432 706 q 545 643 511 669 q 602 583 579 618 q 624 499 624 549 q 595 386 624 438 q 500 302 566 335 q 534 251 521 280 q 547 185 547 222 q 526 79 547 128 q 465 -5 505 31 q 367 -61 425 -41 q 233 -81 308 -81 q 165 -75 199 -81 q 101 -56 131 -68 q 45 -28 71 -44 q 3 6 20 -12 l 62 83 q 84 104 72 97 q 117 111 97 111 q 148 103 135 111 q 176 85 160 94 q 213 67 191 75 q 269 58 234 58 q 336 79 312 58 q 360 137 360 99 q 338 188 360 167 q 281 224 315 208 q 208 256 247 240 q 134 296 168 272 q 77 356 100 320 q 55 445 55 391 q 86 558 55 508 q 181 637 118 608 q 146 692 159 661 q 133 767 133 724 q 151 863 133 817 q 208 944 170 909 q 300 1000 245 979 q 428 1020 356 1020 q 498 1013 465 1020 q 559 994 531 1006 q 609 965 587 982 q 648 928 632 948 l 592 856 z "},"¶":{"ha":1065,"x_min":72,"x_max":1090,"o":"m 1067 838 l 922 838 l 801 -150 l 613 -150 l 735 838 l 599 838 l 477 -150 l 290 -150 l 360 421 q 241 441 294 421 q 150 495 188 460 q 92 577 113 530 q 72 680 72 624 q 98 807 72 747 q 172 913 124 867 q 286 985 219 958 q 433 1012 352 1012 l 1090 1012 l 1067 838 z "},"^":{"ha":806,"x_min":97,"x_max":774,"o":"m 774 533 l 615 533 q 584 543 597 533 q 564 567 572 553 l 478 731 q 456 774 465 753 q 439 814 446 794 q 423 774 432 794 q 401 731 413 753 l 318 567 q 298 543 310 553 q 264 533 285 533 l 97 533 l 365 1012 l 506 1012 l 774 533 z "},"~":{"ha":806,"x_min":54,"x_max":749,"o":"m 506 470 q 557 492 539 470 q 575 555 575 513 l 749 555 q 733 449 749 496 q 688 368 717 401 q 616 318 659 335 q 519 300 574 300 q 450 308 483 300 q 390 326 418 316 q 339 344 363 336 q 297 352 316 352 q 246 331 264 352 q 228 267 228 309 l 54 267 q 70 374 54 326 q 115 454 85 421 q 186 505 144 487 q 283 522 229 522 q 352 514 320 522 q 413 496 385 506 q 464 478 440 486 q 506 470 487 470 z "},"'":{"ha":291,"x_min":101,"x_max":306,"o":"m 306 1010 l 281 812 l 249 702 q 221 647 239 666 q 167 628 203 628 q 123 647 137 628 q 106 702 110 666 l 101 812 l 126 1010 l 306 1010 z "},"\"":{"ha":547,"x_min":101,"x_max":562,"o":"m 306 1010 l 281 812 l 249 702 q 221 647 239 666 q 167 628 203 628 q 123 647 137 628 q 106 702 110 666 l 101 812 l 126 1010 l 306 1010 m 562 1010 l 537 812 l 505 702 q 476 647 494 666 q 423 628 458 628 q 379 647 392 628 q 362 702 365 666 l 356 812 l 381 1010 l 562 1010 z "},"&":{"ha":942,"x_min":21,"x_max":899,"o":"m 310 445 q 251 366 267 409 q 235 277 235 324 q 241 225 235 249 q 261 184 247 201 q 299 158 276 167 q 354 149 322 149 q 425 161 391 149 q 492 197 460 174 l 310 445 m 899 0 l 718 0 q 675 3 693 0 q 644 13 658 6 q 618 31 630 20 q 594 58 607 42 l 583 74 q 452 11 521 33 q 310 -11 383 -11 q 185 7 240 -11 q 95 60 131 26 q 40 143 58 94 q 21 251 21 191 q 37 350 21 303 q 82 435 53 396 q 150 506 111 474 q 236 561 190 538 q 208 644 217 603 q 200 723 200 685 q 222 838 200 783 q 283 933 243 892 q 381 998 324 974 q 511 1022 439 1022 q 621 1002 574 1022 q 699 950 668 983 q 745 876 731 918 q 760 790 760 835 l 635 765 q 595 767 608 760 q 575 795 583 773 q 492 869 551 869 q 450 858 468 869 q 419 829 431 847 q 400 787 406 811 q 393 735 393 763 q 402 677 393 708 q 435 611 412 647 l 624 362 q 678 526 662 438 q 692 557 682 545 q 722 569 702 569 l 869 569 q 821 379 856 467 q 733 219 785 290 l 899 0 z "},"@":{"ha":1076,"x_min":46,"x_max":1043,"o":"m 647 549 q 618 551 633 551 q 552 532 585 551 q 494 481 519 513 q 452 407 468 449 q 436 320 436 365 q 479 256 436 256 q 506 261 492 256 q 532 278 519 266 q 557 309 545 290 q 578 359 568 329 l 647 549 m 739 381 q 724 317 727 342 q 724 277 720 292 q 739 257 728 263 q 765 251 749 251 q 816 274 792 251 q 858 337 840 297 q 887 431 876 377 q 897 545 897 484 q 878 672 897 617 q 823 765 859 727 q 733 822 786 803 q 613 842 680 842 q 445 803 522 842 q 314 695 369 764 q 227 535 258 627 q 196 335 196 442 q 220 174 196 244 q 289 57 244 104 q 397 -15 334 10 q 539 -39 460 -39 q 632 -33 590 -39 q 707 -19 674 -28 q 764 -1 740 -11 q 801 18 788 9 q 835 29 821 28 q 858 26 849 31 q 874 14 868 22 q 883 -5 880 5 l 899 -61 q 823 -103 864 -84 q 736 -137 783 -123 q 636 -160 689 -152 q 524 -168 583 -168 q 326 -133 414 -168 q 175 -32 238 -97 q 80 124 113 33 q 46 328 46 216 q 67 495 46 415 q 125 648 88 576 q 217 778 163 719 q 335 880 270 838 q 474 946 399 922 q 629 969 549 969 q 791 939 715 969 q 922 853 866 909 q 1011 720 978 798 q 1043 545 1043 642 q 1018 382 1043 458 q 949 249 993 306 q 847 159 906 192 q 719 126 788 126 q 681 131 700 126 q 647 146 663 135 q 619 172 631 156 q 601 211 608 188 q 513 146 558 165 q 421 127 469 127 q 357 140 384 127 q 311 176 329 153 q 284 231 293 199 q 275 299 275 262 q 286 386 275 341 q 319 472 297 431 q 374 551 341 514 q 450 616 406 588 q 548 660 494 644 q 668 676 603 676 q 720 674 697 676 q 763 667 743 672 q 800 657 783 663 q 835 643 817 651 l 739 381 z "},"©":{"ha":1138,"x_min":61,"x_max":1096,"o":"m 717 376 q 733 372 725 376 q 746 362 740 368 l 817 289 q 718 210 779 237 q 578 183 658 183 q 451 209 508 183 q 355 278 394 234 q 294 381 315 322 q 272 508 272 440 q 297 639 272 579 q 366 741 322 698 q 467 809 409 785 q 593 833 526 833 q 731 805 673 833 q 824 735 788 777 l 767 660 q 753 647 761 654 q 731 640 744 640 q 707 646 717 640 q 684 660 697 652 q 653 674 672 667 q 604 680 635 680 q 498 634 534 680 q 463 508 463 588 q 472 435 463 467 q 498 381 481 403 q 538 349 515 360 q 589 338 561 338 q 641 343 622 338 q 672 356 660 349 q 694 369 685 363 q 717 376 703 376 m 61 506 q 80 644 61 578 q 132 767 98 710 q 213 872 165 824 q 317 952 260 919 q 441 1005 375 986 q 578 1023 506 1023 q 716 1005 649 1023 q 839 952 782 986 q 944 872 897 919 q 1025 767 992 824 q 1077 644 1059 710 q 1096 506 1096 578 q 1077 369 1096 435 q 1025 246 1059 303 q 944 142 992 189 q 839 61 897 94 q 716 9 782 27 q 578 -10 649 -10 q 441 9 506 -10 q 317 61 375 27 q 213 142 260 94 q 132 246 165 189 q 80 369 98 303 q 61 506 61 435 m 176 506 q 207 342 176 418 q 292 209 238 265 q 420 120 347 152 q 578 88 493 88 q 737 120 663 88 q 866 209 811 152 q 952 342 921 265 q 983 506 983 418 q 969 619 983 565 q 929 720 955 674 q 866 806 903 767 q 784 872 829 844 q 687 914 739 899 q 578 928 635 928 q 420 896 493 928 q 292 806 347 863 q 207 672 238 749 q 176 506 176 594 z "},"℗":{"ha":1138,"x_min":61,"x_max":1096,"o":"m 586 512 q 639 518 619 512 q 667 537 658 525 q 680 566 677 549 q 682 601 682 582 q 680 634 682 619 q 669 661 677 649 q 644 678 660 672 q 600 685 628 685 l 542 685 l 542 512 l 586 512 m 600 821 q 720 803 669 821 q 802 755 770 785 q 850 685 835 725 q 865 601 865 645 q 850 519 865 558 q 802 450 835 480 q 720 401 770 419 q 600 383 669 383 l 542 383 l 542 195 l 356 195 l 356 821 l 600 821 m 578 88 q 737 120 663 88 q 866 209 811 152 q 952 342 921 265 q 983 506 983 418 q 969 619 983 565 q 929 720 955 674 q 866 806 903 767 q 784 872 829 844 q 687 914 739 899 q 578 928 635 928 q 420 896 493 928 q 292 806 347 863 q 207 672 238 749 q 176 506 176 594 q 207 342 176 418 q 292 209 238 265 q 420 120 347 152 q 578 88 493 88 m 578 1023 q 716 1005 649 1023 q 839 952 782 986 q 944 872 897 919 q 1025 767 992 824 q 1077 644 1059 710 q 1096 506 1096 578 q 1077 369 1096 435 q 1025 246 1059 303 q 944 142 992 189 q 839 61 897 94 q 716 9 782 27 q 578 -10 649 -10 q 441 9 506 -10 q 317 61 375 27 q 213 142 260 94 q 132 246 165 189 q 80 369 98 303 q 61 506 61 435 q 80 644 61 578 q 132 767 98 710 q 213 872 165 824 q 317 952 260 919 q 441 1005 375 986 q 578 1023 506 1023 z "},"®":{"ha":1138,"x_min":61,"x_max":1096,"o":"m 565 533 q 618 538 599 533 q 647 553 637 543 q 659 577 656 563 q 661 611 661 592 q 659 643 661 629 q 648 666 656 656 q 623 680 640 675 q 579 685 607 685 l 521 685 l 521 533 l 565 533 m 872 215 q 953 345 924 271 q 983 506 983 419 q 969 619 983 565 q 929 720 955 674 q 866 806 903 767 q 784 872 829 844 q 687 914 739 899 q 578 928 635 928 q 420 896 493 928 q 292 806 347 863 q 207 672 238 749 q 176 506 176 594 q 207 342 176 418 q 292 209 238 265 q 420 120 347 152 q 578 88 493 88 q 728 116 658 88 q 852 195 798 144 l 701 195 q 649 222 663 195 l 585 383 q 569 400 579 395 q 543 405 560 405 l 521 405 l 521 195 l 335 195 l 335 821 l 579 821 q 699 808 649 821 q 782 772 749 796 q 829 714 814 749 q 844 635 844 679 q 838 579 844 606 q 816 530 831 552 q 780 489 802 507 q 726 459 757 471 q 759 432 746 449 q 785 393 773 415 l 872 215 m 578 1023 q 716 1005 649 1023 q 839 952 782 986 q 944 872 897 919 q 1025 767 992 824 q 1077 644 1059 710 q 1096 506 1096 578 q 1077 369 1096 435 q 1025 246 1059 303 q 944 142 992 189 q 839 61 897 94 q 716 9 782 27 q 578 -10 649 -10 q 441 9 506 -10 q 317 61 375 27 q 213 142 260 94 q 132 246 165 189 q 80 369 98 303 q 61 506 61 435 q 80 644 61 578 q 132 767 98 710 q 213 872 165 824 q 317 952 260 919 q 441 1005 375 986 q 578 1023 506 1023 z "},"™":{"ha":981,"x_min":105,"x_max":972,"o":"m 339 897 l 301 586 l 160 586 l 198 897 l 105 897 l 120 1010 l 448 1010 l 433 897 l 339 897 m 972 1010 l 920 586 l 795 586 l 817 768 l 835 841 l 737 653 q 714 631 727 639 q 684 624 701 624 l 665 624 q 637 631 649 624 q 620 653 626 639 l 571 836 l 569 768 l 548 586 l 424 586 l 476 1010 l 599 1010 q 614 1010 608 1010 q 625 1007 620 1009 q 634 1001 630 1005 q 642 990 638 997 l 678 833 q 693 777 688 806 q 707 805 699 791 q 723 833 714 819 l 801 990 q 812 1001 807 997 q 823 1007 817 1005 q 834 1010 828 1009 q 849 1010 840 1010 l 972 1010 z "},"℠":{"ha":994,"x_min":84,"x_max":986,"o":"m 394 913 q 379 899 386 903 q 363 895 372 895 q 347 899 354 895 q 330 907 339 903 q 310 915 322 911 q 285 919 299 919 q 263 912 273 919 q 252 892 252 906 q 263 877 252 883 q 291 866 274 872 q 326 854 307 861 q 362 833 346 847 q 390 800 378 820 q 401 747 401 779 q 389 682 401 713 q 354 628 376 651 q 299 592 331 605 q 227 578 267 578 q 189 583 209 578 q 149 595 168 588 q 112 614 129 603 q 84 637 95 624 l 126 699 q 140 710 132 706 q 157 715 149 715 q 176 710 167 715 q 195 700 185 706 q 216 689 204 694 q 244 684 228 684 q 267 693 260 684 q 274 715 274 701 q 263 734 274 728 q 235 746 252 741 q 200 758 219 751 q 165 776 181 764 q 137 810 148 789 q 126 865 126 831 q 138 925 126 897 q 172 975 150 953 q 226 1009 194 997 q 297 1022 258 1022 q 372 1009 337 1022 q 427 976 407 997 l 394 913 m 986 1011 l 934 587 l 810 587 l 831 769 l 848 838 l 751 653 q 699 624 733 624 l 678 624 q 635 653 646 624 l 585 836 l 583 769 l 562 587 l 438 587 l 490 1011 l 613 1011 q 628 1010 622 1011 q 639 1008 635 1010 q 648 1001 644 1006 q 656 990 651 997 l 692 833 q 701 806 697 819 q 708 778 704 792 q 721 806 714 792 q 738 833 728 819 l 815 990 q 837 1008 828 1004 q 863 1011 846 1011 l 986 1011 z "},"°":{"ha":576,"x_min":76,"x_max":583,"o":"m 76 777 q 95 874 76 828 q 149 952 115 919 q 229 1005 183 985 q 328 1024 275 1024 q 428 1005 382 1024 q 509 952 475 985 q 563 874 544 919 q 583 777 583 828 q 563 682 583 727 q 509 604 544 638 q 428 551 475 571 q 328 531 382 531 q 229 551 275 531 q 149 604 183 571 q 95 682 115 638 q 76 777 76 727 m 224 776 q 232 733 224 753 q 253 698 240 713 q 286 675 267 683 q 328 667 306 667 q 370 675 351 667 q 403 698 390 683 q 425 733 417 713 q 433 776 433 753 q 425 820 433 799 q 403 855 417 840 q 370 879 390 870 q 328 888 351 888 q 286 879 306 888 q 253 855 267 870 q 232 820 240 840 q 224 776 224 799 z "},"¤":{"ha":806,"x_min":67,"x_max":747,"o":"m 407 358 q 449 366 429 358 q 483 390 468 375 q 506 426 497 406 q 514 468 514 446 q 506 512 514 492 q 483 547 497 532 q 449 571 468 563 q 407 580 429 580 q 366 571 385 580 q 332 547 347 563 q 310 512 318 532 q 301 468 301 492 q 310 426 301 446 q 332 390 318 406 q 366 366 347 375 q 407 358 385 358 m 639 135 l 535 238 q 474 214 506 222 q 407 206 442 206 q 343 213 374 206 q 285 235 312 221 l 178 131 l 71 235 l 176 339 q 152 400 160 368 q 143 468 143 433 q 151 533 143 502 q 174 593 159 565 l 67 699 l 175 801 l 279 699 q 340 722 308 714 q 407 731 372 731 q 471 723 440 731 q 530 701 502 715 l 636 806 l 743 701 l 638 597 q 662 536 653 568 q 671 468 671 503 q 663 403 671 434 q 640 344 655 372 l 747 238 l 639 135 z "},"€":{"ha":806,"x_min":11,"x_max":835,"o":"m 47 657 l 128 657 q 199 808 155 741 q 300 922 242 875 q 425 995 357 969 q 568 1020 493 1020 q 658 1010 617 1020 q 732 981 699 1000 q 791 936 765 963 q 835 878 817 910 l 751 801 q 732 786 742 792 q 706 779 722 779 q 687 784 694 779 q 671 797 679 790 q 654 813 663 804 q 632 830 645 822 q 600 842 619 837 q 554 847 581 847 q 427 799 483 847 q 340 657 371 750 l 671 657 l 664 594 q 643 562 660 578 q 600 547 626 547 l 314 547 q 310 514 312 531 q 307 479 308 497 l 583 479 l 575 418 q 568 400 574 409 q 555 384 563 391 q 536 373 547 377 q 513 369 525 369 l 308 369 q 357 215 316 267 q 463 163 397 163 q 535 175 508 163 q 581 202 563 188 q 613 230 599 217 q 643 242 626 242 q 659 240 653 242 q 671 230 665 238 l 751 149 q 611 31 694 71 q 431 -10 529 -10 q 288 18 349 -10 q 185 97 227 47 q 120 217 143 147 q 92 369 97 286 l 11 369 l 25 479 l 94 479 q 98 513 96 497 q 102 547 99 530 l 33 547 l 47 657 z "},"$":{"ha":806,"x_min":-7,"x_max":807,"o":"m 415 159 q 518 206 484 169 q 553 303 553 242 q 529 361 553 340 q 467 399 505 383 l 415 159 m 439 849 q 376 833 401 844 q 334 806 350 822 q 311 771 318 790 q 304 730 304 751 q 328 669 304 693 q 390 629 352 646 l 439 849 m 508 588 q 597 557 553 574 q 677 513 642 540 q 734 447 712 486 q 756 351 756 408 q 730 219 756 282 q 655 108 703 157 q 536 28 606 59 q 378 -10 466 -3 l 358 -100 q 351 -118 357 -109 q 338 -133 346 -126 q 319 -144 329 -140 q 297 -148 308 -148 l 221 -148 l 252 -4 q 176 14 213 2 q 106 42 139 26 q 43 78 72 58 q -7 122 15 99 l 69 215 q 93 234 79 226 q 124 242 108 242 q 156 233 140 242 q 191 211 172 224 q 234 185 210 198 q 289 163 258 172 l 349 435 q 260 466 304 449 q 182 510 217 483 q 126 580 147 538 q 104 685 104 622 q 130 806 104 747 q 204 911 156 865 q 321 986 252 957 q 476 1019 390 1015 l 493 1098 q 514 1132 497 1117 q 554 1147 531 1147 l 631 1147 l 601 1012 q 724 967 674 998 q 807 901 774 937 l 747 826 q 721 802 733 809 q 692 794 708 794 q 668 800 681 794 q 639 813 655 805 q 605 829 623 821 q 565 844 586 838 l 508 588 z "},"¢":{"ha":806,"x_min":58,"x_max":756,"o":"m 431 575 q 355 546 387 567 q 302 492 323 525 q 272 416 282 460 q 263 319 263 372 q 282 219 263 260 q 338 158 301 178 l 431 575 m 700 110 q 636 59 669 80 q 568 24 603 38 q 499 2 534 10 q 428 -8 463 -6 l 408 -98 q 387 -133 404 -117 q 347 -148 370 -148 l 271 -148 l 302 -5 q 204 32 249 6 q 127 98 160 58 q 76 192 94 138 q 58 310 58 245 q 86 469 58 395 q 165 600 113 544 q 293 690 217 656 q 464 728 368 724 l 486 828 q 494 845 488 837 q 507 861 499 854 q 525 873 515 868 q 547 877 535 877 l 624 877 l 589 719 q 682 684 641 707 q 756 625 722 660 l 693 554 q 674 537 683 542 q 649 532 665 532 q 629 535 639 532 q 609 544 619 539 q 585 556 598 550 q 556 567 572 562 l 461 142 q 515 156 493 147 q 555 174 538 165 q 586 190 572 183 q 615 197 600 197 q 651 181 642 197 l 700 110 z "},"£":{"ha":806,"x_min":-19,"x_max":821,"o":"m 634 460 q 627 442 633 451 q 614 426 622 433 q 595 415 606 419 q 572 410 584 410 l 334 410 l 321 296 q 301 218 315 252 q 260 153 286 183 q 327 166 294 161 q 394 170 361 170 l 754 170 l 743 87 q 733 56 741 72 q 711 28 724 41 q 681 8 699 16 q 644 0 664 0 l -19 0 l -3 125 q 69 161 44 135 q 100 240 94 188 l 121 410 l 19 410 l 30 492 q 36 509 31 501 q 50 525 42 518 q 69 536 58 532 q 92 541 80 541 l 137 541 l 156 694 q 193 820 164 760 q 272 924 223 879 q 388 995 321 969 q 539 1022 456 1022 q 646 1008 600 1022 q 726 969 692 994 q 783 911 760 945 q 821 836 806 876 l 731 783 q 675 770 701 769 q 629 795 649 772 q 606 822 617 810 q 583 840 595 833 q 555 850 571 847 q 518 853 540 853 q 418 812 458 853 q 368 696 377 772 l 349 541 l 644 541 l 634 460 l 634 460 z "},"¥":{"ha":806,"x_min":51,"x_max":883,"o":"m 539 442 l 716 442 l 702 331 l 492 331 l 484 270 l 694 270 l 680 160 l 471 160 l 451 0 l 244 0 l 263 160 l 51 160 l 66 270 l 276 270 l 284 331 l 73 331 l 87 442 l 263 442 l 60 1010 l 234 1010 q 279 997 263 1010 q 302 961 296 983 l 388 656 q 405 591 399 621 q 415 532 412 561 q 439 591 425 561 q 472 656 453 622 l 628 961 q 659 995 639 981 q 708 1010 679 1010 l 883 1010 l 539 442 z "},"℅":{"ha":1131,"x_min":24,"x_max":1099,"o":"m 849 980 q 877 1001 861 992 q 919 1011 892 1011 l 1070 1011 l 244 29 q 216 8 233 17 q 179 0 200 0 l 24 0 l 849 980 m 384 656 q 404 647 396 656 l 458 581 q 376 516 424 537 q 268 494 328 494 q 177 512 217 494 q 112 561 138 530 q 72 633 85 592 q 59 722 59 674 q 81 843 59 788 q 140 940 102 899 q 229 1003 178 981 q 339 1026 280 1026 q 438 1005 396 1026 q 500 953 479 985 l 437 882 q 424 870 431 875 q 404 865 417 865 q 386 869 392 865 q 373 880 380 874 q 354 890 365 885 q 322 895 343 895 q 281 884 299 895 q 249 853 263 874 q 228 803 235 833 q 220 735 220 773 q 242 652 220 682 q 296 623 264 623 q 328 627 314 623 q 358 646 342 631 q 370 653 364 650 q 384 656 377 656 m 1099 286 q 1077 172 1099 226 q 1015 77 1054 117 q 920 13 975 36 q 802 -11 866 -11 q 705 8 748 -11 q 632 58 662 26 q 586 133 602 90 q 570 224 570 176 q 592 339 570 285 q 654 433 615 392 q 748 497 694 474 q 867 521 803 521 q 965 502 922 521 q 1038 451 1008 483 q 1083 377 1067 419 q 1099 286 1099 334 m 938 281 q 917 361 938 331 q 851 390 895 390 q 798 379 821 390 q 761 346 776 367 q 738 294 746 324 q 731 228 731 265 q 752 149 731 178 q 819 119 774 119 q 908 163 878 119 q 938 281 938 207 z "},"№":{"ha":1540,"x_min":61,"x_max":1538,"o":"m 1313 892 q 1247 858 1269 892 q 1224 768 1224 824 q 1240 708 1224 730 q 1289 685 1256 685 q 1355 719 1333 685 q 1377 808 1377 752 q 1361 869 1377 847 q 1313 892 1345 892 m 1273 550 q 1186 567 1224 550 q 1120 612 1147 583 q 1080 679 1094 641 q 1065 759 1065 717 q 1085 861 1065 813 q 1140 945 1105 909 q 1225 1002 1176 981 q 1331 1023 1274 1023 q 1418 1006 1379 1023 q 1483 961 1456 990 q 1523 895 1509 933 q 1538 814 1538 857 q 1518 713 1538 760 q 1463 628 1498 665 q 1378 571 1427 592 q 1273 550 1330 550 m 806 1011 l 1006 1011 l 881 0 l 763 0 q 720 8 737 0 q 690 38 703 17 l 334 651 q 331 602 333 626 q 326 558 329 578 l 260 0 l 61 0 l 185 1011 l 304 1011 q 329 1010 319 1011 q 347 1005 339 1008 q 361 994 354 1001 q 375 976 367 987 l 733 359 q 736 411 735 385 q 741 460 738 438 l 806 1011 m 1037 494 l 1492 494 l 1474 352 l 1019 352 l 1037 494 z "},"#":{"ha":806,"x_min":-5,"x_max":837,"o":"m 492 591 l 373 591 l 322 421 l 442 421 l 492 591 m 837 735 l 809 651 q 777 606 799 620 q 710 591 754 591 l 662 591 l 611 421 l 691 421 q 734 403 722 421 q 733 340 745 385 l 713 276 l 574 276 l 491 0 l 394 0 q 368 7 380 0 q 350 25 357 13 q 342 51 344 36 q 347 83 341 66 l 404 276 l 284 276 l 224 72 q 208 39 219 53 q 184 16 197 25 q 155 4 170 8 q 123 0 139 0 l 30 0 l 114 276 l 49 276 q 7 294 18 276 q 8 357 -5 313 l 27 421 l 151 421 l 202 591 l 62 591 l 88 675 q 121 720 99 706 q 188 735 143 735 l 240 735 l 302 944 q 339 993 313 975 q 398 1010 365 1010 l 494 1010 l 410 735 l 529 735 l 613 1010 l 706 1010 q 734 1005 722 1010 q 754 991 747 1000 q 764 969 762 982 q 762 942 767 957 l 700 735 l 837 735 z "},"₀":{"ha":464,"x_min":-15,"x_max":398,"o":"m 398 152 q 378 13 398 72 q 326 -85 359 -46 q 250 -143 293 -124 q 158 -162 206 -162 q 89 -149 120 -162 q 34 -109 57 -136 q -2 -42 11 -83 q -15 52 -15 -2 q 5 192 -15 133 q 56 291 24 251 q 131 349 88 330 q 223 368 174 368 q 293 355 261 368 q 348 315 325 342 q 385 247 372 288 q 398 152 398 206 m 251 169 q 248 213 251 197 q 239 238 244 229 q 225 250 233 247 q 208 253 217 253 q 182 248 195 253 q 158 220 169 242 q 140 155 147 198 q 133 39 133 113 q 135 -6 133 11 q 143 -32 138 -23 q 156 -45 149 -42 q 172 -48 163 -48 q 203 -40 189 -48 q 228 -8 218 -31 q 245 58 239 16 q 251 169 251 101 z "},"₁":{"ha":464,"x_min":22,"x_max":338,"o":"m 338 -53 l 326 -157 l 27 -157 l 41 -53 l 131 -53 l 155 150 l 163 187 l 123 158 q 102 149 112 151 q 83 149 92 147 q 68 156 75 151 q 59 165 62 160 l 22 226 l 205 363 l 330 363 l 278 -53 l 338 -53 z "},"₂":{"ha":464,"x_min":-38,"x_max":390,"o":"m 322 -28 q 356 -40 344 -28 q 365 -72 368 -51 l 355 -157 l -38 -157 l -31 -110 q -23 -82 -30 -97 q -1 -54 -15 -66 l 155 83 q 187 115 172 98 q 214 150 202 133 q 232 184 225 167 q 238 215 238 201 q 231 242 238 231 q 208 253 224 253 q 181 245 192 253 q 160 222 171 238 q 147 206 153 213 q 132 197 140 200 q 113 192 124 193 q 88 194 103 192 l 8 207 q 90 329 31 290 q 230 368 149 368 q 300 357 270 368 q 350 327 331 346 q 380 283 370 308 q 390 231 390 258 q 379 172 390 199 q 351 123 369 146 q 310 78 333 99 q 263 34 288 56 l 179 -42 q 225 -32 203 -35 q 266 -28 248 -28 l 322 -28 z "},"₃":{"ha":464,"x_min":-24,"x_max":388,"o":"m 16 207 q 48 279 27 249 q 98 329 69 309 q 159 358 126 349 q 230 368 193 368 q 299 357 269 368 q 348 328 328 346 q 378 288 368 310 q 388 242 388 265 q 370 166 388 197 q 306 117 352 135 q 353 84 338 106 q 369 27 369 62 q 349 -59 369 -23 q 300 -118 330 -94 q 232 -152 269 -141 q 158 -162 194 -162 q 92 -156 122 -162 q 40 -134 63 -150 q 1 -91 17 -118 q -24 -20 -15 -63 l 44 6 q 91 11 70 15 q 117 -10 111 6 q 136 -35 124 -27 q 165 -44 149 -44 q 205 -28 190 -44 q 220 15 220 -13 q 201 50 220 42 q 135 58 182 58 l 148 158 q 194 161 176 158 q 223 170 213 164 q 238 188 234 177 q 242 215 242 199 q 235 240 242 230 q 208 251 228 251 q 179 244 189 251 q 160 223 169 237 q 147 206 153 213 q 133 196 141 199 q 115 192 125 192 q 91 194 105 192 l 16 207 z "},"₄":{"ha":464,"x_min":-40,"x_max":392,"o":"m 211 58 l 219 130 q 226 170 222 149 q 236 216 230 192 l 104 58 l 211 58 m 392 58 l 382 -26 q 372 -44 380 -35 q 351 -52 364 -52 l 322 -52 l 308 -157 l 185 -157 l 197 -52 l 6 -52 q -23 -43 -13 -52 q -35 -22 -33 -35 l -40 49 l 229 363 l 372 363 l 335 58 l 392 58 z "},"₅":{"ha":464,"x_min":-28,"x_max":383,"o":"m 188 236 l 172 181 q 256 181 220 188 q 317 155 292 174 q 353 110 341 137 q 366 50 366 83 q 349 -34 366 5 q 300 -101 331 -73 q 226 -146 269 -130 q 133 -162 183 -162 q 39 -140 79 -162 q -28 -87 -1 -118 l 24 -28 q 42 -13 32 -18 q 62 -8 52 -8 q 84 -14 75 -8 q 102 -27 93 -20 q 124 -41 112 -35 q 156 -47 136 -47 q 201 -28 185 -47 q 216 24 216 -10 q 187 67 216 58 q 106 57 158 76 l 22 80 l 103 363 l 383 363 l 376 303 q 350 255 372 274 q 283 236 328 236 l 188 236 z "},"₆":{"ha":464,"x_min":-14,"x_max":397,"o":"m 179 -55 q 202 -50 190 -55 q 223 -35 213 -44 q 238 -12 232 -25 q 243 17 243 1 q 231 56 243 42 q 194 70 219 70 q 148 52 165 70 q 131 -1 131 33 q 143 -40 131 -25 q 179 -55 155 -55 m 256 219 q 218 188 240 203 q 175 153 197 172 q 213 170 193 164 q 254 176 232 176 q 298 169 275 176 q 339 147 320 162 q 370 106 358 131 q 382 45 382 81 q 365 -34 382 3 q 319 -100 349 -72 q 250 -145 290 -128 q 161 -162 209 -162 q 85 -150 118 -162 q 31 -114 53 -137 q -2 -61 9 -92 q -14 6 -14 -31 q 6 101 -14 58 q 64 187 26 144 l 188 331 q 220 353 199 344 q 268 363 242 363 l 397 363 l 256 219 z "},"₇":{"ha":464,"x_min":-4,"x_max":414,"o":"m 414 363 l 401 265 l 156 -157 l -4 -157 l 197 170 q 248 233 221 208 l 56 233 q 35 243 44 233 q 28 264 26 252 l 40 363 l 414 363 z "},"₈":{"ha":464,"x_min":-15,"x_max":383,"o":"m 172 -55 q 213 -36 201 -55 q 225 17 225 -17 q 217 45 225 35 q 186 56 209 56 q 146 41 157 56 q 135 -11 135 26 q 142 -42 135 -28 q 172 -55 150 -55 m 211 264 q 189 259 198 264 q 175 246 181 254 q 168 227 170 238 q 165 206 165 217 q 174 174 165 183 q 200 165 182 165 q 238 180 226 165 q 249 225 249 195 q 240 251 249 238 q 211 264 232 264 m 310 113 q 359 71 345 97 q 374 15 374 46 q 358 -57 374 -24 q 313 -114 342 -90 q 245 -150 285 -137 q 160 -162 206 -162 q 87 -152 119 -162 q 32 -123 55 -142 q -3 -78 9 -104 q -15 -21 -15 -52 q -11 21 -15 1 q 4 59 -6 41 q 33 91 15 76 q 78 115 51 105 q 29 206 29 144 q 45 271 29 241 q 87 322 60 301 q 149 356 114 344 q 225 368 185 368 q 289 358 260 368 q 339 330 318 348 q 372 289 360 313 q 383 237 383 265 q 365 163 383 194 q 310 113 347 131 z "},"₉":{"ha":464,"x_min":-16,"x_max":390,"o":"m 152 195 q 199 149 152 149 q 242 164 226 149 q 258 214 258 179 q 245 249 258 236 q 212 261 232 261 q 167 244 181 261 q 152 195 152 226 m 145 2 q 177 32 161 18 q 209 63 194 46 q 176 53 193 56 q 141 50 159 50 q 95 59 119 50 q 53 84 72 67 q 23 125 35 101 q 10 182 10 150 q 26 249 10 216 q 70 309 42 283 q 136 352 98 335 q 222 368 175 368 q 294 356 263 368 q 347 324 326 344 q 379 274 368 303 q 390 213 390 246 q 368 103 390 151 q 313 15 347 56 l 195 -125 q 162 -147 183 -137 q 116 -157 141 -157 l -16 -157 l 145 2 z "},"₊":{"ha":464,"x_min":6,"x_max":375,"o":"m 363 40 l 242 40 l 225 -90 l 108 -90 l 125 40 l 6 40 l 18 144 l 138 144 l 154 274 l 271 274 l 255 144 l 375 144 l 363 40 z "},"₋":{"ha":464,"x_min":16,"x_max":363,"o":"m 30 144 l 363 144 l 351 40 l 16 40 l 30 144 z "},"₌":{"ha":464,"x_min":8,"x_max":372,"o":"m 21 74 l 356 74 l 342 -28 l 8 -28 l 21 74 m 39 212 l 372 212 l 360 108 l 25 108 l 39 212 z "},"₍":{"ha":232,"x_min":-22,"x_max":204,"o":"m 105 23 q 106 -24 105 1 q 110 -74 108 -49 q 117 -123 113 -99 q 127 -167 122 -147 q 128 -201 135 -189 q 108 -220 120 -213 l 38 -259 q 12 -195 23 -229 q -7 -126 1 -162 q -18 -56 -14 -91 q -22 13 -22 -20 q 14 235 -22 131 q 124 440 49 340 l 184 402 q 199 383 194 394 q 190 349 204 371 q 130 197 154 279 q 105 23 105 115 z "},"₎":{"ha":232,"x_min":-56,"x_max":169,"o":"m 43 160 q 42 206 43 181 q 38 256 40 231 q 31 305 35 281 q 21 348 26 328 q 16 367 16 359 q 20 382 17 376 q 29 392 23 388 q 42 400 35 397 l 111 438 q 136 375 126 408 q 155 306 147 341 q 166 235 162 271 q 169 167 169 200 q 134 -56 169 49 q 24 -260 99 -160 l -35 -221 q -51 -202 -47 -214 q -42 -169 -56 -191 q 19 -16 -5 -99 q 43 160 43 67 z "},"⁄":{"ha":194,"x_min":-326,"x_max":538,"o":"m -130 59 q -155 30 -142 42 q -182 12 -168 19 q -210 3 -195 6 q -241 0 -224 0 l -326 0 l 335 942 q 388 993 359 975 q 453 1010 416 1010 l 538 1010 l -130 59 z "},"⅔":{"ha":1003,"x_min":57,"x_max":963,"o":"m 963 1010 l 295 59 q 270 30 283 42 q 243 12 257 19 q 215 3 230 6 q 184 0 201 0 l 99 0 l 444 492 l 57 492 l 64 538 q 73 567 65 551 q 94 594 80 583 l 250 731 q 282 764 267 747 q 309 799 297 781 q 327 833 320 816 q 333 864 333 849 q 326 891 333 880 q 303 902 319 902 q 276 894 287 902 q 256 870 266 886 q 242 855 249 861 q 227 845 235 849 q 208 841 219 842 q 183 842 198 840 l 103 856 q 185 978 126 939 q 325 1017 244 1017 q 395 1006 365 1017 q 445 976 426 994 q 475 932 465 957 q 485 879 485 907 q 474 821 485 847 q 446 771 464 794 q 406 726 428 748 q 358 683 383 705 l 274 606 q 320 617 298 613 q 361 621 343 621 l 417 621 q 451 609 440 621 q 460 577 463 597 l 451 502 l 760 942 q 813 993 784 975 q 878 1010 841 1010 l 963 1010 m 574 364 q 606 436 585 406 q 655 486 627 466 q 717 515 683 506 q 788 525 751 525 q 857 514 827 525 q 906 485 886 503 q 936 445 926 467 q 946 399 946 422 q 928 323 946 353 q 864 274 910 292 q 911 241 895 263 q 926 184 926 219 q 907 98 926 134 q 857 39 888 63 q 789 5 827 16 q 715 -6 751 -6 q 650 1 679 -6 q 598 23 621 7 q 559 66 575 39 q 533 137 542 94 l 601 163 q 648 168 628 172 q 675 147 669 163 q 694 122 681 130 q 722 113 706 113 q 763 128 747 113 q 778 172 778 144 q 759 207 778 199 q 693 215 740 215 l 706 315 q 752 318 733 315 q 781 327 770 321 q 796 345 792 334 q 800 372 800 356 q 793 397 800 387 q 765 408 785 408 q 736 401 747 408 q 718 380 726 394 q 705 363 711 369 q 691 353 699 356 q 673 349 683 349 q 649 351 663 349 l 574 364 z "},"⅖":{"ha":975,"x_min":55,"x_max":961,"o":"m 961 1010 l 293 59 q 268 30 281 42 q 241 12 255 19 q 213 3 228 6 q 182 0 199 0 l 97 0 l 442 492 l 55 492 l 62 538 q 70 567 63 551 q 92 594 78 583 l 248 731 q 280 764 265 747 q 307 799 295 781 q 325 833 318 816 q 331 864 331 849 q 324 891 331 880 q 301 902 317 902 q 274 894 285 902 q 253 870 264 886 q 240 855 247 861 q 225 845 233 849 q 206 841 217 842 q 181 842 196 840 l 101 856 q 183 978 124 939 q 323 1017 242 1017 q 393 1006 363 1017 q 443 976 424 994 q 473 932 463 957 q 483 879 483 907 q 472 821 483 847 q 444 771 462 794 q 403 726 426 748 q 356 683 381 705 l 272 606 q 318 617 296 613 q 359 621 341 621 l 415 621 q 449 609 438 621 q 458 577 461 597 l 449 502 l 758 942 q 810 993 782 975 q 876 1010 839 1010 l 961 1010 m 637 519 l 916 519 l 909 460 q 883 412 905 431 q 816 393 862 393 l 722 393 l 706 338 q 790 338 753 345 q 850 312 826 331 q 887 267 874 294 q 899 207 899 240 q 882 123 899 162 q 833 56 865 84 q 759 11 802 27 q 666 -6 717 -6 q 572 17 613 -6 q 505 70 532 39 l 558 129 q 575 144 565 139 q 595 149 585 149 q 617 143 608 149 q 636 130 626 137 q 657 116 645 122 q 690 110 669 110 q 734 129 719 110 q 749 181 749 147 q 720 224 749 215 q 640 214 692 233 l 555 237 l 637 519 z "},"+":{"ha":806,"x_min":55,"x_max":760,"o":"m 741 392 l 482 392 l 448 115 l 278 115 l 313 392 l 55 392 l 74 541 l 331 541 l 366 817 l 534 817 l 500 541 l 760 541 l 741 392 z "},"−":{"ha":806,"x_min":83,"x_max":731,"o":"m 101 541 l 731 541 l 711 392 l 83 392 l 101 541 z "},"×":{"ha":806,"x_min":40,"x_max":758,"o":"m 515 467 l 717 237 l 594 132 l 394 360 l 136 131 l 40 235 l 300 467 l 108 685 l 231 791 l 421 574 l 663 790 l 758 684 l 515 467 z "},"÷":{"ha":806,"x_min":54,"x_max":760,"o":"m 74 541 l 760 541 l 740 392 l 54 392 l 74 541 m 317 700 q 327 751 317 727 q 357 792 338 774 q 399 820 375 810 q 451 830 424 830 q 494 822 474 830 q 527 800 513 814 q 549 766 541 785 q 557 726 557 747 q 546 675 557 699 q 516 634 535 651 q 473 608 497 617 q 422 598 449 598 q 379 606 399 598 q 346 627 360 614 q 324 660 332 641 q 317 700 317 678 m 256 206 q 266 256 256 233 q 295 298 277 280 q 338 325 314 315 q 390 335 363 335 q 433 327 413 335 q 466 305 452 319 q 488 272 480 291 q 496 231 496 253 q 485 181 496 204 q 455 140 474 157 q 412 113 436 123 q 361 103 388 103 q 318 111 338 103 q 285 133 299 119 q 263 165 271 147 q 256 206 256 184 z "},"=":{"ha":806,"x_min":67,"x_max":746,"o":"m 86 415 l 715 415 l 696 266 l 67 266 l 86 415 m 118 667 l 746 667 l 728 517 l 99 517 l 118 667 z "},"≠":{"ha":806,"x_min":105,"x_max":705,"o":"m 558 811 l 705 811 l 252 110 l 105 110 l 558 811 z "},"≈":{"ha":806,"x_min":90,"x_max":719,"o":"m 576 640 q 622 645 599 640 q 662 657 644 650 q 694 672 681 664 q 713 684 707 679 l 719 557 q 639 503 686 519 q 543 488 591 488 q 470 498 506 488 q 401 521 435 508 q 335 544 367 533 q 274 554 303 554 q 226 549 249 554 q 185 535 203 543 q 153 519 166 528 q 135 505 140 511 l 121 628 q 205 686 156 669 q 307 704 255 704 q 379 694 343 704 q 449 672 415 684 q 515 650 483 660 q 576 640 547 640 m 544 383 q 590 389 567 383 q 631 401 612 394 q 663 416 649 408 q 681 428 676 424 l 688 301 q 607 249 654 265 q 511 233 559 233 q 439 243 474 233 q 369 266 403 253 q 303 288 335 278 q 242 298 272 298 q 195 293 218 298 q 153 280 172 288 q 121 265 135 273 q 103 251 108 257 l 90 373 q 173 432 124 413 q 275 450 223 450 q 348 440 312 450 q 417 417 383 429 q 483 394 451 404 q 544 383 515 383 z "},"<":{"ha":806,"x_min":101,"x_max":710,"o":"m 710 805 l 691 656 q 679 626 689 640 q 649 603 669 613 l 440 497 q 356 469 402 479 q 433 441 401 458 l 618 334 q 642 311 635 325 q 646 282 648 298 l 626 133 l 101 426 l 108 490 l 111 510 l 710 805 z "},">":{"ha":806,"x_min":106,"x_max":715,"o":"m 708 448 l 705 426 l 106 133 l 125 282 q 137 311 127 298 q 167 334 147 325 l 376 441 q 460 469 413 458 q 419 481 438 474 q 383 497 399 488 l 198 603 q 174 626 180 613 q 170 656 168 640 l 189 805 l 715 510 l 708 448 z "},"±":{"ha":806,"x_min":16,"x_max":774,"o":"m 34 205 l 720 205 l 701 56 l 16 56 l 34 205 m 774 643 l 755 494 l 497 494 l 469 269 l 301 269 l 328 494 l 70 494 l 88 643 l 347 643 l 376 879 l 544 879 l 515 643 l 774 643 z "},"≤":{"ha":806,"x_min":69,"x_max":733,"o":"m 733 874 l 715 731 q 702 700 713 715 q 663 675 692 685 l 466 594 q 373 569 422 578 q 419 557 397 563 q 460 542 440 551 l 638 458 q 670 433 663 447 q 675 402 677 418 l 657 259 l 127 526 l 130 547 l 138 610 l 733 874 m 89 210 l 651 210 l 631 56 l 69 56 l 89 210 z "},"≥":{"ha":806,"x_min":84,"x_max":716,"o":"m 104 210 l 667 210 l 647 56 l 84 56 l 104 210 m 716 610 l 713 589 l 705 526 l 110 259 l 128 402 q 141 433 130 418 q 181 458 151 447 l 376 542 q 421 557 398 551 q 469 569 444 563 q 383 594 423 578 l 205 675 q 172 700 178 685 q 167 731 165 715 l 185 874 l 716 610 z "},"¬":{"ha":806,"x_min":81,"x_max":728,"o":"m 685 199 l 510 199 l 534 392 l 81 392 l 99 541 l 728 541 l 685 199 z "},"℮":{"ha":1126,"x_min":64,"x_max":1090,"o":"m 800 658 q 786 756 800 713 q 747 830 773 799 q 681 876 720 860 q 592 892 642 892 q 505 875 544 892 q 437 827 465 858 q 393 753 409 797 q 378 656 378 709 l 378 626 l 800 626 l 800 658 m 378 381 q 396 278 378 325 q 448 196 414 231 q 530 142 481 161 q 639 122 578 122 q 721 131 681 122 q 797 157 760 139 q 865 205 833 176 q 926 276 898 234 l 1042 197 q 967 107 1009 147 q 871 40 926 67 q 747 -2 816 13 q 590 -16 677 -16 q 372 21 469 -16 q 206 126 275 58 q 101 288 138 194 q 64 498 64 383 q 81 638 64 571 q 131 763 99 705 q 209 868 163 821 q 313 950 256 916 q 439 1002 371 983 q 582 1020 506 1020 q 739 1000 668 1020 q 865 944 810 980 q 962 859 921 908 q 1031 752 1003 810 q 1073 629 1058 694 q 1090 497 1088 564 l 378 497 l 378 381 z "},"ℓ":{"ha":805,"x_min":25,"x_max":810,"o":"m 572 869 q 508 843 541 869 q 445 774 475 818 q 390 672 415 731 q 351 545 365 613 q 463 601 412 571 q 551 664 514 631 q 608 731 588 697 q 628 801 628 766 q 613 850 628 832 q 572 869 599 869 m 25 450 q 82 461 54 456 q 138 475 110 467 q 169 611 148 544 q 220 740 190 679 q 292 853 251 801 q 381 943 332 905 q 485 1003 429 981 q 604 1024 542 1024 q 693 1008 655 1024 q 758 963 732 992 q 797 895 784 934 q 810 811 810 856 q 775 682 810 742 q 678 569 741 622 q 528 472 616 517 q 335 392 441 428 q 341 278 335 323 q 357 208 347 234 q 381 173 367 183 q 414 163 396 163 q 457 175 436 163 q 497 207 478 188 q 530 249 515 226 q 554 296 544 273 l 732 255 q 674 148 710 196 q 591 65 638 99 q 487 11 544 30 q 367 -8 430 -8 q 275 10 317 -8 q 202 68 233 28 q 152 173 171 108 q 131 332 134 238 q 91 322 111 326 q 51 313 72 318 l 25 450 z "},"∞":{"ha":935,"x_min":36,"x_max":894,"o":"m 719 411 q 719 456 722 438 q 707 485 715 474 q 687 501 699 496 q 663 506 675 506 q 605 479 631 506 q 551 412 578 452 q 569 374 560 392 q 589 344 578 357 q 612 324 599 331 q 640 317 624 317 q 666 322 653 317 q 690 338 679 326 q 708 367 701 349 q 719 411 716 385 m 267 317 q 325 343 299 317 q 378 410 352 370 q 361 448 370 431 q 341 478 352 465 q 318 498 331 491 q 290 506 306 506 q 264 501 276 506 q 240 485 251 496 q 221 456 229 474 q 210 411 213 438 q 211 367 207 385 q 223 338 215 349 q 242 322 231 326 q 267 317 254 317 m 692 673 q 777 653 738 673 q 843 599 816 634 q 882 516 869 565 q 887 411 894 468 q 856 306 880 353 q 796 223 831 258 q 717 168 760 188 q 627 149 673 149 q 565 157 592 149 q 516 181 538 166 q 477 216 494 196 q 446 259 460 236 q 404 216 426 236 q 356 181 382 196 q 301 157 331 166 q 236 149 271 149 q 152 168 190 149 q 87 223 113 188 q 48 306 60 258 q 43 411 36 353 q 74 516 50 468 q 134 599 99 565 q 212 653 169 634 q 301 673 256 673 q 364 664 336 673 q 414 641 392 656 q 453 606 435 626 q 484 563 470 585 q 525 606 503 585 q 573 641 547 626 q 628 664 599 656 q 692 673 658 673 z "},"∂":{"ha":766,"x_min":9,"x_max":765,"o":"m 314 150 q 364 162 338 150 q 416 203 390 174 q 465 278 441 231 q 508 394 488 324 q 499 440 505 418 q 481 478 492 462 q 451 505 469 495 q 406 515 433 515 q 340 499 368 515 q 291 454 311 483 q 258 385 270 425 q 240 297 245 344 q 251 188 231 226 q 314 150 270 150 m 232 926 q 292 965 262 947 q 356 995 323 983 q 426 1014 389 1008 q 509 1021 464 1021 q 621 994 571 1021 q 705 917 672 967 q 751 794 738 866 q 753 631 765 722 q 696 365 735 483 q 596 163 656 246 q 453 34 535 79 q 269 -11 372 -11 q 157 10 207 -11 q 73 72 106 32 q 24 167 39 111 q 17 294 9 224 q 63 445 27 376 q 150 566 98 515 q 268 647 202 617 q 403 676 333 676 q 497 659 459 676 q 558 613 534 643 l 560 629 q 563 730 567 687 q 544 801 558 773 q 508 843 530 829 q 458 857 485 857 q 417 850 438 857 q 377 835 396 843 q 341 819 358 826 q 312 813 324 813 q 289 819 300 813 q 269 846 278 826 l 232 926 z "},"∫":{"ha":561,"x_min":-66,"x_max":633,"o":"m 225 854 q 259 980 234 927 q 321 1068 283 1033 q 408 1120 358 1103 q 516 1137 457 1137 q 573 1131 542 1137 q 633 1111 604 1125 l 622 1024 q 618 1005 620 1013 q 610 992 616 997 q 594 983 604 986 q 567 980 584 980 q 503 973 528 980 q 463 951 478 966 q 440 914 447 937 q 430 860 433 892 l 342 50 q 308 -76 332 -23 q 246 -165 283 -130 q 159 -217 208 -200 q 51 -233 110 -233 q -7 -227 24 -233 q -66 -207 -37 -222 l -55 -119 q -52 -101 -54 -109 q -43 -87 -49 -93 q -27 -79 -37 -82 q -1 -76 -17 -76 q 64 -69 39 -76 q 104 -48 89 -62 q 126 -11 119 -33 q 137 44 133 12 l 225 854 z "},"√":{"ha":858,"x_min":22,"x_max":955,"o":"m 955 1183 l 430 0 l 255 0 l 149 436 l 92 436 q 63 440 76 436 q 40 454 49 444 q 26 480 31 464 q 24 517 22 495 l 33 581 l 287 581 q 323 571 309 581 q 340 545 336 560 l 366 373 q 376 307 373 340 q 378 239 378 274 q 396 292 386 265 q 417 348 406 319 l 756 1145 q 780 1172 764 1161 q 817 1183 797 1183 l 955 1183 z "},"∏":{"ha":991,"x_min":72,"x_max":1015,"o":"m 994 843 l 889 843 l 757 -230 l 543 -230 l 674 843 l 418 843 l 286 -230 l 72 -230 l 204 843 l 97 843 l 118 1010 l 1015 1010 l 994 843 z "},"∑":{"ha":879,"x_min":-36,"x_max":896,"o":"m 874 838 l 418 838 l 655 422 l 647 361 l 308 -55 l 765 -55 l 743 -228 l -36 -228 l -27 -157 q -17 -125 -25 -142 q 3 -96 -10 -109 l 417 394 l 122 877 q 109 908 112 891 q 108 940 106 925 l 117 1012 l 896 1012 l 874 838 z "},"◊":{"ha":806,"x_min":81,"x_max":747,"o":"m 576 510 l 442 813 q 414 888 425 855 q 386 813 403 855 l 256 510 l 386 207 q 401 167 394 185 q 414 132 408 149 q 426 167 419 149 q 442 207 433 185 l 576 510 m 747 510 l 489 -49 l 339 -49 l 81 510 l 339 1068 l 489 1068 l 747 510 z "},"←":{"ha":1389,"x_min":59,"x_max":1319,"o":"m 59 452 l 476 866 l 551 792 q 569 749 574 771 q 545 707 565 726 l 451 603 q 407 562 428 581 q 367 529 387 544 q 484 540 424 536 q 606 544 544 544 l 1319 544 l 1319 358 l 606 358 q 483 363 544 358 q 365 374 422 367 q 406 341 385 359 q 451 301 427 323 l 545 196 q 570 154 566 176 q 551 111 574 132 l 476 37 l 59 452 z "},"→":{"ha":1389,"x_min":69,"x_max":1330,"o":"m 1330 451 l 913 37 l 838 111 q 819 155 815 133 q 844 196 824 176 l 938 300 q 1022 374 983 343 q 905 363 966 367 q 783 358 844 358 l 69 358 l 69 544 l 783 544 q 906 540 844 544 q 1023 529 967 536 q 982 562 1003 544 q 938 602 961 580 l 844 707 q 819 749 823 726 q 838 792 815 771 l 913 866 l 1330 451 z "},"↑":{"ha":1042,"x_min":104,"x_max":938,"o":"m 938 686 l 860 614 q 815 596 838 592 q 772 619 792 600 l 678 724 q 602 804 633 768 q 614 692 610 750 q 618 576 618 634 l 618 -157 l 424 -157 l 424 576 q 428 693 424 635 q 440 805 432 751 q 406 767 424 787 q 365 724 387 747 l 270 619 q 227 596 250 599 q 182 613 204 592 l 104 686 l 522 1101 l 938 686 z "},"↓":{"ha":1042,"x_min":103,"x_max":937,"o":"m 937 169 l 519 -246 l 103 169 l 181 242 q 226 259 203 263 q 269 235 249 255 l 363 131 q 405 89 386 108 q 439 51 423 69 q 427 163 431 105 q 423 279 423 221 l 423 1012 l 617 1012 l 617 279 q 613 163 617 221 q 601 50 609 104 q 635 88 617 68 q 676 131 654 108 l 771 235 q 814 259 791 256 q 859 242 837 263 l 937 169 z "},"↗":{"ha":1042,"x_min":19,"x_max":979,"o":"m 979 944 l 979 358 l 870 360 q 826 378 839 360 q 813 424 813 397 l 813 572 q 814 630 813 603 q 818 681 815 657 q 743 593 783 638 q 661 508 703 549 l 156 -10 l 19 122 l 524 640 q 613 720 567 681 q 704 792 659 758 q 591 785 655 786 l 458 785 q 410 798 428 785 q 391 841 391 811 l 390 945 l 979 944 z "},"↖":{"ha":1042,"x_min":63,"x_max":1023,"o":"m 1023 122 l 885 -10 l 381 508 q 298 593 338 549 q 224 681 258 638 q 228 630 226 657 q 229 572 229 603 l 229 424 q 216 378 229 397 q 172 360 203 360 l 63 358 l 63 944 l 652 945 l 651 841 q 632 798 651 811 q 584 785 613 785 l 451 785 q 338 792 387 786 q 429 720 383 758 q 518 640 475 681 l 1023 122 z "},"↘":{"ha":1042,"x_min":19,"x_max":979,"o":"m 979 587 l 979 1 l 390 0 l 391 104 q 410 147 391 134 q 458 160 428 160 l 591 160 q 704 153 655 159 q 613 225 659 187 q 524 306 567 264 l 19 824 l 156 956 l 661 438 q 743 352 703 396 q 818 265 783 308 q 814 315 815 289 q 813 373 813 342 l 813 522 q 826 567 813 549 q 870 585 839 585 l 979 587 z "},"↙":{"ha":1042,"x_min":63,"x_max":1023,"o":"m 63 0 l 63 586 l 172 585 q 216 566 203 585 q 229 521 229 548 l 229 372 q 228 314 229 341 q 224 264 226 288 q 298 351 258 307 q 381 437 338 395 l 885 955 l 1023 823 l 518 305 q 429 225 475 263 q 338 153 383 186 q 451 159 387 158 l 584 159 q 632 147 613 160 q 651 103 651 133 l 652 -1 l 63 0 z "},"↔":{"ha":1389,"x_min":59,"x_max":1330,"o":"m 1330 451 l 913 37 l 838 111 q 819 155 815 133 q 844 196 824 176 l 938 300 q 1022 374 983 343 q 905 363 966 367 q 783 358 844 358 l 385 358 q 417 332 401 346 q 451 301 433 317 l 545 196 q 570 154 566 176 q 551 111 574 132 l 476 37 l 59 452 l 476 866 l 551 792 q 569 749 574 771 q 545 707 565 726 l 451 603 q 386 544 416 569 l 783 544 q 906 540 844 544 q 1023 529 967 536 q 982 562 1003 544 q 938 602 961 580 l 844 707 q 819 749 823 726 q 838 792 815 771 l 913 866 l 1330 451 z "},"↕":{"ha":1042,"x_min":104,"x_max":938,"o":"m 520 -246 l 104 169 l 182 242 q 227 259 204 263 q 270 235 250 255 l 364 131 q 424 69 398 98 l 424 576 q 428 692 424 634 q 440 805 432 751 q 405 767 424 787 q 365 724 387 747 l 270 619 q 227 596 250 599 q 182 613 204 592 l 104 686 l 522 1101 l 938 686 l 860 614 q 815 596 838 592 q 772 619 792 600 l 678 724 q 636 766 655 746 q 602 803 617 785 q 614 692 609 750 q 618 576 618 634 l 618 69 q 645 98 631 83 q 677 131 660 114 l 772 235 q 815 259 792 256 q 860 242 838 263 l 938 169 l 520 -246 z "},"Ơ":{"ha":1116,"x_min":45,"x_max":1190,"o":"m 499 169 q 624 198 569 169 q 718 278 679 226 q 777 403 756 331 q 798 565 798 476 q 783 679 798 628 q 739 766 768 730 q 669 823 710 803 q 574 842 627 842 q 450 814 505 842 q 357 733 395 785 q 298 607 318 681 q 277 445 277 534 q 292 332 277 383 q 334 245 306 281 q 404 189 363 209 q 499 169 446 169 m 1189 1115 q 1190 1095 1190 1108 q 1190 1074 1190 1082 q 1178 979 1190 1025 q 1142 895 1167 933 q 1078 829 1117 858 q 986 784 1040 800 q 1019 683 1008 736 q 1030 571 1030 629 q 1011 414 1030 489 q 957 274 992 339 q 872 157 922 210 q 760 67 822 104 q 626 9 699 30 q 474 -11 554 -11 q 295 24 374 -11 q 160 120 215 59 q 75 263 104 181 q 45 440 45 345 q 64 598 45 522 q 118 738 83 673 q 203 855 153 802 q 315 945 253 908 q 449 1002 377 982 q 602 1023 522 1023 q 790 984 708 1023 q 928 876 872 944 q 966 904 954 886 q 978 943 978 922 q 976 960 978 952 q 971 978 974 969 q 967 997 969 987 q 965 1020 965 1008 q 992 1091 965 1067 q 1082 1115 1020 1115 l 1189 1115 z "},"Ư":{"ha":1169,"x_min":67,"x_max":1257,"o":"m 1256 1115 q 1257 1095 1256 1108 q 1257 1074 1257 1082 q 1238 957 1257 1013 q 1180 859 1219 901 q 1078 792 1140 817 q 930 767 1017 767 l 886 410 q 837 241 874 318 q 741 107 800 163 q 603 20 681 51 q 431 -11 524 -11 q 266 20 337 -11 q 150 107 195 51 q 86 241 104 163 q 79 410 67 318 l 151 1012 l 378 1012 l 304 410 q 305 314 298 357 q 331 241 312 271 q 381 194 350 210 q 454 178 412 178 q 532 194 497 178 q 593 241 567 210 q 636 314 619 271 q 660 410 653 357 l 733 1012 l 960 1012 l 942 867 q 989 874 969 868 q 1020 891 1008 881 q 1039 915 1033 901 q 1044 943 1044 928 q 1042 960 1044 952 q 1038 978 1040 969 q 1033 997 1035 987 q 1031 1020 1031 1008 q 1059 1091 1031 1067 q 1149 1115 1087 1115 l 1256 1115 z "},"ơ":{"ha":811,"x_min":21,"x_max":883,"o":"m 326 149 q 391 170 363 149 q 439 230 419 192 q 470 318 459 268 q 481 426 481 369 q 459 538 481 504 q 390 572 438 572 q 326 550 354 572 q 277 490 297 528 q 247 402 258 453 q 236 294 236 351 q 257 183 236 217 q 326 149 278 149 m 881 830 q 883 811 883 824 q 883 792 883 799 q 872 702 883 745 q 837 623 860 659 q 776 561 813 588 q 685 521 738 534 q 696 427 696 478 q 664 252 696 333 q 579 114 633 172 q 455 22 526 55 q 307 -11 385 -11 q 194 9 247 -11 q 103 68 142 29 q 43 163 65 106 q 21 293 21 219 q 52 469 21 389 q 138 608 84 549 q 261 699 191 666 q 410 731 332 731 q 549 700 486 731 q 649 608 611 669 q 682 635 672 618 q 692 671 692 653 q 689 687 692 679 q 683 704 686 695 q 677 723 680 713 q 674 746 674 733 q 700 808 674 786 q 783 830 726 830 l 881 830 z "},"ư":{"ha":908,"x_min":34,"x_max":984,"o":"m 983 830 q 984 811 983 824 q 984 792 984 799 q 969 688 984 738 q 921 600 954 638 q 835 537 888 561 q 707 509 782 513 l 645 0 l 535 0 q 459 71 459 0 l 459 117 q 347 20 407 51 q 223 -11 288 -11 q 141 7 178 -11 q 80 60 104 25 q 44 146 55 95 q 42 263 34 197 l 97 720 l 312 720 l 258 263 q 255 214 254 234 q 263 182 256 194 q 280 164 269 169 q 306 159 290 159 q 352 172 328 159 q 398 208 376 185 q 439 265 420 231 q 471 339 458 298 l 517 720 l 733 720 l 717 597 q 775 625 756 603 q 793 671 793 647 q 790 687 793 679 q 784 704 788 695 q 778 723 781 713 q 776 746 776 733 q 801 808 776 786 q 884 830 827 830 l 983 830 z "},"₫":{"ha":841,"x_min":-1,"x_max":844,"o":"m 15 -56 l 707 -56 l 691 -180 l -1 -180 l 15 -56 m 501 520 q 458 542 481 535 q 413 548 434 548 q 343 527 375 548 q 289 470 312 506 q 253 386 266 434 q 240 283 240 338 q 260 184 240 215 q 314 153 281 153 q 360 169 336 153 q 407 215 384 186 q 449 284 429 244 q 483 368 469 323 l 501 520 m 829 781 l 746 781 l 649 0 l 533 0 q 500 5 513 0 q 478 19 486 10 q 467 41 470 28 q 464 68 464 53 l 464 128 q 355 26 415 63 q 228 -11 295 -11 q 147 5 183 -11 q 83 53 110 20 q 41 139 56 87 q 26 263 26 190 q 55 438 26 357 q 133 578 84 519 q 245 672 181 638 q 378 706 308 706 q 457 692 422 706 q 518 655 492 678 l 534 781 l 469 781 q 412 797 428 781 q 403 851 397 813 l 411 905 l 550 905 l 567 1040 l 778 1040 l 761 905 l 844 905 l 829 781 z "},"○":{"ha":920,"x_min":82,"x_max":843,"o":"m 82 450 q 112 598 82 528 q 193 719 142 667 q 315 801 245 771 q 463 831 384 831 q 610 801 541 831 q 732 719 680 771 q 813 598 783 667 q 843 450 843 528 q 813 302 843 372 q 732 181 783 233 q 610 99 680 129 q 463 69 541 69 q 315 99 384 69 q 193 181 245 129 q 112 302 142 233 q 82 450 82 372 m 272 450 q 287 373 272 409 q 328 310 302 337 q 389 268 354 283 q 463 252 423 252 q 537 268 502 252 q 598 310 572 283 q 639 373 624 337 q 654 450 654 409 q 639 528 654 492 q 598 592 624 565 q 537 634 572 619 q 463 650 502 650 q 389 634 423 650 q 328 592 354 619 q 287 528 302 565 q 272 450 272 492 z "},"◌":{"ha":920,"x_min":73,"x_max":854,"o":"m 406 783 q 411 805 406 794 q 423 822 415 815 q 441 834 431 829 q 463 838 451 838 q 485 834 475 838 q 503 822 496 829 q 516 805 511 815 q 520 783 520 794 q 503 744 520 760 q 463 728 487 728 q 423 744 440 728 q 406 783 406 760 m 533 758 q 549 797 533 781 q 590 813 566 813 q 630 797 613 813 q 647 758 647 781 q 642 736 647 747 q 630 719 638 726 q 612 707 622 712 q 590 703 601 703 q 567 707 578 703 q 549 719 557 712 q 537 736 542 726 q 533 758 533 747 m 641 687 q 658 726 641 710 q 698 742 674 742 q 738 726 722 742 q 755 687 755 710 q 750 666 755 676 q 738 648 746 656 q 720 636 731 641 q 698 632 710 632 q 676 636 686 632 q 658 648 665 641 q 645 666 650 656 q 641 687 641 676 m 711 578 q 728 618 711 601 q 768 634 744 634 q 808 618 792 634 q 825 578 825 601 q 820 557 825 567 q 808 540 816 547 q 790 528 801 533 q 768 524 780 524 q 746 528 756 524 q 728 540 735 533 q 716 557 720 547 q 711 578 711 567 m 740 449 q 757 489 740 472 q 797 505 774 505 q 838 489 821 505 q 854 449 854 472 q 850 428 854 438 q 838 411 845 418 q 819 399 830 403 q 797 394 809 394 q 775 399 785 394 q 757 411 765 403 q 745 428 749 418 q 740 449 740 438 m 277 758 q 294 797 277 781 q 334 813 310 813 q 374 797 358 813 q 391 758 391 781 q 386 736 391 747 q 374 719 382 726 q 356 707 367 712 q 334 703 346 703 q 312 707 322 703 q 294 719 301 712 q 282 736 286 726 q 277 758 277 747 m 169 687 q 185 726 169 710 q 226 742 202 742 q 266 726 249 742 q 283 687 283 710 q 278 666 283 676 q 266 648 274 656 q 248 636 258 641 q 226 632 238 632 q 203 636 214 632 q 185 648 193 641 q 173 666 178 656 q 169 687 169 676 m 98 578 q 115 618 98 601 q 155 634 131 634 q 195 618 178 634 q 212 578 212 601 q 207 557 212 567 q 195 540 203 547 q 177 528 188 533 q 155 524 167 524 q 133 528 143 524 q 115 540 122 533 q 102 557 107 547 q 98 578 98 567 m 73 449 q 90 489 73 472 q 130 505 106 505 q 170 489 153 505 q 187 449 187 472 q 182 428 187 438 q 170 411 178 418 q 152 399 163 403 q 130 394 142 394 q 108 399 118 394 q 90 411 97 403 q 77 428 82 418 q 73 449 73 438 m 711 323 q 728 362 711 346 q 768 378 744 378 q 808 362 792 378 q 825 323 825 346 q 820 302 825 312 q 808 284 816 292 q 790 273 801 277 q 768 268 780 268 q 746 273 756 268 q 728 284 735 277 q 716 302 720 292 q 711 323 711 312 m 98 323 q 115 362 98 346 q 155 378 131 378 q 195 362 178 378 q 212 323 212 346 q 207 302 212 312 q 195 284 203 292 q 177 273 188 277 q 155 268 167 268 q 133 273 143 268 q 115 284 122 277 q 102 302 107 292 q 98 323 98 312 m 641 215 q 658 254 641 238 q 698 270 674 270 q 738 254 722 270 q 755 215 755 238 q 750 193 755 203 q 738 176 746 183 q 720 164 731 169 q 698 160 710 160 q 676 164 686 160 q 658 176 665 169 q 645 193 650 183 q 641 215 641 203 m 169 215 q 185 254 169 238 q 226 270 202 270 q 266 254 249 270 q 283 215 283 238 q 278 193 283 203 q 266 176 274 183 q 248 164 258 169 q 226 160 238 160 q 203 164 214 160 q 185 176 193 169 q 173 193 178 183 q 169 215 169 203 m 533 144 q 549 184 533 167 q 590 200 566 200 q 630 184 613 200 q 647 144 647 167 q 642 123 647 133 q 630 106 638 113 q 612 94 622 99 q 590 90 601 90 q 567 94 578 90 q 549 106 557 99 q 537 123 542 113 q 533 144 533 133 m 277 144 q 294 184 277 167 q 334 200 310 200 q 374 184 358 200 q 391 144 391 167 q 386 123 391 133 q 374 106 382 113 q 356 94 367 99 q 334 90 346 90 q 312 94 322 90 q 294 106 301 99 q 282 123 286 113 q 277 144 277 133 m 406 115 q 423 155 406 138 q 463 171 440 171 q 503 155 487 171 q 520 115 520 138 q 516 94 520 104 q 503 77 511 84 q 485 65 496 69 q 463 60 475 60 q 441 65 451 60 q 423 77 431 69 q 411 94 415 84 q 406 115 406 104 z "},"͏":{"ha":0,"x_min":0,"x_max":0,"o":""},"᷂":{"ha":0,"x_min":-140,"x_max":97,"o":"m -140 -62 q -127 -51 -140 -58 q -97 -37 -115 -44 q -61 -27 -80 -31 q -30 -23 -42 -23 q -11 -26 -19 -23 q 7 -34 -2 -29 q 25 -44 15 -38 q 46 -55 34 -50 q 82 -76 66 -62 q 97 -111 97 -90 q 89 -140 97 -128 q 67 -160 80 -151 q 39 -173 54 -168 q 11 -182 24 -178 q -11 -187 -2 -185 q -19 -192 -19 -190 q -8 -196 -19 -194 q 16 -202 3 -198 q 41 -217 30 -207 q 52 -247 52 -228 q 45 -276 52 -265 q 28 -294 38 -287 q 5 -305 17 -301 q -18 -312 -8 -308 q -35 -319 -28 -315 q -42 -331 -42 -324 q -39 -339 -42 -335 q -24 -345 -35 -342 q -23 -348 -23 -345 q -24 -355 -23 -351 q -28 -358 -26 -358 q -75 -342 -58 -354 q -92 -312 -92 -330 q -79 -281 -92 -292 q -51 -266 -66 -271 q -23 -259 -36 -261 q -10 -255 -10 -258 q -25 -250 -10 -252 q -57 -243 -40 -248 q -90 -227 -75 -237 q -104 -195 -104 -216 q -87 -156 -104 -170 q -51 -133 -71 -141 q -14 -121 -31 -125 q 3 -112 3 -117 q -6 -107 3 -107 q -18 -109 -14 -107 q -27 -113 -23 -111 q -36 -117 -31 -115 q -51 -117 -42 -118 q -78 -110 -62 -116 q -107 -97 -93 -105 q -130 -80 -121 -89 q -140 -62 -140 -71 z "},"Ɓ":{"ha":1097,"x_min":53,"x_max":1071,"o":"m 664 170 q 734 183 706 170 q 781 217 763 195 q 807 268 799 238 q 815 331 815 297 q 809 373 815 354 q 789 405 803 392 q 751 425 774 418 q 693 432 728 432 l 548 432 l 516 170 l 664 170 m 598 842 l 567 583 l 674 583 q 743 591 712 583 q 795 616 774 598 q 828 664 817 633 q 840 739 840 694 q 811 819 840 796 q 719 842 781 842 l 598 842 m 741 1011 q 892 994 830 1011 q 994 947 955 978 q 1052 873 1034 916 q 1071 776 1071 829 q 1060 697 1071 735 q 1026 626 1049 658 q 966 567 1003 593 q 877 522 929 540 q 998 452 959 500 q 1038 333 1038 405 q 1011 202 1038 263 q 934 97 984 142 q 810 26 883 52 q 646 0 738 0 l 269 0 l 374 853 l 372 853 q 307 844 332 853 q 269 818 283 835 q 251 778 256 801 q 247 726 247 755 q 248 705 247 715 q 249 691 249 695 q 249 672 250 681 q 243 654 248 663 q 228 639 238 646 q 203 628 219 633 l 67 601 q 57 653 61 626 q 53 706 53 681 q 76 832 53 776 q 143 928 99 889 q 250 990 187 968 q 392 1011 313 1011 l 741 1011 z "},"Ƅ":{"ha":951,"x_min":39,"x_max":922,"o":"m 544 170 q 601 180 577 170 q 642 207 625 190 q 670 245 660 224 q 688 289 681 267 q 696 332 694 311 q 698 370 698 353 q 692 418 698 394 q 674 460 687 442 q 638 490 660 478 q 582 501 615 501 l 423 501 l 383 179 l 383 170 l 544 170 m 593 672 q 741 649 678 672 q 843 585 803 625 q 902 491 883 544 q 922 379 922 438 q 894 231 922 300 q 816 110 867 161 q 692 30 765 59 q 526 0 619 0 l 135 0 l 206 584 l 206 584 l 39 713 l 319 1011 l 485 1011 l 444 672 l 593 672 z "},"Ɔ":{"ha":849,"x_min":-25,"x_max":822,"o":"m 110 256 q 128 252 119 256 q 144 241 137 248 q 177 209 160 222 q 213 189 194 197 q 256 177 233 181 q 307 174 278 174 q 413 200 362 174 q 503 276 464 226 q 566 400 542 326 q 590 567 590 473 q 576 680 590 630 q 536 764 562 729 q 473 816 510 798 q 391 835 437 835 q 309 823 341 835 q 254 798 276 812 q 216 773 232 784 q 181 761 199 761 q 154 769 163 761 q 140 786 145 776 l 76 888 q 143 942 106 917 q 222 984 179 967 q 313 1012 265 1002 q 414 1022 361 1022 q 583 989 508 1022 q 711 896 658 956 q 793 755 765 837 q 822 576 822 673 q 805 418 822 494 q 756 276 788 342 q 678 158 724 211 q 574 67 632 105 q 446 9 515 30 q 298 -11 376 -11 q 101 30 181 -11 q -25 149 21 70 l 76 243 q 93 253 85 251 q 110 256 102 256 z "},"Ƈ":{"ha":867,"x_min":45,"x_max":1139,"o":"m 805 149 q 648 30 739 70 q 442 -11 558 -11 q 273 23 347 -11 q 148 115 199 56 q 71 255 97 174 q 45 430 45 336 q 64 594 45 517 q 118 738 83 672 q 203 856 153 803 q 312 945 252 908 q 441 1002 372 983 q 584 1023 510 1022 q 657 1016 620 1023 q 730 997 694 1010 q 747 1088 733 1043 q 790 1168 760 1133 q 867 1225 819 1203 q 988 1247 915 1247 q 1034 1244 1013 1247 q 1072 1239 1054 1242 q 1106 1230 1090 1235 q 1139 1217 1122 1224 l 1095 1103 q 1081 1081 1089 1089 q 1064 1069 1073 1073 q 1045 1066 1055 1066 q 1026 1068 1035 1066 q 1009 1072 1019 1070 q 988 1073 999 1073 q 932 1044 951 1073 q 906 956 913 1015 l 898 878 l 819 787 q 799 769 810 777 q 770 762 788 762 q 749 767 758 762 q 729 781 739 773 q 706 799 719 789 q 676 816 694 808 q 635 830 659 824 q 578 835 611 835 q 459 808 515 835 q 364 731 404 781 q 300 609 323 681 q 277 448 277 537 q 293 333 277 383 q 335 247 308 282 q 400 193 363 212 q 481 175 438 175 q 548 181 519 175 q 596 196 576 187 q 630 216 616 205 q 655 235 644 226 q 676 250 666 244 q 697 256 685 256 q 715 252 708 256 q 726 244 722 249 l 805 149 z "},"Ɗ":{"ha":1213,"x_min":53,"x_max":1186,"o":"m 655 174 q 780 202 724 174 q 874 280 835 229 q 933 403 913 331 q 954 565 954 476 q 940 677 954 627 q 898 763 926 728 q 828 818 869 799 q 735 837 788 837 l 599 837 l 519 174 l 655 174 m 757 1011 q 936 978 857 1011 q 1072 886 1016 944 q 1157 747 1127 827 q 1186 572 1186 666 q 1145 343 1186 448 q 1030 163 1103 239 q 854 43 956 86 q 633 0 753 0 l 269 0 l 374 853 l 372 853 q 307 844 332 853 q 269 818 283 835 q 251 778 256 801 q 247 726 247 755 q 248 705 247 715 q 249 691 249 695 q 249 672 250 681 q 243 654 248 663 q 228 639 238 646 q 203 628 219 633 l 67 601 q 57 653 61 626 q 53 706 53 681 q 76 832 53 776 q 143 928 99 889 q 250 990 187 968 q 392 1011 313 1011 l 757 1011 z "},"Ƌ":{"ha":830,"x_min":19,"x_max":810,"o":"m 480 170 l 512 433 l 392 433 q 322 423 351 433 q 275 393 292 413 q 249 344 257 374 q 241 277 241 315 q 246 237 241 256 q 265 203 251 217 q 302 179 278 188 q 362 170 326 170 l 480 170 m 810 1011 l 685 0 l 340 0 q 203 20 263 0 q 102 78 143 41 q 41 167 62 115 q 19 281 19 219 q 41 405 19 347 q 110 507 63 463 q 232 577 157 551 q 415 603 307 603 l 533 603 l 562 842 l 122 842 l 143 1011 l 810 1011 z "},"Ǝ":{"ha":740,"x_min":-9,"x_max":719,"o":"m 594 0 l -9 0 l 13 174 l 388 174 l 419 424 l 133 424 l 154 592 l 440 592 l 469 837 l 93 837 l 115 1011 l 719 1011 l 594 0 z "},"Ə":{"ha":963,"x_min":38,"x_max":935,"o":"m 257 408 q 258 313 251 357 q 287 238 266 269 q 344 188 308 206 q 431 169 380 169 q 523 186 482 169 q 597 234 565 203 q 651 309 628 265 q 686 408 674 353 l 257 408 m 97 855 q 202 939 148 906 q 311 991 257 972 q 419 1018 366 1010 q 519 1026 472 1026 q 683 996 607 1026 q 815 908 759 966 q 903 765 872 850 q 935 570 935 681 q 918 414 935 489 q 868 275 901 340 q 789 157 835 210 q 684 66 742 104 q 556 8 625 28 q 409 -12 487 -12 q 256 14 324 -12 q 138 92 187 41 q 64 215 90 142 q 38 379 38 288 q 43 472 38 438 q 60 526 49 507 q 86 550 71 544 q 122 556 102 556 l 702 556 l 702 561 q 644 766 702 698 q 470 835 585 835 q 386 821 424 835 q 317 791 349 808 q 258 761 285 775 q 205 748 231 748 q 176 755 188 748 q 156 773 163 761 l 97 855 z "},"Ɛ":{"ha":774,"x_min":30,"x_max":798,"o":"m 736 822 q 703 791 718 797 q 676 785 688 785 q 644 794 659 785 q 607 815 628 803 q 553 835 585 826 q 472 844 522 844 q 408 834 434 844 q 367 805 383 823 q 344 764 351 788 q 338 715 338 741 q 366 641 338 667 q 460 614 394 614 l 617 614 l 597 458 l 421 458 q 349 444 378 458 q 301 407 319 430 q 274 357 282 385 q 265 304 265 330 q 274 254 265 278 q 300 212 283 230 q 345 183 318 194 q 411 173 373 173 q 472 180 447 173 q 518 199 498 188 q 556 224 538 210 q 591 251 573 238 q 610 262 600 258 q 630 267 620 267 q 645 264 638 267 q 659 253 653 260 l 730 159 q 631 74 681 107 q 530 23 581 42 q 428 -3 479 4 q 326 -10 377 -10 q 222 8 275 -10 q 127 59 169 25 q 57 145 84 94 q 30 267 30 197 q 44 358 30 315 q 83 436 58 401 q 142 499 108 471 q 215 545 176 526 q 160 578 183 559 q 124 620 138 597 q 105 668 110 643 q 99 718 99 693 q 127 832 99 777 q 207 929 155 887 q 333 997 259 972 q 501 1023 408 1023 q 597 1015 553 1023 q 677 991 640 1006 q 743 955 713 976 q 798 907 773 933 l 736 822 z "},"Ƒ":{"ha":739,"x_min":-187,"x_max":767,"o":"m 369 837 l 338 572 l 649 572 l 627 398 l 316 398 l 278 85 l 273 42 q 243 -74 265 -21 q 185 -166 222 -127 q 95 -226 148 -204 q -26 -248 43 -248 q -78 -246 -56 -248 q -119 -240 -101 -244 q -155 -231 -138 -236 q -187 -219 -171 -226 l -143 -105 q -130 -82 -137 -90 q -112 -70 -122 -74 q -94 -67 -103 -67 q -74 -69 -84 -67 q -58 -73 -68 -72 q -36 -74 -48 -74 q 19 -45 1 -74 q 45 42 38 -17 l 50 85 l 51 85 l 164 1011 l 767 1011 l 744 837 l 369 837 z "},"Ɠ":{"ha":943,"x_min":45,"x_max":1181,"o":"m 940 887 l 862 788 q 818 759 844 765 q 767 770 793 753 q 722 798 743 786 q 678 818 700 810 q 631 831 656 826 q 576 835 606 835 q 456 807 510 835 q 361 728 401 779 q 299 606 322 678 q 277 448 277 535 q 294 328 277 381 q 340 239 310 275 q 412 183 370 202 q 504 163 453 163 q 578 171 546 163 q 642 192 611 178 l 662 356 l 576 356 q 543 367 554 356 q 535 397 533 378 l 551 521 l 888 521 l 835 97 q 755 49 797 69 q 668 15 713 28 q 572 -5 622 1 q 465 -11 522 -11 q 294 23 371 -11 q 161 118 217 58 q 76 261 106 178 q 45 441 45 344 q 64 601 45 525 q 117 741 83 676 q 202 858 152 806 q 315 946 252 910 q 451 1002 377 983 q 608 1022 525 1022 q 693 1016 653 1022 q 767 999 732 1010 q 785 1090 771 1045 q 831 1169 800 1134 q 909 1225 861 1204 q 1029 1247 958 1247 q 1076 1244 1055 1247 q 1114 1239 1097 1242 q 1148 1230 1132 1235 q 1181 1217 1165 1224 l 1137 1103 q 1123 1081 1131 1089 q 1106 1069 1115 1073 q 1087 1066 1097 1066 q 1068 1068 1077 1066 q 1052 1072 1062 1070 q 1030 1073 1042 1073 q 974 1044 993 1073 q 949 956 956 1015 l 940 887 z "},"Ɣ":{"ha":932,"x_min":-33,"x_max":1031,"o":"m 364 185 q 338 165 353 173 l 538 165 q 513 191 523 175 l 443 320 q 391 247 422 279 l 364 185 m 599 444 l 856 0 l -33 0 l 340 455 l 40 1011 l 260 1011 q 291 1005 281 1011 q 310 982 301 998 l 503 599 l 765 982 q 787 1003 776 997 q 813 1010 799 1010 l 1031 1010 l 599 444 z "},"Ɩ":{"ha":467,"x_min":58,"x_max":413,"o":"m 160 1012 l 388 1012 l 293 240 q 291 202 290 218 q 297 176 292 186 q 313 161 303 166 q 341 156 324 156 l 413 156 l 403 85 q 384 41 400 59 q 343 13 367 24 q 289 -3 319 1 q 229 -8 259 -8 q 147 10 181 -8 q 92 60 113 28 q 65 135 72 92 q 64 228 58 178 l 160 1012 z "}}}
